<svg width="20" height="19" viewBox="0 0 20 19" fill="none" xmlns="http://www.w3.org/2000/svg">
<path d="M6.58259 14.201C5.26716 14.201 4.2009 15.2753 4.2009 16.6004C4.2009 17.9257 5.26716 19 6.58259 19C7.89785 19 8.96411 17.9257 8.96411 16.6004C8.96275 15.2758 7.89734 14.2024 6.58259 14.201Z" fill="white"/>
<path d="M19.9134 4.30743C19.8301 4.19716 19.7006 4.13203 19.5631 4.13099H4.10462L3.78944 2.35339C3.59517 1.25912 2.74387 0.403318 1.65742 0.209826L0.514716 0.0068589C0.276495 -0.0356988 0.0492189 0.124194 0.00680773 0.364206C-0.0354324 0.604045 0.123267 0.833202 0.361488 0.87576L1.50847 1.07873C2.2322 1.20795 2.79876 1.77878 2.92702 2.50777L4.47674 11.3164C4.65972 12.3703 5.56866 13.1389 6.63065 13.1379H15.8243C16.7902 13.141 17.6432 12.504 17.9214 11.572L19.979 4.70009C20.0223 4.56622 19.9977 4.41959 19.9134 4.30743Z" fill="white"/>
<path d="M15.7762 14.201C14.4608 14.201 13.3945 15.2753 13.3945 16.6004C13.3945 17.9257 14.4608 19 15.7762 19C17.0915 19 18.1578 17.9257 18.1578 16.6004C18.1564 15.2758 17.091 14.2024 15.7762 14.201Z" fill="white"/>
</svg>
