<svg width="20" height="16" viewBox="0 0 20 16" fill="none" xmlns="http://www.w3.org/2000/svg">
<path d="M1.9196 4.93184C2.1726 5.11361 2.93522 5.65349 4.20752 6.55118C5.47985 7.44888 6.45455 8.14008 7.13164 8.62483C7.20603 8.67797 7.36407 8.79347 7.60585 8.97151C7.84767 9.14966 8.0486 9.29363 8.20848 9.40344C8.36848 9.51322 8.5619 9.63636 8.78894 9.77268C9.0159 9.90889 9.22985 10.0113 9.43074 10.0792C9.63167 10.1475 9.81766 10.1814 9.98876 10.1814H10.0112C10.1823 10.1814 10.3684 10.1475 10.5693 10.0792C10.7702 10.0113 10.9843 9.90877 11.2111 9.77268C11.4379 9.6362 11.6314 9.51318 11.7914 9.40344C11.9514 9.29363 12.1521 9.14966 12.394 8.97151C12.6358 8.79331 12.794 8.67797 12.8684 8.62483C13.5528 8.14008 15.294 6.90897 18.0915 4.9316C18.6347 4.5454 19.0884 4.07939 19.453 3.53391C19.8178 2.98866 20 2.41666 20 1.81824C20 1.31817 19.8232 0.890094 19.4697 0.534064C19.1163 0.177955 18.6977 0 18.2142 0H1.78564C1.21276 0 0.77189 0.196941 0.463111 0.590822C0.15437 0.984783 0 1.47721 0 2.06808C0 2.54534 0.20468 3.06253 0.613846 3.61932C1.02297 4.17615 1.45837 4.6137 1.9196 4.93184Z" fill="#FA9401"/>
<path d="M18.8838 6.14763C16.4435 7.82931 14.5906 9.13625 13.3259 10.0682C12.9018 10.3862 12.5578 10.6345 12.2936 10.8124C12.0293 10.9905 11.678 11.1723 11.2389 11.3578C10.8 11.5436 10.3909 11.6362 10.0114 11.6362H9.9888C9.60934 11.6362 9.20006 11.5436 8.76115 11.3578C8.32223 11.1723 7.97061 10.9905 7.70647 10.8124C7.44241 10.6345 7.09826 10.3862 6.6742 10.0682C5.66968 9.31822 3.82075 8.0112 1.12734 6.14763C0.703129 5.85994 0.327387 5.53018 0 5.15903V14.1816C0 14.6819 0.174776 15.1097 0.524523 15.4658C0.874192 15.822 1.29465 16 1.78575 16H18.2144C18.7053 16 19.1258 15.822 19.4755 15.4658C19.8253 15.1096 20 14.6819 20 14.1816V5.15903C19.68 5.5225 19.3081 5.85226 18.8838 6.14763Z" fill="#FA9401"/>
</svg>
