<svg width="16" height="20" viewBox="0 0 16 20" fill="none" xmlns="http://www.w3.org/2000/svg">
<path d="M8.26488 0.00416853C4.00132 -0.132709 0.5 3.11898 0.5 7.14966C0.5 11.724 5.10812 15.0438 7.69096 19.818C7.8221 20.0604 8.1884 20.0608 8.31999 19.8184C10.6565 15.5225 14.65 12.6419 15.3901 8.50332C16.1564 4.2207 12.8226 0.150548 8.26488 0.00416853ZM8.00511 10.8947C5.83398 10.8947 4.07388 9.21789 4.07388 7.14966C4.07388 5.08142 5.83402 3.40466 8.00511 3.40466C10.1762 3.40466 11.9364 5.08142 11.9364 7.14966C11.9364 9.21789 10.1762 10.8947 8.00511 10.8947Z" fill="#FA9401"/>
</svg>
