<svg width="20" height="16" viewBox="0 0 20 16" fill="none" xmlns="http://www.w3.org/2000/svg">
<path d="M18.4996 0H1.5005C0.673107 0 0 0.67499 0 1.50469V12.5518C0 13.3814 0.673107 14.0564 1.5005 14.0564H5.2325L4.50537 14.6172C4.24433 14.8186 4.14008 15.1643 4.24609 15.477C4.35214 15.7897 4.64495 16 4.97436 16H15.0257C15.3551 16 15.6479 15.7897 15.754 15.477C15.86 15.1643 15.7558 14.8186 15.4947 14.6172L14.7676 14.0563H18.4995C19.3269 14.0563 20 13.3813 20 12.5517V1.50469C20.0001 0.67499 19.327 0 18.4996 0ZM17.9487 11.9994H2.05131V2.05702H17.9488V11.9994H17.9487V11.9994Z" fill="#FA9401"/>
</svg>
