<svg width="21" height="20" viewBox="0 0 21 20" fill="none" xmlns="http://www.w3.org/2000/svg">
<path d="M7.08259 14.701C5.76716 14.701 4.7009 15.7753 4.7009 17.1004C4.7009 18.4257 5.76716 19.5 7.08259 19.5C8.39785 19.5 9.46411 18.4257 9.46411 17.1004C9.46275 15.7758 8.39734 14.7024 7.08259 14.701Z" fill="white"/>
<path d="M20.4134 4.80743C20.3301 4.69716 20.2006 4.63203 20.0631 4.63099H4.60462L4.28944 2.85339C4.09517 1.75912 3.24387 0.903318 2.15742 0.709826L1.01472 0.506859C0.776495 0.464301 0.549219 0.624194 0.506808 0.864206C0.464568 1.10405 0.623267 1.3332 0.861488 1.37576L2.00847 1.57873C2.7322 1.70795 3.29876 2.27878 3.42702 3.00777L4.97674 11.8164C5.15972 12.8703 6.06866 13.6389 7.13065 13.6379H16.3243C17.2902 13.641 18.1432 13.004 18.4214 12.072L20.479 5.20009C20.5223 5.06622 20.4977 4.91959 20.4134 4.80743Z" fill="white"/>
<path d="M16.2762 14.701C14.9608 14.701 13.8945 15.7753 13.8945 17.1004C13.8945 18.4257 14.9608 19.5 16.2762 19.5C17.5915 19.5 18.6578 18.4257 18.6578 17.1004C18.6564 15.7758 17.591 14.7024 16.2762 14.701Z" fill="white"/>
</svg>
