<svg width="19" height="18" viewBox="0 0 19 18" fill="none" xmlns="http://www.w3.org/2000/svg">
<path d="M17.02 7.28C16.14 4.96 13.82 3.76 11.26 4.24C8.78 1.76 5.34 0.08 1.9 0C1.66 0 1.5 0.16 1.5 0.4C1.58 3.84 3.26 7.28 5.66 9.76C5.26 12.24 6.38 14.64 8.7 15.52C8.3 14.48 8.22 13.28 8.54 12.08C8.94 12.32 9.34 12.56 9.74 12.72C9.9 12.8 10.06 12.8 10.22 12.64L14.22 8.64C14.3 8.56 14.3 8.4 14.22 8.24C14.06 7.84 13.82 7.44 13.58 7.12C14.78 6.8 15.98 6.88 17.02 7.28ZM8.22 6.72C7.58 7.36 6.62 7.36 5.98 6.72C5.34 6.08 5.34 5.12 5.98 4.48C6.62 3.84 7.58 3.84 8.22 4.48C8.86 5.12 8.86 6.08 8.22 6.72Z" fill="white"/>
<path d="M17.26 11.52L15.58 9.84C15.26 9.52 14.78 9.52 14.46 9.84C14.14 10.16 14.14 10.64 14.46 10.96L16.14 12.64C16.46 12.96 16.94 12.96 17.26 12.64C17.58 12.32 17.58 11.84 17.26 11.52Z" fill="white"/>
<path d="M14.14 14.64L12.46 12.96C12.14 12.64 11.66 12.64 11.34 12.96C11.02 13.28 11.02 13.76 11.34 14.08L13.02 15.76C13.34 16.08 13.82 16.08 14.14 15.76C14.46 15.44 14.46 14.96 14.14 14.64Z" fill="white"/>
<path d="M16.3 13.76L13.98 11.44C13.66 11.12 13.18 11.12 12.86 11.44C12.54 11.76 12.54 12.24 12.86 12.56L15.18 14.88C15.5 15.2 15.98 15.2 16.3 14.88C16.62 14.56 16.62 14.08 16.3 13.76Z" fill="white"/>
</svg>
