<svg width="18" height="18" viewBox="0 0 18 18" fill="none" xmlns="http://www.w3.org/2000/svg">
<path d="M12.4286 10.0571H11.6971L11.4229 9.78286C12.3372 8.77714 12.8858 7.40571 12.8858 5.94286C12.8857 2.65143 10.2343 0 6.94286 0C3.65143 0 1 2.65143 1 5.94286C1 9.23429 3.65143 11.8857 6.94286 11.8857C8.40571 11.8857 9.77714 11.3371 10.7829 10.4229L11.0571 10.6971V11.4285L15.6286 16L17 14.6286L12.4286 10.0571ZM6.94286 10.0571C4.65714 10.0571 2.82857 8.22857 2.82857 5.94286C2.82857 3.65714 4.65714 1.82857 6.94286 1.82857C9.22857 1.82857 11.0571 3.65714 11.0571 5.94286C11.0571 8.22857 9.22857 10.0571 6.94286 10.0571Z" fill="white"/>
</svg>
