<svg width="24" height="24" viewBox="0 0 24 24" fill="none" xmlns="http://www.w3.org/2000/svg">
<path d="M12 24C18.6274 24 24 18.6274 24 12C24 5.37258 18.6274 0 12 0C5.37258 0 0 5.37258 0 12C0 18.6274 5.37258 24 12 24Z" fill="#6DA544"/>
<path d="M12.0001 4.6958L21.9131 12.0001L12.0001 19.3045L2.08704 12.0001L12.0001 4.6958Z" fill="#FFDA44"/>
<path d="M11.9999 16.174C14.3051 16.174 16.1738 14.3052 16.1738 12.0001C16.1738 9.69489 14.3051 7.82617 11.9999 7.82617C9.69476 7.82617 7.82605 9.69489 7.82605 12.0001C7.82605 14.3052 9.69476 16.174 11.9999 16.174Z" fill="#F0F0F0"/>
<path d="M9.91312 11.7393C9.18731 11.7393 8.48686 11.8496 7.82751 12.0545C7.85672 14.3345 9.71316 16.1741 12.0001 16.1741C13.4142 16.1741 14.6632 15.4701 15.4182 14.3943C14.1264 12.7773 12.1389 11.7393 9.91312 11.7393Z" fill="#0052B4"/>
<path d="M16.0965 12.7998C16.1468 12.5408 16.1739 12.2737 16.1739 12.0001C16.1739 9.69484 14.3052 7.82617 12 7.82617C10.28 7.82617 8.80343 8.86684 8.16443 10.3527C8.72927 10.2356 9.31408 10.174 9.9131 10.174C12.3373 10.174 14.5304 11.1817 16.0965 12.7998Z" fill="#0052B4"/>
</svg>
