<svg width="20" height="20" viewBox="0 0 20 20" fill="none" xmlns="http://www.w3.org/2000/svg">
<path d="M18.7492 8.85796H3.92555L8.46264 3.87555C8.6748 3.64218 8.77686 3.34131 8.74639 3.03914C8.71592 2.73697 8.5554 2.45823 8.30016 2.26426C8.04491 2.0703 7.71584 1.97698 7.38533 2.00484C7.05483 2.0327 6.74997 2.17945 6.53781 2.41282L0.288374 9.26935C0.246329 9.32389 0.208731 9.38118 0.175884 9.44076C0.175884 9.4979 0.175885 9.53219 0.0883926 9.58932C0.0317396 9.72035 0.00207656 9.85982 0.000900269 10.0007C0.00207656 10.1416 0.0317396 10.2811 0.0883926 10.4121C0.0883926 10.4692 0.0883922 10.5035 0.175884 10.5607C0.208731 10.6202 0.246329 10.6775 0.288374 10.7321L6.53781 17.5886C6.65533 17.7176 6.80249 17.8213 6.96883 17.8924C7.13517 17.9635 7.31661 18.0003 7.50023 18C7.79227 18.0005 8.07529 17.9075 8.30016 17.7372C8.42672 17.6412 8.53133 17.5234 8.60802 17.3905C8.6847 17.2575 8.73194 17.112 8.74704 16.9623C8.76213 16.8127 8.74478 16.6617 8.69598 16.5182C8.64718 16.3747 8.56788 16.2414 8.46264 16.1259L3.92555 11.1435H18.7492C19.0807 11.1435 19.3986 11.0231 19.633 10.8088C19.8674 10.5945 19.9991 10.3038 19.9991 10.0007C19.9991 9.69764 19.8674 9.40697 19.633 9.19266C19.3986 8.97836 19.0807 8.85796 18.7492 8.85796Z" fill="white"/>
</svg>
