<svg width="122" height="34" viewBox="0 0 122 34" fill="none" xmlns="http://www.w3.org/2000/svg">
<rect width="121.333" height="34" rx="17" fill="white"/>
<path d="M14.3223 12.4688V21H13.1914V12.4688H14.3223ZM20.2109 19.7695V12H21.3008V21H20.3047L20.2109 19.7695ZM15.9453 17.9004V17.7773C15.9453 17.293 16.0039 16.8535 16.1211 16.459C16.2422 16.0605 16.4121 15.7188 16.6309 15.4336C16.8535 15.1484 17.1172 14.9297 17.4219 14.7773C17.7305 14.6211 18.0742 14.543 18.4531 14.543C18.8516 14.543 19.1992 14.6133 19.4961 14.7539C19.7969 14.8906 20.0508 15.0918 20.2578 15.3574C20.4688 15.6191 20.6348 15.9355 20.7559 16.3066C20.877 16.6777 20.9609 17.0977 21.0078 17.5664V18.1055C20.9648 18.5703 20.8809 18.9883 20.7559 19.3594C20.6348 19.7305 20.4688 20.0469 20.2578 20.3086C20.0508 20.5703 19.7969 20.7715 19.4961 20.9121C19.1953 21.0488 18.8438 21.1172 18.4414 21.1172C18.0703 21.1172 17.7305 21.0371 17.4219 20.877C17.1172 20.7168 16.8535 20.4922 16.6309 20.2031C16.4121 19.9141 16.2422 19.5742 16.1211 19.1836C16.0039 18.7891 15.9453 18.3613 15.9453 17.9004ZM17.0352 17.7773V17.9004C17.0352 18.2168 17.0664 18.5137 17.1289 18.791C17.1953 19.0684 17.2969 19.3125 17.4336 19.5234C17.5703 19.7344 17.7441 19.9004 17.9551 20.0215C18.166 20.1387 18.418 20.1973 18.7109 20.1973C19.0703 20.1973 19.3652 20.1211 19.5957 19.9688C19.8301 19.8164 20.0176 19.6152 20.1582 19.3652C20.2988 19.1152 20.4082 18.8438 20.4863 18.5508V17.1387C20.4395 16.9238 20.3711 16.7168 20.2812 16.5176C20.1953 16.3145 20.082 16.1348 19.9414 15.9785C19.8047 15.8184 19.6348 15.6914 19.4316 15.5977C19.2324 15.5039 18.9961 15.457 18.7227 15.457C18.4258 15.457 18.1699 15.5195 17.9551 15.6445C17.7441 15.7656 17.5703 15.9336 17.4336 16.1484C17.2969 16.3594 17.1953 16.6055 17.1289 16.8867C17.0664 17.1641 17.0352 17.4609 17.0352 17.7773ZM24.166 14.6602V21H23.0762V14.6602H24.166ZM22.9941 12.9785C22.9941 12.8027 23.0469 12.6543 23.1523 12.5332C23.2617 12.4121 23.4219 12.3516 23.6328 12.3516C23.8398 12.3516 23.998 12.4121 24.1074 12.5332C24.2207 12.6543 24.2773 12.8027 24.2773 12.9785C24.2773 13.1465 24.2207 13.291 24.1074 13.4121C23.998 13.5293 23.8398 13.5879 23.6328 13.5879C23.4219 13.5879 23.2617 13.5293 23.1523 13.4121C23.0469 13.291 22.9941 13.1465 22.9941 12.9785ZM25.6191 17.9004V17.7656C25.6191 17.3086 25.6855 16.8848 25.8184 16.4941C25.9512 16.0996 26.1426 15.7578 26.3926 15.4688C26.6426 15.1758 26.9453 14.9492 27.3008 14.7891C27.6562 14.625 28.0547 14.543 28.4961 14.543C28.9414 14.543 29.3418 14.625 29.6973 14.7891C30.0566 14.9492 30.3613 15.1758 30.6113 15.4688C30.8652 15.7578 31.0586 16.0996 31.1914 16.4941C31.3242 16.8848 31.3906 17.3086 31.3906 17.7656V17.9004C31.3906 18.3574 31.3242 18.7812 31.1914 19.1719C31.0586 19.5625 30.8652 19.9043 30.6113 20.1973C30.3613 20.4863 30.0586 20.7129 29.7031 20.877C29.3516 21.0371 28.9531 21.1172 28.5078 21.1172C28.0625 21.1172 27.6621 21.0371 27.3066 20.877C26.9512 20.7129 26.6465 20.4863 26.3926 20.1973C26.1426 19.9043 25.9512 19.5625 25.8184 19.1719C25.6855 18.7812 25.6191 18.3574 25.6191 17.9004ZM26.7031 17.7656V17.9004C26.7031 18.2168 26.7402 18.5156 26.8145 18.7969C26.8887 19.0742 27 19.3203 27.1484 19.5352C27.3008 19.75 27.4902 19.9199 27.7168 20.0449C27.9434 20.166 28.207 20.2266 28.5078 20.2266C28.8047 20.2266 29.0645 20.166 29.2871 20.0449C29.5137 19.9199 29.7012 19.75 29.8496 19.5352C29.998 19.3203 30.1094 19.0742 30.1836 18.7969C30.2617 18.5156 30.3008 18.2168 30.3008 17.9004V17.7656C30.3008 17.4531 30.2617 17.1582 30.1836 16.8809C30.1094 16.5996 29.9961 16.3516 29.8438 16.1367C29.6953 15.918 29.5078 15.7461 29.2812 15.6211C29.0586 15.4961 28.7969 15.4336 28.4961 15.4336C28.1992 15.4336 27.9375 15.4961 27.7109 15.6211C27.4883 15.7461 27.3008 15.918 27.1484 16.1367C27 16.3516 26.8887 16.5996 26.8145 16.8809C26.7402 17.1582 26.7031 17.4531 26.7031 17.7656ZM33.8281 15.9199V21H32.7383V14.6602H33.7695L33.8281 15.9199ZM33.6055 17.5898L33.1016 17.5723C33.1055 17.1387 33.1621 16.7383 33.2715 16.3711C33.3809 16 33.543 15.6777 33.7578 15.4043C33.9727 15.1309 34.2402 14.9199 34.5605 14.7715C34.8809 14.6191 35.252 14.543 35.6738 14.543C35.9707 14.543 36.2441 14.5859 36.4941 14.6719C36.7441 14.7539 36.9609 14.8848 37.1445 15.0645C37.3281 15.2441 37.4707 15.4746 37.5723 15.7559C37.6738 16.0371 37.7246 16.377 37.7246 16.7754V21H36.6406V16.8281C36.6406 16.4961 36.584 16.2305 36.4707 16.0312C36.3613 15.832 36.2051 15.6875 36.002 15.5977C35.7988 15.5039 35.5605 15.457 35.2871 15.457C34.9668 15.457 34.6992 15.5137 34.4844 15.627C34.2695 15.7402 34.0977 15.8965 33.9688 16.0957C33.8398 16.2949 33.7461 16.5234 33.6875 16.7812C33.6328 17.0352 33.6055 17.3047 33.6055 17.5898ZM37.7129 16.9922L36.9863 17.2148C36.9902 16.8672 37.0469 16.5332 37.1562 16.2129C37.2695 15.8926 37.4316 15.6074 37.6426 15.3574C37.8574 15.1074 38.1211 14.9102 38.4336 14.7656C38.7461 14.6172 39.1035 14.543 39.5059 14.543C39.8457 14.543 40.1465 14.5879 40.4082 14.6777C40.6738 14.7676 40.8965 14.9062 41.0762 15.0938C41.2598 15.2773 41.3984 15.5137 41.4922 15.8027C41.5859 16.0918 41.6328 16.4355 41.6328 16.834V21H40.543V16.8223C40.543 16.4668 40.4863 16.1914 40.373 15.9961C40.2637 15.7969 40.1074 15.6582 39.9043 15.5801C39.7051 15.498 39.4668 15.457 39.1895 15.457C38.9512 15.457 38.7402 15.498 38.5566 15.5801C38.373 15.6621 38.2188 15.7754 38.0938 15.9199C37.9688 16.0605 37.873 16.2227 37.8066 16.4062C37.7441 16.5898 37.7129 16.7852 37.7129 16.9922ZM47.0117 19.916V16.6523C47.0117 16.4023 46.9609 16.1855 46.8594 16.002C46.7617 15.8145 46.6133 15.6699 46.4141 15.5684C46.2148 15.4668 45.9688 15.416 45.6758 15.416C45.4023 15.416 45.1621 15.4629 44.9551 15.5566C44.752 15.6504 44.5918 15.7734 44.4746 15.9258C44.3613 16.0781 44.3047 16.2422 44.3047 16.418H43.2207C43.2207 16.1914 43.2793 15.9668 43.3965 15.7441C43.5137 15.5215 43.6816 15.3203 43.9004 15.1406C44.123 14.957 44.3887 14.8125 44.6973 14.707C45.0098 14.5977 45.3574 14.543 45.7402 14.543C46.2012 14.543 46.6074 14.6211 46.959 14.7773C47.3145 14.9336 47.5918 15.1699 47.791 15.4863C47.9941 15.7988 48.0957 16.1914 48.0957 16.6641V19.6172C48.0957 19.8281 48.1133 20.0527 48.1484 20.291C48.1875 20.5293 48.2441 20.7344 48.3184 20.9062V21H47.1875C47.1328 20.875 47.0898 20.709 47.0586 20.502C47.0273 20.291 47.0117 20.0957 47.0117 19.916ZM47.1992 17.1562L47.2109 17.918H46.1152C45.8066 17.918 45.5312 17.9434 45.2891 17.9941C45.0469 18.041 44.8438 18.1133 44.6797 18.2109C44.5156 18.3086 44.3906 18.4316 44.3047 18.5801C44.2188 18.7246 44.1758 18.8945 44.1758 19.0898C44.1758 19.2891 44.2207 19.4707 44.3105 19.6348C44.4004 19.7988 44.5352 19.9297 44.7148 20.0273C44.8984 20.1211 45.123 20.168 45.3887 20.168C45.7207 20.168 46.0137 20.0977 46.2676 19.957C46.5215 19.8164 46.7227 19.6445 46.8711 19.4414C47.0234 19.2383 47.1055 19.041 47.1172 18.8496L47.5801 19.3711C47.5527 19.5352 47.4785 19.7168 47.3574 19.916C47.2363 20.1152 47.0742 20.3066 46.8711 20.4902C46.6719 20.6699 46.4336 20.8203 46.1562 20.9414C45.8828 21.0586 45.5742 21.1172 45.2305 21.1172C44.8008 21.1172 44.4238 21.0332 44.0996 20.8652C43.7793 20.6973 43.5293 20.4727 43.3496 20.1914C43.1738 19.9062 43.0859 19.5879 43.0859 19.2363C43.0859 18.8965 43.1523 18.5977 43.2852 18.3398C43.418 18.0781 43.6094 17.8613 43.8594 17.6895C44.1094 17.5137 44.4102 17.3809 44.7617 17.291C45.1133 17.2012 45.5059 17.1562 45.9395 17.1562H47.1992ZM49.7539 20.4258C49.7539 20.2422 49.8105 20.0879 49.9238 19.9629C50.041 19.834 50.209 19.7695 50.4277 19.7695C50.6465 19.7695 50.8125 19.834 50.9258 19.9629C51.043 20.0879 51.1016 20.2422 51.1016 20.4258C51.1016 20.6055 51.043 20.7578 50.9258 20.8828C50.8125 21.0078 50.6465 21.0703 50.4277 21.0703C50.209 21.0703 50.041 21.0078 49.9238 20.8828C49.8105 20.7578 49.7539 20.6055 49.7539 20.4258ZM49.7598 15.252C49.7598 15.0684 49.8164 14.9141 49.9297 14.7891C50.0469 14.6602 50.2148 14.5957 50.4336 14.5957C50.6523 14.5957 50.8184 14.6602 50.9316 14.7891C51.0488 14.9141 51.1074 15.0684 51.1074 15.252C51.1074 15.4316 51.0488 15.584 50.9316 15.709C50.8184 15.834 50.6523 15.8965 50.4336 15.8965C50.2148 15.8965 50.0469 15.834 49.9297 15.709C49.8164 15.584 49.7598 15.4316 49.7598 15.252Z" fill="#444242"/>
<g clip-path="url(#clip0_1286_5998)">
<path d="M74 29C80.6274 29 86 23.6274 86 17C86 10.3726 80.6274 5 74 5C67.3726 5 62 10.3726 62 17C62 23.6274 67.3726 29 74 29Z" fill="#6DA544"/>
<path d="M74.0001 9.6958L83.9131 17.0001L74.0001 24.3045L64.087 17.0001L74.0001 9.6958Z" fill="#FFDA44"/>
<path d="M73.9999 21.174C76.3051 21.174 78.1738 19.3052 78.1738 17.0001C78.1738 14.6949 76.3051 12.8262 73.9999 12.8262C71.6948 12.8262 69.826 14.6949 69.826 17.0001C69.826 19.3052 71.6948 21.174 73.9999 21.174Z" fill="#F0F0F0"/>
<path d="M71.9131 16.7393C71.1873 16.7393 70.4869 16.8496 69.8275 17.0545C69.8567 19.3345 71.7132 21.1741 74.0001 21.1741C75.4142 21.1741 76.6632 20.4701 77.4182 19.3943C76.1264 17.7773 74.1389 16.7393 71.9131 16.7393Z" fill="#0052B4"/>
<path d="M78.0965 17.7998C78.1468 17.5408 78.1739 17.2737 78.1739 17.0001C78.1739 14.6948 76.3052 12.8262 74 12.8262C72.28 12.8262 70.8034 13.8668 70.1644 15.3527C70.7293 15.2356 71.3141 15.174 71.9131 15.174C74.3373 15.174 76.5304 16.1817 78.0965 17.7998Z" fill="#0052B4"/>
</g>
<path d="M105.84 14.9179L105.513 14.6387C105.41 14.5515 105.272 14.5034 105.126 14.5034C104.979 14.5034 104.842 14.5515 104.739 14.6387L101.002 17.8019L97.2613 14.6352C97.1584 14.548 97.0211 14.5 96.8746 14.5C96.7281 14.5 96.5907 14.548 96.4876 14.6352L96.16 14.9127C95.9467 15.0931 95.9467 15.3871 96.16 15.5675L100.614 19.3515C100.717 19.4386 100.854 19.5 101.002 19.5H101.004C101.15 19.5 101.287 19.4385 101.39 19.3515L105.84 15.5778C105.943 15.4906 106 15.371 106 15.247C106 15.1229 105.943 15.005 105.84 14.9179Z" fill="#444242"/>
<defs>
<clipPath id="clip0_1286_5998">
<rect width="24" height="24" fill="white" transform="translate(62 5)"/>
</clipPath>
</defs>
</svg>
