<svg width="122" height="40" viewBox="0 0 122 40" fill="none" xmlns="http://www.w3.org/2000/svg">
<path d="M35.8167 1.38672C36.4309 1.38672 36.8916 1.57847 37.1987 1.92361C37.5058 2.26876 37.621 2.69061 37.621 3.2275C37.621 3.7644 37.4674 4.18624 37.1603 4.56974C36.8532 4.95324 36.3925 5.14499 35.7783 5.14499C35.2025 5.14499 34.7418 4.95324 34.4731 4.56974C34.2044 4.18624 34.0508 3.72605 34.0508 3.2275C34.0508 2.69061 34.2044 2.26876 34.4731 1.92361C34.7802 1.57847 35.2409 1.38672 35.8167 1.38672ZM37.3906 8.05956V28.9985H34.3579V8.05956H37.3906Z" fill="white"/>
<path d="M51.0954 1.08008V28.9986H49.0224L48.5233 27.6947C47.9859 28.1933 47.4101 28.5768 46.7575 28.8452C46.1048 29.1137 45.4138 29.2671 44.7228 29.2671C44.147 29.2671 43.6096 29.152 43.0721 28.9603C42.5347 28.7685 42.074 28.4234 41.6901 28.0015C41.3062 27.5797 40.9991 27.0428 40.7304 26.4292C40.5001 25.8156 40.3849 25.0486 40.3849 24.2049V12.8534C40.3849 12.0097 40.5001 11.2811 40.7304 10.6291C40.9607 9.9772 41.2678 9.4403 41.6901 9.01846C42.074 8.59661 42.5347 8.28981 43.0721 8.05972C43.6096 7.86797 44.147 7.75292 44.7228 7.75292C45.2987 7.75292 45.9129 7.86797 46.4887 8.05972C47.0646 8.25146 47.602 8.55826 48.1011 8.94176V1.84707L51.0954 1.08008ZM43.4176 23.553C43.4176 24.435 43.5712 25.087 43.9167 25.5472C44.2622 26.0074 44.7996 26.2375 45.529 26.2375C46.4503 26.2375 47.2949 25.854 48.0243 25.0486V12.0097C47.2565 11.2044 46.4503 10.8209 45.529 10.8209C44.7612 10.8209 44.2238 11.051 43.9167 11.5112C43.5712 11.9714 43.4176 12.6617 43.4176 13.5054V23.553Z" fill="white"/>
<path d="M60.9614 19.6037C60.5007 20.0255 59.9248 20.4474 59.2722 20.9076C58.6196 21.3678 57.8902 21.8663 57.0457 22.4032V24.0906C57.0457 24.8192 57.2376 25.3561 57.6599 25.7396C58.0822 26.1231 58.5812 26.3149 59.2339 26.3149C59.8865 26.3149 60.4239 26.1231 60.8462 25.7396C61.2685 25.3561 61.4604 24.8192 61.4604 24.0906V22.7484L64.2244 22.0197V24.1673C64.2244 24.9726 64.1092 25.6629 63.8405 26.2765C63.5718 26.8901 63.2263 27.427 62.7272 27.8872C62.2666 28.3474 61.7291 28.6542 61.1149 28.8843C60.5007 29.1144 59.8481 29.2295 59.1187 29.2295C58.3893 29.2295 57.7367 29.1144 57.1608 28.8843C56.5466 28.6542 56.0092 28.3091 55.5485 27.8872C55.0878 27.427 54.7423 26.9285 54.4736 26.2765C54.2049 25.6629 54.0897 24.9343 54.0897 24.1673V12.8541C54.0897 12.0872 54.2049 11.3585 54.4736 10.7449C54.7423 10.1313 55.0878 9.59443 55.5485 9.13423C56.0092 8.67403 56.5466 8.36724 57.1608 8.13714C57.7751 7.90704 58.4277 7.79199 59.1571 7.79199C59.7713 7.79199 60.3855 7.86869 60.9997 8.06044C61.614 8.25219 62.1514 8.55898 62.6505 8.98083C63.1111 9.40268 63.5334 9.97792 63.8405 10.6682C64.1476 11.3585 64.3012 12.2406 64.3012 13.276C64.3012 14.5799 64.0325 15.7304 63.495 16.6891C62.9576 17.6862 62.113 18.6449 60.9614 19.6037ZM57.0457 19.4503C58.0822 18.7983 58.85 18.1847 59.4258 17.6862C60.1168 17.0343 60.6542 16.3823 60.923 15.7304C61.2301 15.0784 61.3836 14.3498 61.3836 13.5061C61.3836 12.394 61.1533 11.6653 60.731 11.2435C60.2704 10.8216 59.7713 10.5915 59.1571 10.5915C58.5045 10.5915 57.967 10.8216 57.6215 11.2435C57.2376 11.6653 57.0841 12.2406 57.0841 13.0075V19.4503H57.0457Z" fill="white"/>
<path d="M68.6009 1.38672C69.2151 1.38672 69.6758 1.57847 69.9829 1.92361C70.29 2.26876 70.4436 2.72896 70.4436 3.2275C70.4436 3.7644 70.29 4.18624 69.9829 4.56974C69.6758 4.95324 69.2151 5.14499 68.6009 5.14499C68.0251 5.14499 67.5644 4.95324 67.2957 4.56974C67.0269 4.18624 66.8734 3.72605 66.8734 3.2275C66.8734 2.69061 67.0269 2.26876 67.2957 1.92361C67.5644 1.57847 67.9867 1.38672 68.6009 1.38672ZM70.1749 8.05956V28.9985H67.1421V8.05956H70.1749Z" fill="white"/>
<path d="M73.553 10.1313C74.0521 9.40268 74.7431 8.82743 75.626 8.40559C76.509 7.98374 77.4303 7.79199 78.4284 7.79199C80.0792 7.79199 81.346 8.32889 82.1522 9.40268C82.9583 10.4765 83.3806 11.8187 83.3806 13.5061V28.9994H81.4612L80.9237 27.8489C80.3863 28.2707 79.8104 28.6159 79.1578 28.8843C78.5052 29.1527 77.8142 29.2678 77.0848 29.2678C76.509 29.2678 75.9715 29.1528 75.4341 28.961C74.8966 28.7693 74.436 28.4625 74.0137 28.0406C73.5914 27.6188 73.2843 27.0819 73.054 26.3916C72.8236 25.7013 72.7085 24.8576 72.7085 23.8605C72.7085 23.0935 72.7853 22.3649 72.9388 21.7513C73.0924 21.0993 73.3611 20.5241 73.7066 19.9488C74.0521 19.3736 74.5128 18.8367 75.0502 18.2614C75.5876 17.7246 76.2403 17.1493 77.008 16.5741C77.5071 16.1906 78.0445 15.8071 78.6588 15.4236C79.2346 15.0401 79.8872 14.6182 80.5398 14.1964V13.5444C80.5398 12.6624 80.3479 11.9721 79.9256 11.4352C79.5033 10.8983 78.8891 10.6299 78.0445 10.6299C77.4687 10.6299 76.9313 10.7833 76.4322 11.0517C75.9715 11.3202 75.5493 11.742 75.2805 12.2406L73.553 10.1313ZM77.9678 26.3916C78.4284 26.3916 78.8891 26.2765 79.3114 26.0848C79.7337 25.893 80.1175 25.5862 80.5014 25.2027V17.1493C80.0792 17.4178 79.7337 17.6479 79.3882 17.8396C79.081 18.0697 78.7739 18.2614 78.4668 18.4915C77.3919 19.3352 76.6625 20.1406 76.2786 20.9076C75.8948 21.6746 75.7028 22.5183 75.7028 23.362C75.7028 24.4357 75.8948 25.2027 76.317 25.6629C76.7393 26.1231 77.3152 26.3916 77.9678 26.3916Z" fill="white"/>
<path d="M89.945 7.29297C91.2118 7.29297 92.2483 7.67647 93.0161 8.40511C93.7838 9.13375 94.1677 10.3609 94.1677 12.01C94.1677 12.777 94.091 13.4289 93.899 13.9658C93.7455 14.5027 93.4767 15.0396 93.1696 15.6148C92.9393 15.9983 92.6706 16.4585 92.3251 16.9187C91.9796 17.4173 91.6725 17.8775 91.2886 18.4144C90.9431 18.9129 90.5976 19.4115 90.2521 19.91C89.9066 20.4086 89.5995 20.8687 89.3307 21.2906C89.1388 21.6357 88.9852 21.9042 88.8317 22.1726C88.7165 22.4411 88.6014 22.7095 88.5246 22.9396C88.4478 23.2081 88.4094 23.4765 88.371 23.745C88.3326 24.0518 88.3326 24.3969 88.3326 24.7804V26.5445H94.1293V28.9989H85.8374V24.7804C85.8374 24.0901 85.9141 23.3998 86.0677 22.7095C86.2212 22.0192 86.49 21.3289 86.9122 20.5619C87.1426 20.1785 87.4497 19.7183 87.7952 19.2197C88.1407 18.7212 88.4862 18.2226 88.8701 17.7241C89.2156 17.2255 89.5995 16.727 89.945 16.2284C90.2905 15.7299 90.5976 15.2697 90.8279 14.8862C91.135 14.3493 91.3653 13.8508 91.4805 13.3522C91.5957 12.892 91.6725 12.3935 91.6725 11.8949C91.6725 11.0896 91.5189 10.5143 91.2118 10.1692C90.9047 9.82405 90.444 9.67065 89.8682 9.67065C89.254 9.67065 88.7933 9.82405 88.4862 10.1308C88.1407 10.4376 87.9871 10.8978 87.9871 11.5114V12.1634H85.6838V11.4731C85.6838 10.1692 86.0677 9.13375 86.7971 8.36676C87.5265 7.67647 88.6014 7.29297 89.945 7.29297Z" fill="#FA9401"/>
<path d="M104.686 25.0875C104.686 25.7778 104.571 26.353 104.341 26.8899C104.111 27.4268 103.804 27.8486 103.42 28.2321C103.036 28.6156 102.537 28.8841 101.999 29.0758C101.462 29.2676 100.886 29.3443 100.31 29.3443C99.6959 29.3443 99.1201 29.2676 98.5826 29.0758C98.0452 28.8841 97.5845 28.6156 97.2006 28.2321C96.8167 27.8486 96.5096 27.4268 96.2793 26.8899C96.0489 26.353 95.9338 25.7778 95.9338 25.0875V11.55C95.9338 10.8598 96.0489 10.2845 96.2793 9.74761C96.5096 9.21072 96.8167 8.78887 97.2006 8.40537C97.5845 8.06023 98.0452 7.75343 98.5826 7.56168C99.1201 7.36993 99.6959 7.25488 100.31 7.25488C100.924 7.25488 101.462 7.36993 101.999 7.56168C102.537 7.75343 102.997 8.06023 103.42 8.40537C103.804 8.75052 104.149 9.21072 104.341 9.74761C104.571 10.2845 104.686 10.8598 104.686 11.55V25.0875ZM98.3907 25.0491C98.3907 25.6627 98.5826 26.1229 98.9281 26.4681C99.2736 26.7749 99.7343 26.9283 100.31 26.9283C100.886 26.9283 101.347 26.7749 101.692 26.4681C102.038 26.1613 102.23 25.7011 102.23 25.0491V11.5884C102.23 10.9748 102.038 10.5146 101.692 10.1695C101.347 9.86266 100.886 9.70926 100.31 9.70926C99.7343 9.70926 99.2736 9.86266 98.9281 10.1695C98.5826 10.4763 98.3907 10.9365 98.3907 11.5884V25.0491Z" fill="#FA9401"/>
<path d="M115.704 25.0875C115.704 25.7778 115.589 26.353 115.358 26.8899C115.128 27.4268 114.821 27.8486 114.437 28.2321C114.053 28.6156 113.554 28.8841 113.017 29.0758C112.479 29.2676 111.903 29.3443 111.328 29.3443C110.713 29.3443 110.138 29.2676 109.6 29.0758C109.063 28.8841 108.602 28.6156 108.218 28.2321C107.834 27.8486 107.527 27.4268 107.297 26.8899C107.066 26.353 106.951 25.7778 106.951 25.0875V11.55C106.951 10.8598 107.066 10.2845 107.297 9.74761C107.527 9.21072 107.834 8.78887 108.218 8.40537C108.602 8.06023 109.063 7.75343 109.6 7.56168C110.138 7.36993 110.713 7.25488 111.328 7.25488C111.942 7.25488 112.479 7.36993 113.017 7.56168C113.554 7.75343 114.015 8.06023 114.437 8.40537C114.821 8.75052 115.167 9.21072 115.358 9.74761C115.589 10.2845 115.704 10.8598 115.704 11.55V25.0875ZM109.408 25.0491C109.408 25.6627 109.6 26.1229 109.946 26.4681C110.291 26.7749 110.752 26.9283 111.328 26.9283C111.903 26.9283 112.364 26.7749 112.71 26.4681C113.055 26.1613 113.247 25.7011 113.247 25.0491V11.5884C113.247 10.9748 113.055 10.5146 112.71 10.1695C112.364 9.86266 111.903 9.70926 111.328 9.70926C110.752 9.70926 110.291 9.86266 109.946 10.1695C109.6 10.4763 109.408 10.9365 109.408 11.5884V25.0491Z" fill="#FA9401"/>
<path d="M118.276 9.43987C118.737 9.43987 119.044 9.28647 119.236 8.97967C119.428 8.67287 119.505 8.21268 119.505 7.67578H122V28.9982H119.505V11.5491H117.201V9.43987H118.276Z" fill="#FA9401"/>
<path d="M37.9667 36.8982C37.7364 37.0133 37.2373 37.1667 36.5463 37.1667C35.1259 37.1667 34.2046 36.2079 34.2046 34.904C34.2046 33.5235 35.2027 32.5264 36.6999 32.5264C37.2373 32.5264 37.698 32.6798 37.9283 32.7948L37.7364 33.4084C37.5828 33.3317 37.2373 33.2167 36.7382 33.2167C35.6634 33.2167 35.0491 33.9453 35.0491 34.8657C35.0491 35.9011 35.7785 36.5147 36.6999 36.5147C37.1989 36.5147 37.5444 36.3613 37.8131 36.2846L37.9667 36.8982Z" fill="white"/>
<path d="M42.2278 36.0166C42.2278 36.4001 42.2278 36.7836 42.3046 37.0904H41.5752L41.4984 36.5152H41.46C41.2297 36.8603 40.6922 37.2055 40.0012 37.2055C39.0415 37.2055 38.5808 36.5152 38.5808 35.9399C38.5808 34.8661 39.5022 34.2526 41.4216 34.2909V34.2142C41.4216 33.9458 41.3448 33.1788 40.3467 33.1788C39.8861 33.1788 39.4254 33.3322 39.0799 33.5623L38.8879 33.0254C39.3102 32.7569 39.8477 32.6035 40.4619 32.6035C41.9207 32.6035 42.2278 33.639 42.2278 34.4826V36.0166ZM41.46 34.8278C40.4619 34.7894 39.4254 34.9812 39.4254 35.7865C39.4254 36.2851 39.7709 36.5535 40.2316 36.5535C40.8842 36.5535 41.2681 36.1317 41.4216 35.7865C41.46 35.7098 41.46 35.5948 41.46 35.5181V34.8278Z" fill="white"/>
<path d="M44.5695 31.6064V32.6802H45.798V33.2938H44.5695V35.5948C44.5695 36.1317 44.7231 36.5152 45.2222 36.5152C45.4525 36.5152 45.6061 36.4769 45.7212 36.4385L45.7596 37.0521C45.6061 37.1288 45.3373 37.1672 44.9918 37.1672C44.6079 37.1672 44.3008 37.0138 44.1089 36.7837C43.8785 36.5152 43.8018 36.0934 43.8018 35.6332V33.2555H43.1108V32.6419H43.8018V31.7982L44.5695 31.6064Z" fill="white"/>
<path d="M50.0591 36.0169C50.0591 36.4004 50.0591 36.7839 50.1359 37.0907H49.4065L49.3297 36.5154H49.2913C49.061 36.8606 48.5236 37.2057 47.8326 37.2057C46.8728 37.2057 46.4122 36.5154 46.4122 35.9402C46.4122 34.8664 47.3335 34.2528 49.253 34.2911V34.2144C49.253 33.946 49.1762 33.179 48.1781 33.179C47.7174 33.179 47.2567 33.3324 46.9112 33.5625L46.7193 33.0256C47.1416 32.7571 47.679 32.6037 48.2932 32.6037C49.752 32.6037 50.0591 33.6392 50.0591 34.4829V36.0169ZM49.253 34.828C48.2548 34.7897 47.2183 34.9814 47.2183 35.7868C47.2183 36.2853 47.5638 36.5538 48.0245 36.5538C48.6771 36.5538 49.061 36.1319 49.2146 35.7868C49.2529 35.7101 49.253 35.595 49.253 35.5183V34.828ZM49.5984 30.7246L48.4468 32.0668H47.8709L48.6771 30.7246H49.5984Z" fill="white"/>
<path d="M51.4029 30.5713H52.2091V37.0907H51.4029V30.5713Z" fill="white"/>
<path d="M55.5488 37.2057C54.2436 37.2057 53.2455 36.2853 53.2455 34.9431C53.2455 33.4858 54.282 32.5654 55.5872 32.5654C56.9692 32.5654 57.8905 33.5242 57.8905 34.8281C57.9289 36.4387 56.7005 37.2057 55.5488 37.2057ZM55.5872 36.5921C56.3934 36.5921 57.0844 35.9786 57.0844 34.8664C57.0844 34.0994 56.6237 33.179 55.5872 33.179C54.5507 33.179 54.09 34.0227 54.09 34.9048C54.09 35.9402 54.781 36.5921 55.5872 36.5921Z" fill="white"/>
<path d="M62.9963 36.3997C62.9963 37.3584 62.766 38.0487 62.3053 38.4706C61.8447 38.8924 61.1537 39.0075 60.6162 39.0075C60.0404 39.0075 59.4262 38.8541 59.0423 38.5856L59.2342 37.9337C59.5413 38.1254 60.0404 38.3172 60.6546 38.3172C61.5376 38.3172 62.1902 37.857 62.1902 36.7065V36.2079C61.9215 36.6298 61.4224 37.0133 60.6546 37.0133C59.4646 37.0133 58.6584 36.0545 58.6584 34.8657C58.6584 33.4084 59.6949 32.5264 60.7698 32.5264C61.6143 32.5264 62.075 32.9482 62.3053 33.3701L62.3437 32.6414H63.0731C63.0347 32.9482 63.0347 33.2934 63.0347 33.7919V36.3997H62.9963ZM62.1902 34.4822C62.1902 34.3288 62.1902 34.2138 62.1518 34.0987C61.9982 33.5618 61.5376 33.1783 60.885 33.1783C60.0788 33.1783 59.4262 33.8303 59.4262 34.8657C59.4262 35.6327 59.8868 36.438 60.8466 36.438C61.4224 36.438 61.9215 36.0545 62.075 35.556C62.1134 35.4409 62.1518 35.2492 62.1518 35.1341V34.4822H62.1902Z" fill="white"/>
<path d="M66.336 37.2057C65.0308 37.2057 64.0327 36.2853 64.0327 34.9431C64.0327 33.4858 65.0692 32.5654 66.3744 32.5654C67.7564 32.5654 68.6777 33.5242 68.6777 34.8281C68.7161 36.4387 67.4877 37.2057 66.336 37.2057ZM66.3744 36.5921C67.1806 36.5921 67.8716 35.9786 67.8716 34.8664C67.8716 34.0994 67.4109 33.179 66.3744 33.179C65.3379 33.179 64.8772 34.0227 64.8772 34.9048C64.8772 35.9402 65.5682 36.5921 66.3744 36.5921Z" fill="white"/>
<path d="M69.6759 36.2467C69.9447 36.4001 70.4053 36.5919 70.8276 36.5919C71.4418 36.5919 71.7106 36.2851 71.7106 35.9399C71.7106 35.5564 71.4418 35.3647 70.8276 35.1729C69.983 34.9045 69.5992 34.4443 69.5992 33.9074C69.5992 33.1788 70.175 32.6035 71.1731 32.6035C71.6338 32.6035 72.0561 32.7186 72.3248 32.9103L72.1328 33.5239C71.9793 33.4089 71.5954 33.2555 71.1347 33.2555C70.6357 33.2555 70.3669 33.5239 70.3669 33.8691C70.3669 34.2525 70.674 34.4059 71.2883 34.5977C72.1328 34.8661 72.4783 35.2496 72.4783 35.9016C72.4783 36.6302 71.9025 37.2438 70.7508 37.2438C70.2518 37.2438 69.7527 37.0904 69.4456 36.8987L69.6759 36.2467Z" fill="white"/>
<path d="M76.0485 31.9136C75.7413 31.9136 75.5494 31.6835 75.5494 31.4151C75.5494 31.1466 75.7413 30.9165 76.0485 30.9165C76.3556 30.9165 76.5475 31.1466 76.5475 31.4151C76.5859 31.6835 76.394 31.9136 76.0485 31.9136ZM75.6646 37.0908V32.6806H76.4707V37.0908H75.6646Z" fill="white"/>
<path d="M77.8912 33.9077C77.8912 33.4475 77.8912 33.064 77.8528 32.6805H78.5822L78.6206 33.4475H78.6589C78.8893 33.0256 79.4267 32.5654 80.2329 32.5654C80.8087 32.5654 81.8836 32.9106 81.8836 34.5596V37.0907H81.0775V34.6363C81.0775 33.8693 80.7703 33.2557 79.9642 33.2557C79.3883 33.2557 78.9277 33.6776 78.7741 34.0994C78.7357 34.2145 78.6973 34.3295 78.6973 34.4829V37.0907H77.8912V33.9077Z" fill="white"/>
<path d="M84.2252 31.6064V32.6802H85.4537V33.2938H84.2252V35.5948C84.2252 36.1317 84.3788 36.5152 84.8779 36.5152C85.1082 36.5152 85.2617 36.4769 85.3769 36.4385L85.4153 37.0521C85.2617 37.1288 84.993 37.1672 84.6475 37.1672C84.2636 37.1672 83.9565 37.0138 83.7646 36.7837C83.5342 36.5152 83.4575 36.0934 83.4575 35.6332V33.2555H82.7665V32.6419H83.4575V31.7982L84.2252 31.6064Z" fill="white"/>
<path d="M86.7974 35.0582C86.7974 36.0552 87.5268 36.5538 88.4098 36.5538C89.0624 36.5538 89.4463 36.4387 89.7534 36.3237L89.9069 36.8989C89.6382 37.014 89.1007 37.2057 88.2946 37.2057C86.8742 37.2057 85.9913 36.2853 85.9913 34.9815C85.9913 33.6776 86.8358 32.5654 88.2178 32.5654C89.7918 32.5654 90.1756 33.946 90.1756 34.6747C90.1756 34.8281 90.1756 34.9431 90.1373 35.0582H86.7974ZM89.4079 34.4829C89.4079 34.0994 89.2543 33.179 88.1794 33.179C87.2581 33.179 86.8742 33.946 86.7974 34.4829H89.4079Z" fill="white"/>
<path d="M91.2121 30.5713H92.0182V37.0907H91.2121V30.5713Z" fill="white"/>
<path d="M93.8226 31.9136C93.5155 31.9136 93.3236 31.6835 93.3236 31.4151C93.3236 31.1466 93.5155 30.9165 93.8226 30.9165C94.1297 30.9165 94.3217 31.1466 94.3217 31.4151C94.3601 31.6835 94.1681 31.9136 93.8226 31.9136ZM93.4387 37.0908V32.6806H94.2449V37.0908H93.4387Z" fill="white"/>
<path d="M99.696 36.3997C99.696 37.3584 99.4657 38.0487 99.005 38.4706C98.5443 38.8924 97.8533 39.0075 97.3159 39.0075C96.74 39.0075 96.1258 38.8541 95.7419 38.5856L95.9339 37.9337C96.241 38.1254 96.74 38.3172 97.3543 38.3172C98.2372 38.3172 98.8898 37.857 98.8898 36.7065V36.2079C98.6211 36.6298 98.1221 37.0133 97.3543 37.0133C96.2026 37.0133 95.358 36.0545 95.358 34.8657C95.358 33.4084 96.3945 32.5264 97.4694 32.5264C98.314 32.5264 98.7747 32.9482 99.005 33.3701L99.0434 32.6414H99.7728C99.7344 32.9482 99.7344 33.2934 99.7344 33.7919V36.3997H99.696ZM98.8898 34.4822C98.8898 34.3288 98.8898 34.2138 98.8514 34.0987C98.6979 33.5618 98.2372 33.1783 97.5846 33.1783C96.74 33.1783 96.1258 33.8303 96.1258 34.8657C96.1258 35.6327 96.5865 36.438 97.5462 36.438C98.1221 36.438 98.6211 36.0545 98.7747 35.556C98.813 35.4409 98.8514 35.2492 98.8514 35.1341V34.4822H98.8898Z" fill="white"/>
<path d="M101.5 35.0582C101.5 36.0552 102.23 36.5538 103.113 36.5538C103.765 36.5538 104.149 36.4387 104.456 36.3237L104.61 36.8989C104.341 37.014 103.804 37.2057 102.997 37.2057C101.577 37.2057 100.694 36.2853 100.694 34.9815C100.694 33.6776 101.5 32.5654 102.921 32.5654C104.495 32.5654 104.879 33.946 104.879 34.6747C104.879 34.8281 104.879 34.9431 104.84 35.0582H101.5ZM104.111 34.4829C104.111 34.0994 103.957 33.179 102.882 33.179C101.961 33.179 101.577 33.946 101.5 34.4829H104.111Z" fill="white"/>
<path d="M105.954 33.9077C105.954 33.4475 105.954 33.064 105.915 32.6805H106.645L106.683 33.4475H106.721C106.952 33.0256 107.489 32.5654 108.295 32.5654C108.871 32.5654 109.946 32.9106 109.946 34.5596V37.0907H109.14V34.6363C109.14 33.8693 108.833 33.2557 108.027 33.2557C107.451 33.2557 106.99 33.6776 106.836 34.0994C106.798 34.2145 106.76 34.3295 106.76 34.4829V37.0907H105.954V33.9077Z" fill="white"/>
<path d="M112.288 31.6064V32.6802H113.516V33.2938H112.288V35.5948C112.288 36.1317 112.441 36.5152 112.94 36.5152C113.171 36.5152 113.324 36.4769 113.439 36.4385L113.478 37.0521C113.324 37.1288 113.055 37.1672 112.71 37.1672C112.326 37.1672 112.019 37.0138 111.827 36.7837C111.597 36.5152 111.52 36.0934 111.52 35.6332V33.2555H110.829V32.6419H111.52V31.7982L112.288 31.6064Z" fill="white"/>
<path d="M114.86 35.0582C114.86 36.0552 115.589 36.5538 116.472 36.5538C117.125 36.5538 117.509 36.4387 117.816 36.3237L117.969 36.8989C117.701 37.014 117.163 37.2057 116.357 37.2057C114.937 37.2057 114.054 36.2853 114.054 34.9815C114.054 33.6776 114.86 32.5654 116.28 32.5654C117.854 32.5654 118.238 33.946 118.238 34.6747C118.238 34.8281 118.238 34.9431 118.2 35.0582H114.86ZM117.47 34.4829C117.47 34.0994 117.317 33.179 116.242 33.179C115.32 33.179 114.937 33.946 114.86 34.4829H117.47Z" fill="white"/>
<path d="M119.198 36.2467C119.466 36.4001 119.927 36.5919 120.349 36.5919C120.964 36.5919 121.232 36.2851 121.232 35.9399C121.232 35.5564 120.964 35.3647 120.349 35.1729C119.505 34.9045 119.121 34.4443 119.121 33.9074C119.121 33.1788 119.697 32.6035 120.695 32.6035C121.155 32.6035 121.578 32.7186 121.846 32.9103L121.655 33.5239C121.501 33.4089 121.117 33.2555 120.656 33.2555C120.157 33.2555 119.889 33.5239 119.889 33.8691C119.889 34.2525 120.196 34.4059 120.81 34.5977C121.655 34.8661 122 35.2496 122 35.9016C122 36.6302 121.424 37.2438 120.273 37.2438C119.773 37.2438 119.274 37.0904 118.967 36.8987L119.198 36.2467Z" fill="white"/>
<path d="M29.1372 15.6911C28.6381 13.8503 28.4078 12.8915 28.1007 11.3959C27.7936 11.4342 25.0296 9.67016 25.3751 6.71724C23.9931 5.5284 23.3405 4.83811 21.9585 3.53422C21.8049 3.84101 20.4613 4.33956 19.1945 3.84101C17.9276 3.34247 16.8527 2.46043 16.584 1.15654C14.3575 1.04149 13.3977 0.96479 11.2863 1.00314C11.5551 1.69343 11.5167 2.11528 11.3247 2.72887C11.1328 3.38082 10.4418 4.03276 9.75078 4.33956C7.94651 5.10655 5.71995 3.99441 5.25928 3.64927C3.91567 5.2983 2.68722 6.75559 1.34361 8.67307C2.53367 9.24832 3.14789 11.2808 3.14789 12.393C3.14789 14.0804 1.88106 16.1513 0 16.3047C0.729389 19.2576 1.15167 20.3314 2.11139 23.476C6.48773 23.361 7.83134 26.9275 7.29389 29.2668C9.17495 30.0338 10.9408 30.9542 12.7067 31.6445V27.5411C7.48584 25.3935 4.10761 19.1425 4.95217 13.3134C5.45123 9.90026 7.37067 6.98569 10.1731 5.41335C12.7835 3.91771 15.8162 3.72597 18.8106 4.83811C18.9641 4.87646 19.1177 4.95315 19.2328 4.9915C24.2618 7.06239 27.4865 12.4697 26.9106 18.0687C26.5267 21.7887 24.6073 24.8566 21.3442 26.6974L20.7684 30.9159C21.8433 30.4557 22.8414 29.8804 23.7627 29.1518C23.3405 27.6562 25.8357 24.7032 27.2561 25.01C27.8704 23.2843 28.1775 22.4789 28.7917 20.8683C27.5632 20.7532 27.6784 15.8828 29.1372 15.6911Z" fill="white"/>
<path d="M21.1907 32.9097L12.5531 34.2519L12.6299 36.7446L14.8949 36.9364C14.9716 38.0485 15.893 38.9306 16.9679 38.9306C18.0428 38.9306 18.9257 38.0485 19.0409 36.9364L21.3058 36.7446L21.1907 32.9097Z" fill="white"/>
<path d="M21.3827 26.7362C23.4173 25.3173 24.7993 23.1697 25.4135 20.8304C26.0278 18.4911 26.1045 15.5765 25.26 13.3906C24.4538 11.2046 23.3021 9.36384 21.4979 8.05995C19.6936 6.75606 17.5822 6.06577 15.2021 6.25751C13.0907 6.41091 10.6338 7.52305 9.17501 9.09539C7.71623 10.6677 6.83329 12.8537 6.71812 15.1163C6.56457 17.3789 7.17879 19.7182 8.33046 21.7124C9.44374 23.7066 11.1712 25.394 13.2059 26.3527L13.7049 26.5828L13.6665 27.0814C13.5897 28.7304 13.5513 30.3794 13.4362 32.0285C13.4362 32.0285 15.586 31.9518 16.6609 31.9518C17.9277 31.9134 19.1945 31.9134 20.4614 31.9134C19.1945 32.1435 17.9661 32.3353 16.6992 32.5654C15.4324 32.7571 14.1656 32.9489 12.9371 33.1406L12.3997 33.2173L12.3613 32.6037C12.2461 30.9547 12.131 27.6566 12.131 27.6566C12.131 27.6566 12.0926 27.6566 12.0542 27.6183C7.40912 25.5857 4.22284 20.4469 4.3764 14.9629C4.45317 12.1634 5.52806 9.32549 7.40912 7.25461C9.29018 5.22207 11.9774 3.99488 14.6646 3.91819C16.0082 3.87984 17.3519 4.10993 18.5803 4.57013C19.8087 5.03033 20.9988 5.68227 22.0737 6.48761C24.1851 8.13665 25.759 10.5143 26.5268 13.0838C27.2946 15.6915 27.2178 18.5294 26.2965 21.0221C25.4135 23.5916 23.6092 25.7008 21.3827 26.7362Z" fill="#FA9401"/>
</svg>
