<svg width="241" height="75" viewBox="0 0 241 75" fill="none" xmlns="http://www.w3.org/2000/svg">
<path d="M70.8526 0.776367C72.0635 0.776367 72.9717 1.15467 73.5771 1.83563C74.1826 2.51658 74.4096 3.34885 74.4096 4.40811C74.4096 5.46737 74.1069 6.29964 73.5015 7.05625C72.896 7.81287 71.9878 8.19117 70.7769 8.19117C69.6417 8.19117 68.7335 7.81287 68.2037 7.05625C67.6739 6.29964 67.3712 5.39171 67.3712 4.40811C67.3712 3.34885 67.6739 2.51658 68.2037 1.83563C68.8092 1.15467 69.7174 0.776367 70.8526 0.776367ZM73.9556 13.9414V55.2525H67.9767V13.9414H73.9556Z" fill="white"/>
<path d="M100.974 0.170898V55.2523H96.8872L95.9033 52.6798C94.8438 53.6634 93.7086 54.42 92.422 54.9497C91.1354 55.4793 89.7731 55.7819 88.4108 55.7819C87.2756 55.7819 86.2161 55.555 85.1565 55.1767C84.097 54.7983 83.1888 54.1174 82.432 53.2851C81.6751 52.4528 81.0697 51.3936 80.5399 50.183C80.0858 48.9724 79.8588 47.4592 79.8588 45.7946V23.3989C79.8588 21.7344 80.0858 20.2968 80.5399 19.0106C80.994 17.7243 81.5995 16.6651 82.432 15.8328C83.1888 15.0005 84.097 14.3952 85.1565 13.9413C86.2161 13.5629 87.2756 13.336 88.4108 13.336C89.5461 13.336 90.757 13.5629 91.8922 13.9413C93.0274 14.3196 94.087 14.9248 95.0708 15.6815V1.68412L100.974 0.170898ZM85.8376 44.5084C85.8376 46.2486 86.1404 47.5349 86.8215 48.4428C87.5026 49.3507 88.5622 49.8047 90.0002 49.8047C91.8165 49.8047 93.4815 49.0481 94.9195 47.4592V21.7344C93.4058 20.1455 91.8165 19.3889 90.0002 19.3889C88.4865 19.3889 87.427 19.8428 86.8215 20.7508C86.1404 21.6587 85.8376 23.0206 85.8376 24.6852V44.5084Z" fill="white"/>
<path d="M120.424 36.7153C119.516 37.5476 118.381 38.3798 117.094 39.2878C115.808 40.1957 114.37 41.1793 112.705 42.2386V45.5677C112.705 47.0052 113.083 48.0645 113.916 48.8211C114.748 49.5777 115.732 49.956 117.019 49.956C118.305 49.956 119.365 49.5777 120.197 48.8211C121.03 48.0645 121.408 47.0052 121.408 45.5677V42.9195L126.857 41.482V45.719C126.857 47.3079 126.63 48.6698 126.1 49.8804C125.571 51.0909 124.889 52.1502 123.906 53.0581C122.997 53.9661 121.938 54.5714 120.727 55.0253C119.516 55.4793 118.229 55.7063 116.792 55.7063C115.354 55.7063 114.067 55.4793 112.932 55.0253C111.721 54.5714 110.661 53.8904 109.753 53.0581C108.845 52.1502 108.164 51.1666 107.634 49.8804C107.104 48.6698 106.877 47.2322 106.877 45.719V23.3989C106.877 21.8857 107.104 20.4481 107.634 19.2375C108.164 18.027 108.845 16.9677 109.753 16.0598C110.661 15.1518 111.721 14.5465 112.932 14.0926C114.143 13.6386 115.429 13.4116 116.867 13.4116C118.078 13.4116 119.289 13.5629 120.5 13.9412C121.711 14.3196 122.77 14.9248 123.754 15.7571C124.662 16.5894 125.495 17.7243 126.1 19.0862C126.706 20.4481 127.009 22.1883 127.009 24.2312C127.009 26.8037 126.479 29.0735 125.419 30.965C124.36 32.9322 122.695 34.8238 120.424 36.7153ZM112.705 36.4126C114.748 35.1264 116.262 33.9158 117.397 32.9322C118.759 31.646 119.819 30.3597 120.349 29.0735C120.954 27.7873 121.257 26.3497 121.257 24.6851C121.257 22.491 120.803 21.0534 119.97 20.2211C119.062 19.3889 118.078 18.9349 116.867 18.9349C115.581 18.9349 114.521 19.3889 113.84 20.2211C113.083 21.0534 112.78 22.1883 112.78 23.7016V36.4126H112.705Z" fill="white"/>
<path d="M135.485 0.776367C136.696 0.776367 137.604 1.15467 138.21 1.83563C138.815 2.51658 139.118 3.42451 139.118 4.40811C139.118 5.46737 138.815 6.29964 138.21 7.05625C137.604 7.81287 136.696 8.19117 135.485 8.19117C134.35 8.19117 133.442 7.81287 132.912 7.05625C132.382 6.29964 132.079 5.39171 132.079 4.40811C132.079 3.34885 132.382 2.51658 132.912 1.83563C133.442 1.15467 134.274 0.776367 135.485 0.776367ZM138.588 13.9414V55.2525H132.609V13.9414H138.588Z" fill="white"/>
<path d="M145.248 18.027C146.232 16.5894 147.594 15.4545 149.335 14.6222C151.075 13.7899 152.892 13.4116 154.86 13.4116C158.114 13.4116 160.611 14.4709 162.201 16.5894C163.79 18.7079 164.622 21.3561 164.622 24.6851V55.2523H160.838L159.779 52.9825C158.719 53.8147 157.584 54.4957 156.297 55.0253C155.011 55.5549 153.649 55.7819 152.211 55.7819C151.075 55.7819 150.016 55.555 148.956 55.1766C147.897 54.7983 146.989 54.193 146.156 53.3608C145.324 52.5285 144.718 51.4692 144.264 50.1073C143.81 48.7454 143.583 47.0809 143.583 45.1137C143.583 43.6005 143.734 42.1629 144.037 40.9523C144.34 39.6661 144.869 38.5312 145.551 37.3962C146.232 36.2613 147.14 35.2021 148.199 34.0671C149.259 33.0079 150.546 31.873 152.059 30.7381C153.043 29.9814 154.103 29.2248 155.314 28.4682C156.449 27.7116 157.735 26.8793 159.022 26.0471V24.7608C159.022 23.0206 158.644 21.6587 157.811 20.5994C156.979 19.5402 155.768 19.0106 154.103 19.0106C152.967 19.0106 151.908 19.3132 150.924 19.8428C150.016 20.3725 149.183 21.2047 148.654 22.1883L145.248 18.027ZM153.951 50.1073C154.86 50.1073 155.768 49.8804 156.6 49.502C157.433 49.1237 158.19 48.5184 158.946 47.7618V31.873C158.114 32.4026 157.433 32.8566 156.752 33.2349C156.146 33.6888 155.541 34.0671 154.935 34.5211C152.816 36.1857 151.378 37.7746 150.621 39.2878C149.864 40.801 149.486 42.4655 149.486 44.1301C149.486 46.2486 149.864 47.7618 150.697 48.6698C151.529 49.5777 152.665 50.1073 153.951 50.1073Z" fill="white"/>
<path d="M177.564 12.4282C180.062 12.4282 182.105 13.1848 183.619 14.6224C185.132 16.06 185.889 18.4811 185.889 21.7346C185.889 23.2478 185.738 24.534 185.359 25.5933C185.057 26.6525 184.527 27.7118 183.921 28.8467C183.467 29.6033 182.938 30.5113 182.256 31.4192C181.575 32.4028 180.97 33.3107 180.213 34.37C179.532 35.3536 178.851 36.3372 178.17 37.3208C177.488 38.3044 176.883 39.2123 176.353 40.0446C175.975 40.7255 175.672 41.2552 175.369 41.7848C175.142 42.3144 174.915 42.8441 174.764 43.298C174.613 43.8277 174.537 44.3573 174.461 44.8869C174.385 45.4922 174.386 46.1732 174.386 46.9298V50.4102H185.813V55.2525H169.466V46.9298C169.466 45.5679 169.618 44.206 169.92 42.8441C170.223 41.4822 170.753 40.1202 171.585 38.607C172.039 37.8504 172.645 36.9425 173.326 35.9589C174.007 34.9753 174.688 33.9917 175.445 33.0081C176.126 32.0245 176.883 31.0409 177.564 30.0573C178.245 29.0737 178.851 28.1658 179.305 27.4092C179.91 26.3499 180.364 25.3663 180.591 24.3827C180.818 23.4748 180.97 22.4912 180.97 21.5076C180.97 19.9187 180.667 18.7838 180.062 18.1028C179.456 17.4219 178.548 17.1192 177.413 17.1192C176.202 17.1192 175.294 17.4219 174.688 18.0272C174.007 18.6324 173.704 19.5404 173.704 20.751V22.0372H169.163V20.6753C169.163 18.1028 169.92 16.06 171.358 14.5467C172.796 13.1848 174.915 12.4282 177.564 12.4282Z" fill="#FA9401"/>
<path d="M206.626 47.535C206.626 48.8969 206.399 50.0319 205.945 51.0911C205.491 52.1504 204.885 52.9826 204.128 53.7393C203.372 54.4959 202.388 55.0255 201.328 55.4038C200.269 55.7821 199.133 55.9334 197.998 55.9334C196.787 55.9334 195.652 55.7821 194.593 55.4038C193.533 55.0255 192.625 54.4959 191.868 53.7393C191.111 52.9826 190.506 52.1504 190.052 51.0911C189.598 50.0319 189.37 48.8969 189.37 47.535V20.8266C189.37 19.4647 189.598 18.3298 190.052 17.2705C190.506 16.2113 191.111 15.379 191.868 14.6224C192.625 13.9414 193.533 13.3361 194.593 12.9578C195.652 12.5795 196.787 12.3525 197.998 12.3525C199.209 12.3525 200.269 12.5795 201.328 12.9578C202.388 13.3361 203.296 13.9414 204.128 14.6224C204.885 15.3033 205.566 16.2113 205.945 17.2705C206.399 18.3298 206.626 19.4647 206.626 20.8266V47.535ZM194.214 47.4594C194.214 48.67 194.593 49.5779 195.274 50.2588C195.955 50.8641 196.863 51.1668 197.998 51.1668C199.133 51.1668 200.042 50.8641 200.723 50.2588C201.404 49.6536 201.782 48.7456 201.782 47.4594V20.9023C201.782 19.6917 201.404 18.7837 200.723 18.1028C200.042 17.4975 199.133 17.1949 197.998 17.1949C196.863 17.1949 195.955 17.4975 195.274 18.1028C194.593 18.7081 194.214 19.616 194.214 20.9023V47.4594Z" fill="#FA9401"/>
<path d="M228.347 47.535C228.347 48.8969 228.12 50.0319 227.666 51.0911C227.212 52.1504 226.606 52.9826 225.849 53.7393C225.092 54.4959 224.109 55.0255 223.049 55.4038C221.99 55.7821 220.854 55.9334 219.719 55.9334C218.508 55.9334 217.373 55.7821 216.313 55.4038C215.254 55.0255 214.346 54.4959 213.589 53.7393C212.832 52.9826 212.227 52.1504 211.772 51.0911C211.318 50.0319 211.091 48.8969 211.091 47.535V20.8266C211.091 19.4647 211.318 18.3298 211.772 17.2705C212.227 16.2113 212.832 15.379 213.589 14.6224C214.346 13.9414 215.254 13.3361 216.313 12.9578C217.373 12.5795 218.508 12.3525 219.719 12.3525C220.93 12.3525 221.99 12.5795 223.049 12.9578C224.109 13.3361 225.017 13.9414 225.849 14.6224C226.606 15.3033 227.287 16.2113 227.666 17.2705C228.12 18.3298 228.347 19.4647 228.347 20.8266V47.535ZM215.935 47.4594C215.935 48.67 216.313 49.5779 216.995 50.2588C217.676 50.8641 218.584 51.1668 219.719 51.1668C220.854 51.1668 221.762 50.8641 222.444 50.2588C223.125 49.6536 223.503 48.7456 223.503 47.4594V20.9023C223.503 19.6917 223.125 18.7837 222.444 18.1028C221.762 17.4975 220.854 17.1949 219.719 17.1949C218.584 17.1949 217.676 17.4975 216.995 18.1028C216.313 18.7081 215.935 19.616 215.935 20.9023V47.4594Z" fill="#FA9401"/>
<path d="M233.417 16.665C234.326 16.665 234.931 16.3623 235.309 15.7571C235.688 15.1518 235.839 14.2438 235.839 13.1846H240.759V55.2522H235.839V20.8264H231.298V16.665H233.417Z" fill="#FA9401"/>
<path d="M75.0908 70.8388C74.6367 71.0657 73.6528 71.3684 72.2905 71.3684C69.4903 71.3684 67.674 69.4769 67.674 66.9044C67.674 64.1806 69.6417 62.2134 72.5933 62.2134C73.6528 62.2134 74.561 62.516 75.0151 62.743L74.6367 63.9536C74.334 63.8023 73.6528 63.5753 72.669 63.5753C70.5499 63.5753 69.339 65.0129 69.339 66.8287C69.339 68.8716 70.7769 70.0822 72.5933 70.0822C73.5771 70.0822 74.2583 69.7795 74.7881 69.6282L75.0908 70.8388Z" fill="white"/>
<path d="M83.4916 69.0986C83.4916 69.8552 83.4915 70.6118 83.6429 71.2171H82.205L82.0536 70.0822H81.9779C81.5238 70.7631 80.4643 71.4441 79.102 71.4441C77.2099 71.4441 76.3018 70.0822 76.3018 68.9473C76.3018 66.8288 78.1181 65.6182 81.9022 65.6938V65.5425C81.9022 65.0129 81.7509 63.4997 79.7831 63.4997C78.8749 63.4997 77.9668 63.8023 77.2856 64.2563L76.9072 63.197C77.7397 62.6674 78.7993 62.3647 80.0102 62.3647C82.8861 62.3647 83.4916 64.4076 83.4916 66.0721V69.0986ZM81.9779 66.7531C80.0102 66.6774 77.9668 67.0557 77.9668 68.6446C77.9668 69.6282 78.6479 70.1578 79.5561 70.1578C80.8427 70.1578 81.5995 69.3256 81.9022 68.6446C81.9779 68.4933 81.9779 68.2663 81.9779 68.115V66.7531V66.7531Z" fill="white"/>
<path d="M88.1081 60.3975V62.516H90.5299V63.7266H88.1081V68.2662C88.1081 69.3255 88.4108 70.0821 89.3947 70.0821C89.8488 70.0821 90.1515 70.0064 90.3786 69.9308L90.4542 71.1414C90.1515 71.2927 89.6217 71.3684 88.9406 71.3684C88.1838 71.3684 87.5783 71.0657 87.1999 70.6117C86.7458 70.0821 86.5945 69.2498 86.5945 68.3419V63.6509H85.2322V62.4403H86.5945V60.7758L88.1081 60.3975Z" fill="white"/>
<path d="M98.9306 69.0985C98.9306 69.8551 98.9306 70.6117 99.082 71.217H97.644L97.4927 70.0821H97.417C96.9629 70.763 95.9034 71.444 94.5411 71.444C92.649 71.444 91.7408 70.0821 91.7408 68.9472C91.7408 66.8286 93.5572 65.6181 97.3413 65.6937V65.5424C97.3413 65.0128 97.1899 63.4996 95.2222 63.4996C94.314 63.4996 93.4058 63.8022 92.7247 64.2562L92.3463 63.1969C93.1788 62.6673 94.2384 62.3646 95.4493 62.3646C98.3252 62.3646 98.9306 64.4075 98.9306 66.072V69.0985ZM97.3413 66.753C95.3736 66.6773 93.3302 67.0556 93.3302 68.6445C93.3302 69.6281 94.0113 70.1577 94.9195 70.1577C96.2061 70.1577 96.9629 69.3255 97.2656 68.6445C97.3413 68.4932 97.3413 68.2662 97.3413 68.1149V66.753ZM98.0224 58.6572L95.752 61.3054H94.6168L96.2061 58.6572H98.0224Z" fill="white"/>
<path d="M101.579 58.3545H103.169V71.2169H101.579V58.3545Z" fill="white"/>
<path d="M109.753 71.4441C107.18 71.4441 105.212 69.6282 105.212 66.9801C105.212 64.1049 107.256 62.2891 109.829 62.2891C112.553 62.2891 114.37 64.1806 114.37 66.7531C114.445 69.9309 112.024 71.4441 109.753 71.4441ZM109.829 70.2335C111.418 70.2335 112.78 69.0229 112.78 66.8287C112.78 65.3155 111.872 63.4996 109.829 63.4996C107.785 63.4996 106.877 65.1642 106.877 66.9044C106.877 68.9473 108.24 70.2335 109.829 70.2335Z" fill="white"/>
<path d="M124.435 69.8552C124.435 71.7467 123.981 73.1086 123.073 73.9409C122.165 74.7731 120.803 75.0001 119.743 75.0001C118.608 75.0001 117.397 74.6975 116.64 74.1679L117.019 72.8816C117.624 73.2599 118.608 73.6382 119.819 73.6382C121.56 73.6382 122.846 72.7303 122.846 70.4605V69.4769C122.316 70.3091 121.333 71.0658 119.819 71.0658C117.473 71.0658 115.883 69.1742 115.883 66.8287C115.883 63.9536 117.927 62.2134 120.046 62.2134C121.711 62.2134 122.619 63.0457 123.073 63.8779L123.149 62.4404H124.587C124.511 63.0457 124.511 63.7266 124.511 64.7102V69.8552H124.435ZM122.846 66.0721C122.846 65.7695 122.846 65.5425 122.77 65.3155C122.468 64.2562 121.56 63.4996 120.273 63.4996C118.684 63.4996 117.397 64.7859 117.397 66.8287C117.397 68.3419 118.305 69.9308 120.197 69.9308C121.333 69.9308 122.316 69.1742 122.619 68.1906C122.695 67.9636 122.77 67.5853 122.77 67.3583V66.0721H122.846Z" fill="white"/>
<path d="M131.02 71.4441C128.447 71.4441 126.479 69.6282 126.479 66.9801C126.479 64.1049 128.522 62.2891 131.095 62.2891C133.82 62.2891 135.636 64.1806 135.636 66.7531C135.712 69.9309 133.29 71.4441 131.02 71.4441ZM131.095 70.2335C132.685 70.2335 134.047 69.0229 134.047 66.8287C134.047 65.3155 133.139 63.4996 131.095 63.4996C129.052 63.4996 128.144 65.1642 128.144 66.9044C128.144 68.9473 129.506 70.2335 131.095 70.2335Z" fill="white"/>
<path d="M137.604 69.5526C138.134 69.8552 139.042 70.2335 139.875 70.2335C141.086 70.2335 141.615 69.6282 141.615 68.9473C141.615 68.1907 141.086 67.8124 139.875 67.434C138.21 66.9044 137.453 65.9965 137.453 64.9372C137.453 63.4997 138.588 62.3647 140.556 62.3647C141.464 62.3647 142.296 62.5917 142.826 62.97L142.448 64.1806C142.145 63.9536 141.388 63.651 140.48 63.651C139.496 63.651 138.966 64.1806 138.966 64.8616C138.966 65.6182 139.572 65.9208 140.783 66.2991C142.448 66.8288 143.129 67.5854 143.129 68.8716C143.129 70.3092 141.994 71.5198 139.723 71.5198C138.739 71.5198 137.755 71.2171 137.15 70.8388L137.604 69.5526Z" fill="white"/>
<path d="M150.167 61.0028C149.562 61.0028 149.183 60.5489 149.183 60.0192C149.183 59.4896 149.562 59.0356 150.167 59.0356C150.773 59.0356 151.151 59.4896 151.151 60.0192C151.227 60.5489 150.848 61.0028 150.167 61.0028ZM149.411 71.2171V62.5161H151V71.2171H149.411Z" fill="white"/>
<path d="M153.8 64.9372C153.8 64.0293 153.8 63.2727 153.724 62.516H155.162L155.238 64.0293H155.314C155.768 63.197 156.827 62.2891 158.417 62.2891C159.552 62.2891 161.671 62.97 161.671 66.2234V71.2171H160.082V66.3748C160.082 64.8615 159.476 63.651 157.887 63.651C156.752 63.651 155.843 64.4832 155.541 65.3155C155.465 65.5425 155.389 65.7695 155.389 66.0721V71.2171H153.8V64.9372V64.9372Z" fill="white"/>
<path d="M166.288 60.3975V62.516H168.709V63.7266H166.288V68.2662C166.288 69.3255 166.59 70.0821 167.574 70.0821C168.028 70.0821 168.331 70.0064 168.558 69.9308L168.634 71.1414C168.331 71.2927 167.801 71.3684 167.12 71.3684C166.363 71.3684 165.758 71.0657 165.379 70.6117C164.925 70.0821 164.774 69.2498 164.774 68.3419V63.6509H163.412V62.4403H164.774V60.7758L166.288 60.3975Z" fill="white"/>
<path d="M171.358 67.207C171.358 69.1742 172.796 70.1578 174.537 70.1578C175.823 70.1578 176.58 69.9309 177.186 69.7039L177.488 70.8388C176.959 71.0658 175.899 71.4441 174.31 71.4441C171.51 71.4441 169.769 69.6282 169.769 67.0557C169.769 64.4832 171.434 62.2891 174.158 62.2891C177.261 62.2891 178.018 65.0129 178.018 66.4504C178.018 66.7531 178.018 66.9801 177.943 67.207H171.358V67.207ZM176.505 66.0721C176.505 65.3155 176.202 63.4996 174.083 63.4996C172.266 63.4996 171.51 65.0129 171.358 66.0721H176.505Z" fill="white"/>
<path d="M180.062 58.3545H181.651V71.2169H180.062V58.3545Z" fill="white"/>
<path d="M185.208 61.0028C184.603 61.0028 184.224 60.5489 184.224 60.0192C184.224 59.4896 184.603 59.0356 185.208 59.0356C185.814 59.0356 186.192 59.4896 186.192 60.0192C186.268 60.5489 185.889 61.0028 185.208 61.0028ZM184.451 71.2171V62.5161H186.041V71.2171H184.451Z" fill="white"/>
<path d="M196.787 69.8552C196.787 71.7467 196.333 73.1086 195.425 73.9409C194.517 74.7731 193.155 75.0001 192.095 75.0001C190.96 75.0001 189.749 74.6975 188.992 74.1679L189.371 72.8816C189.976 73.2599 190.96 73.6382 192.171 73.6382C193.912 73.6382 195.198 72.7303 195.198 70.4605V69.4769C194.668 70.3091 193.684 71.0658 192.171 71.0658C189.9 71.0658 188.235 69.1742 188.235 66.8287C188.235 63.9536 190.279 62.2134 192.398 62.2134C194.063 62.2134 194.971 63.0457 195.425 63.8779L195.501 62.4404H196.939C196.863 63.0457 196.863 63.7266 196.863 64.7102V69.8552H196.787ZM195.198 66.0721C195.198 65.7695 195.198 65.5425 195.122 65.3155C194.82 64.2562 193.912 63.4996 192.625 63.4996C190.96 63.4996 189.749 64.7859 189.749 66.8287C189.749 68.3419 190.657 69.9308 192.549 69.9308C193.684 69.9308 194.668 69.1742 194.971 68.1906C195.047 67.9636 195.122 67.5853 195.122 67.3583V66.0721H195.198Z" fill="white"/>
<path d="M200.344 67.207C200.344 69.1742 201.782 70.1578 203.523 70.1578C204.81 70.1578 205.567 69.9309 206.172 69.7039L206.475 70.8388C205.945 71.0658 204.885 71.4441 203.296 71.4441C200.496 71.4441 198.755 69.6282 198.755 67.0557C198.755 64.4832 200.344 62.2891 203.145 62.2891C206.248 62.2891 207.004 65.0129 207.004 66.4504C207.004 66.7531 207.004 66.9801 206.929 67.207H200.344V67.207ZM205.491 66.0721C205.491 65.3155 205.188 63.4996 203.069 63.4996C201.253 63.4996 200.496 65.0129 200.344 66.0721H205.491Z" fill="white"/>
<path d="M209.124 64.9372C209.124 64.0293 209.124 63.2727 209.048 62.516H210.486L210.561 64.0293H210.637C211.091 63.197 212.151 62.2891 213.74 62.2891C214.875 62.2891 216.994 62.97 216.994 66.2234V71.2171H215.405V66.3748C215.405 64.8615 214.8 63.651 213.21 63.651C212.075 63.651 211.167 64.4832 210.864 65.3155C210.789 65.5425 210.713 65.7695 210.713 66.0721V71.2171H209.124V64.9372Z" fill="white"/>
<path d="M221.611 60.3975V62.516H224.033V63.7266H221.611V68.2662C221.611 69.3255 221.914 70.0821 222.898 70.0821C223.352 70.0821 223.654 70.0064 223.882 69.9308L223.957 71.1414C223.654 71.2927 223.125 71.3684 222.444 71.3684C221.687 71.3684 221.081 71.0657 220.703 70.6117C220.249 70.0821 220.097 69.2498 220.097 68.3419V63.6509H218.735V62.4403H220.097V60.7758L221.611 60.3975Z" fill="white"/>
<path d="M226.682 67.207C226.682 69.1742 228.12 70.1578 229.86 70.1578C231.147 70.1578 231.904 69.9309 232.509 69.7039L232.812 70.8388C232.282 71.0658 231.223 71.4441 229.633 71.4441C226.833 71.4441 225.092 69.6282 225.092 67.0557C225.092 64.4832 226.682 62.2891 229.482 62.2891C232.585 62.2891 233.342 65.0129 233.342 66.4504C233.342 66.7531 233.342 66.9801 233.266 67.207H226.682V67.207ZM231.828 66.0721C231.828 65.3155 231.525 63.4996 229.406 63.4996C227.59 63.4996 226.833 65.0129 226.682 66.0721H231.828Z" fill="white"/>
<path d="M235.234 69.5526C235.764 69.8552 236.672 70.2335 237.504 70.2335C238.715 70.2335 239.245 69.6282 239.245 68.9473C239.245 68.1907 238.715 67.8124 237.504 67.434C235.839 66.9044 235.083 65.9965 235.083 64.9372C235.083 63.4997 236.218 62.3647 238.185 62.3647C239.094 62.3647 239.926 62.5917 240.456 62.97L240.078 64.1806C239.775 63.9536 239.018 63.651 238.11 63.651C237.126 63.651 236.596 64.1806 236.596 64.8616C236.596 65.6182 237.202 65.9208 238.413 66.2991C240.078 66.8288 240.759 67.5854 240.759 68.8716C240.759 70.3092 239.623 71.5198 237.353 71.5198C236.369 71.5198 235.385 71.2171 234.78 70.8388L235.234 69.5526Z" fill="white"/>
<path d="M57.6839 28.998C56.7001 25.3662 56.246 23.4747 55.6405 20.5239C55.0351 20.5996 49.586 17.1191 50.2671 11.2932C47.5426 8.94771 46.256 7.58581 43.5314 5.01333C43.2287 5.61862 40.5798 6.60221 38.0823 5.61862C35.5848 4.63502 33.4657 2.89481 32.9359 0.322327C28.5464 0.095343 26.6543 -0.0559795 22.4918 0.0196817C23.0216 1.38158 22.9459 2.21386 22.5675 3.42444C22.1891 4.71068 20.8268 5.99692 19.4645 6.60221C15.9075 8.11544 11.5179 5.92126 10.6098 5.24031C7.96089 8.49375 5.53907 11.3689 2.8902 15.1519C5.23634 16.2869 6.44725 20.2969 6.44725 22.4911C6.44725 25.8202 3.94975 29.9059 0.241333 30.2085C1.67929 36.0345 2.51179 38.153 4.40384 44.3572C13.0316 44.1302 15.6805 51.1667 14.6209 55.782C18.3293 57.2953 21.8107 59.1111 25.2921 60.4731V52.3773C14.9993 48.1403 8.3393 35.8075 10.0043 24.307C10.9882 17.5731 14.7723 11.8228 20.2971 8.72073C25.4434 5.76994 31.4223 5.39163 37.3255 7.58581C37.6282 7.66147 37.9309 7.81279 38.158 7.88846C48.0723 11.9742 54.4296 22.6424 53.2944 33.689C52.5376 41.0281 48.7535 47.081 42.3205 50.7127L41.1853 59.0355C43.3044 58.1276 45.2721 56.9926 47.0885 55.5551C46.256 52.6043 51.1753 46.7784 53.9755 47.3836C55.1864 43.9789 55.7919 42.39 57.0028 39.2122C54.581 38.9852 54.808 29.3763 57.6839 28.998Z" fill="white"/>
<path d="M42.0178 62.9697L24.9894 65.6179L25.1407 70.5359L29.606 70.9142C29.7573 73.1083 31.5737 74.8485 33.6928 74.8485C35.8119 74.8485 37.5526 73.1083 37.7796 70.9142L42.2449 70.5359L42.0178 62.9697Z" fill="white"/>
<path d="M42.3962 50.7883C46.4074 47.9888 49.1319 43.7518 50.3428 39.1365C51.5538 34.5211 51.7051 28.7709 50.0401 24.4582C48.4508 20.1455 46.1803 16.5138 42.6233 13.9413C39.0662 11.3688 34.9037 10.0069 30.2114 10.3852C26.0489 10.6878 21.2053 12.882 18.3294 15.9841C15.4535 19.0862 13.7128 23.3989 13.4857 27.8629C13.183 32.327 14.3939 36.9423 16.6644 40.8767C18.8591 44.8111 22.2648 48.1402 26.276 50.0317L27.2598 50.4857L27.1842 51.4693C27.0328 54.7227 26.9571 57.9761 26.7301 61.2296C26.7301 61.2296 30.9683 61.0782 33.0874 61.0782C35.5849 61.0026 38.0824 61.0026 40.5799 61.0026C38.0824 61.4566 35.6605 61.8349 33.163 62.2888C30.6655 62.6671 28.168 63.0454 25.7462 63.4238L24.6867 63.5751L24.611 62.3645C24.3839 59.1111 24.1569 52.6042 24.1569 52.6042C24.1569 52.6042 24.0812 52.6042 24.0055 52.5285C14.848 48.5185 8.5664 38.3799 8.86913 27.5603C9.02049 22.037 11.1396 16.4381 14.848 12.3524C18.5564 8.34234 23.8542 5.92118 29.1519 5.76985C31.8008 5.69419 34.4496 6.14816 36.8715 7.0561C39.2933 7.96403 41.6394 9.25027 43.7585 10.8392C47.921 14.0926 51.024 18.7836 52.5376 23.8529C54.0513 28.9979 53.8999 34.5968 52.0835 39.5148C50.3428 44.5841 46.7858 48.7455 42.3962 50.7883Z" fill="#FA9401"/>
</svg>
