<svg width="34" height="34" viewBox="0 0 34 34" fill="none" xmlns="http://www.w3.org/2000/svg">
<g clip-path="url(#clip0_3846_7001)">
<mask id="path-1-outside-1_3846_7001" maskUnits="userSpaceOnUse" x="-1.41124" y="-0.413086" width="36" height="36" fill="black">
<rect fill="white" x="-1.41124" y="-0.413086" width="36" height="36"/>
<path d="M0.725557 16.7967C0.72476 19.6534 1.47701 22.4427 2.9074 24.9013L0.58876 33.3014L9.25239 31.0474C11.6486 32.3417 14.3334 33.02 17.0618 33.0201H17.0689C26.0756 33.0201 33.4073 25.748 33.4111 16.8095C33.4128 12.4782 31.7144 8.40533 28.6287 5.34112C25.5434 2.27716 21.4402 0.588891 17.0683 0.586914C8.06053 0.586914 0.729409 7.8587 0.72569 16.7967"/>
</mask>
<path d="M0.725557 16.7967C0.72476 19.6534 1.47701 22.4427 2.9074 24.9013L0.58876 33.3014L9.25239 31.0474C11.6486 32.3417 14.3334 33.02 17.0618 33.0201H17.0689C26.0756 33.0201 33.4073 25.748 33.4111 16.8095C33.4128 12.4782 31.7144 8.40533 28.6287 5.34112C25.5434 2.27716 21.4402 0.588891 17.0683 0.586914C8.06053 0.586914 0.729409 7.8587 0.72569 16.7967" fill="url(#paint0_linear_3846_7001)"/>
<path d="M2.9074 24.9013L3.87135 25.1673L3.98326 24.7619L3.77175 24.3984L2.9074 24.9013ZM0.58876 33.3014L-0.375192 33.0353L-0.836179 34.7054L0.840548 34.2692L0.58876 33.3014ZM9.25239 31.0474L9.72765 30.1675L9.38143 29.9805L9.0006 30.0796L9.25239 31.0474ZM17.0618 33.0201L17.0617 34.0201H17.0618V33.0201ZM33.4111 16.8095L34.4111 16.81V16.8099L33.4111 16.8095ZM28.6287 5.34112L27.924 6.05067L27.924 6.0507L28.6287 5.34112ZM17.0683 0.586914L17.0687 -0.413086H17.0683V0.586914ZM-0.274443 16.7965C-0.275289 19.8296 0.523603 22.7925 2.04305 25.4041L3.77175 24.3984C2.43042 22.0929 1.72481 19.4772 1.72556 16.797L-0.274443 16.7965ZM1.94345 24.6352L-0.375192 33.0353L1.55271 33.5674L3.87135 25.1673L1.94345 24.6352ZM0.840548 34.2692L9.50417 32.0151L9.0006 30.0796L0.336972 32.3336L0.840548 34.2692ZM8.77712 31.9272C11.3196 33.3006 14.1678 34.02 17.0617 34.0201L17.0618 32.0201C14.4991 32.02 11.9776 31.3829 9.72765 30.1675L8.77712 31.9272ZM17.0618 34.0201H17.0689V32.0201H17.0618V34.0201ZM17.0689 34.0201C26.6205 34.0201 34.407 26.3077 34.4111 16.81L32.4111 16.8091C32.4075 25.1882 25.5307 32.0201 17.0689 32.0201V34.0201ZM34.4111 16.8099C34.4129 12.2108 32.6074 7.88274 29.3333 4.63154L27.924 6.0507C30.8215 8.92793 32.4127 12.7456 32.4111 16.8091L34.4111 16.8099ZM29.3333 4.63157C26.0599 1.38068 21.7031 -0.41099 17.0687 -0.413086L17.0678 1.58691C21.1773 1.58877 25.027 3.17364 27.924 6.05067L29.3333 4.63157ZM17.0683 -0.413086C7.51571 -0.413086 -0.270358 7.29889 -0.27431 16.7963L1.72569 16.7972C1.72918 8.41851 8.60535 1.58691 17.0683 1.58691V-0.413086Z" fill="#E8E8E8" mask="url(#path-1-outside-1_3846_7001)"/>
<path d="M0.142109 16.7913C0.14118 19.7507 0.920391 22.6398 2.40178 25.1864L0 33.8876L8.97427 31.5528C11.447 32.8905 14.231 33.5958 17.0639 33.5969H17.0712C26.401 33.5969 33.996 26.0631 34 16.8047C34.0016 12.3178 32.2421 8.09846 29.0461 4.92447C25.8497 1.75087 21.5997 0.00184496 17.0712 0C7.73978 0 0.145961 7.53271 0.142242 16.7913H0.142109ZM5.48648 24.7478L5.1514 24.22C3.74279 21.9976 2.9993 19.4294 3.00037 16.7923C3.00342 9.09685 9.3152 2.83597 17.0765 2.83597C20.8351 2.83755 24.3674 4.29138 27.0242 6.92915C29.6808 9.56718 31.1427 13.0739 31.1417 16.8036C31.1383 24.4991 24.8264 30.7608 17.0712 30.7608H17.0656C14.5404 30.7595 12.0639 30.0866 9.90409 28.815L9.39011 28.5126L4.06459 29.898L5.48648 24.7477V24.7478Z" fill="url(#paint1_linear_3846_7001)"/>
<path d="M12.8401 9.77159C12.5232 9.07274 12.1897 9.05864 11.8883 9.04639C11.6416 9.03584 11.3595 9.03663 11.0776 9.03663C10.7955 9.03663 10.3372 9.14193 9.94979 9.56166C9.56197 9.98178 8.46919 10.997 8.46919 13.0619C8.46919 15.127 9.98498 17.1226 10.1963 17.4029C10.4079 17.6827 13.1225 22.0557 17.422 23.7381C20.9951 25.1362 21.7223 24.8581 22.4978 24.788C23.2734 24.7181 25.0005 23.773 25.3528 22.7929C25.7055 21.813 25.7055 20.973 25.5997 20.7975C25.494 20.6226 25.2119 20.5176 24.7889 20.3078C24.3658 20.0978 22.2862 19.0824 21.8985 18.9424C21.5107 18.8024 21.2288 18.7326 20.9467 19.1528C20.6646 19.5724 19.8545 20.5176 19.6076 20.7975C19.361 21.078 19.1141 21.113 18.6912 20.903C18.268 20.6924 16.9057 20.2498 15.2895 18.8201C14.032 17.7076 13.1831 16.3337 12.9363 15.9135C12.6896 15.4939 12.9099 15.2664 13.122 15.0573C13.3121 14.8692 13.5452 14.5672 13.7569 14.3222C13.9678 14.0771 14.0382 13.9022 14.1792 13.6223C14.3204 13.3421 14.2497 13.097 14.1441 12.8871C14.0382 12.6771 13.2162 10.6016 12.8401 9.77172" fill="white"/>
</g>
<defs>
<linearGradient id="paint0_linear_3846_7001" x1="16.9999" y1="33.3014" x2="16.9999" y2="0.586914" gradientUnits="userSpaceOnUse">
<stop stop-color="#1FAF38"/>
<stop offset="1" stop-color="#60D669"/>
</linearGradient>
<linearGradient id="paint1_linear_3846_7001" x1="17" y1="33.8876" x2="17" y2="0" gradientUnits="userSpaceOnUse">
<stop stop-color="#F9F9F9"/>
<stop offset="1" stop-color="white"/>
</linearGradient>
<clipPath id="clip0_3846_7001">
<rect width="34" height="34" fill="white"/>
</clipPath>
</defs>
</svg>
