<svg width="34" height="34" viewBox="0 0 34 34" fill="none" xmlns="http://www.w3.org/2000/svg">
<path d="M19.8386 16.7043L15.8614 14.8484C15.5143 14.6873 15.2292 14.8679 15.2292 15.2522V18.7478C15.2292 19.1321 15.5143 19.3127 15.8614 19.1516L19.8369 17.2957C20.1857 17.1328 20.1857 16.8672 19.8386 16.7043ZM17 0C7.61104 0 0 7.61104 0 17C0 26.389 7.61104 34 17 34C26.389 34 34 26.389 34 17C34 7.61104 26.389 0 17 0ZM17 23.9062C8.29813 23.9062 8.14583 23.1218 8.14583 17C8.14583 10.8782 8.29813 10.0937 17 10.0937C25.7019 10.0937 25.8542 10.8782 25.8542 17C25.8542 23.1218 25.7019 23.9062 17 23.9062Z" fill="#FF0007"/>
</svg>
