<svg width="30" height="30" viewBox="0 0 30 30" fill="none" xmlns="http://www.w3.org/2000/svg">
<circle cx="15" cy="15" r="15" fill="white"/>
<path fill-rule="evenodd" clip-rule="evenodd" d="M24.9933 19.2409C24.9455 20.2936 24.7781 21.0123 24.5337 21.6415C24.02 22.9699 22.9699 24.02 21.6415 24.5337C21.0126 24.7781 20.2936 24.9452 19.2411 24.9933C18.1866 25.0414 17.8497 25.053 15.164 25.053C12.478 25.053 12.1414 25.0414 11.0865 24.9933C10.0341 24.9452 9.31506 24.7781 8.68621 24.5337C8.02608 24.2854 7.4285 23.8962 6.93445 23.3929C6.43148 22.8992 6.04228 22.3013 5.79395 21.6415C5.54955 21.0126 5.38216 20.2936 5.33433 19.2411C5.28571 18.1863 5.27441 17.8494 5.27441 15.1637C5.27441 12.478 5.28571 12.1411 5.33407 11.0865C5.38189 10.0338 5.54903 9.31506 5.79342 8.68594C6.04176 8.02608 6.43121 7.42823 6.93445 6.93445C7.42823 6.43121 8.02608 6.04202 8.68594 5.79369C9.31506 5.54929 10.0338 5.38216 11.0865 5.33407C12.1411 5.28598 12.478 5.27441 15.1637 5.27441C17.8494 5.27441 18.1863 5.28598 19.2409 5.33433C20.2936 5.38216 21.0123 5.54929 21.6415 5.79342C22.3013 6.04176 22.8992 6.43121 23.3932 6.93445C23.8962 7.4285 24.2856 8.02608 24.5337 8.68594C24.7784 9.31506 24.9455 10.0338 24.9936 11.0865C25.0417 12.1411 25.053 12.478 25.053 15.1637C25.053 17.8494 25.0417 18.1863 24.9933 19.2409ZM22.1331 8.19427C22.4616 8.51329 22.7144 8.90196 22.8729 9.33135C23.0085 9.67981 23.1696 10.2036 23.2135 11.1677C23.261 12.2105 23.271 12.5232 23.271 15.164C23.271 17.8045 23.261 18.1172 23.2135 19.1602C23.1693 20.1244 23.0082 20.6478 22.8729 20.9963C22.5402 21.8588 21.8585 22.5405 20.996 22.8731C20.6476 23.0087 20.1238 23.1698 19.1597 23.2137C18.1172 23.2613 17.8045 23.2713 15.1634 23.2713C12.5227 23.2713 12.2102 23.2613 11.1675 23.2137C10.2033 23.1698 9.67955 23.0087 9.33109 22.8731C8.90143 22.7147 8.51303 22.4619 8.194 22.1334C7.86552 21.8144 7.61298 21.426 7.45425 20.9963C7.31891 20.6478 7.15782 20.1244 7.11394 19.1602C7.06637 18.1172 7.05613 17.8045 7.05613 15.164C7.05613 12.5232 7.06637 12.2105 7.11394 11.1677C7.15782 10.2036 7.31891 9.67981 7.45425 9.33135C7.61298 8.90169 7.86578 8.51329 8.19427 8.19427C8.51303 7.86578 8.90169 7.61298 9.33135 7.45451C9.67955 7.31918 10.2033 7.15809 11.1675 7.11394C12.2102 7.06637 12.5229 7.05639 15.1637 7.05639C17.8042 7.05639 18.1169 7.06664 19.1599 7.1142C20.1241 7.15809 20.6476 7.31918 20.996 7.45451C21.4257 7.61298 21.8141 7.86578 22.1331 8.19427Z" fill="#F07D00"/>
<path fill-rule="evenodd" clip-rule="evenodd" d="M15.1637 20.2418C12.3589 20.2418 10.0853 17.9684 10.0853 15.1637C10.0853 12.3589 12.3589 10.0856 15.1637 10.0856C17.9682 10.0856 20.2418 12.3589 20.2418 15.1637C20.2418 17.9684 17.9682 20.2418 15.1637 20.2418ZM15.1637 18.4601C16.9843 18.4601 18.4601 16.9843 18.4601 15.1637C18.4601 13.3431 16.9843 11.8673 15.1637 11.8673C13.3431 11.8673 11.8673 13.3431 11.8673 15.1637C11.8673 16.9843 13.3431 18.4601 15.1637 18.4601Z" fill="#F07D00"/>
<path d="M20.4426 11.0715C19.7872 11.0715 19.2559 10.5402 19.2559 9.88479C19.2559 9.22939 19.7872 8.69803 20.4426 8.69803C21.098 8.69803 21.6294 9.22939 21.6294 9.88479C21.6291 10.5402 21.098 11.0715 20.4426 11.0715Z" fill="#F07D00"/>
</svg>
