<svg width="30" height="30" viewBox="0 0 30 30" fill="none" xmlns="http://www.w3.org/2000/svg">
<circle cx="15" cy="15" r="15" fill="white"/>
<path d="M14.7914 24.6809C20.2531 24.6809 24.6807 20.2533 24.6807 14.7916C24.6807 9.32993 20.2531 4.90234 14.7914 4.90234C9.32968 4.90234 4.9021 9.32993 4.9021 14.7916C4.9021 20.2533 9.32968 24.6809 14.7914 24.6809Z" stroke="#F07D00" stroke-width="1.5" stroke-linecap="round" stroke-linejoin="round"/>
<path d="M6.2207 11.4951H23.3621" stroke="#F07D00" stroke-width="1.5" stroke-linecap="round" stroke-linejoin="round"/>
<path d="M6.2207 18.0879H23.3621" stroke="#F07D00" stroke-width="1.5" stroke-linecap="round" stroke-linejoin="round"/>
<path d="M14.1321 4.90234C12.4087 7.8687 11.495 11.2951 11.495 14.7916C11.495 18.2882 12.4087 21.7146 14.1321 24.6809" stroke="#F07D00" stroke-width="1.5" stroke-linecap="round" stroke-linejoin="round"/>
<path d="M15.4507 4.90234C17.1741 7.8687 18.0878 11.2951 18.0878 14.7916C18.0878 18.2882 17.1741 21.7146 15.4507 24.6809" stroke="#F07D00" stroke-width="1.5" stroke-linecap="round" stroke-linejoin="round"/>
</svg>
