<svg width="640" height="360" viewBox="0 0 640 360" fill="none" xmlns="http://www.w3.org/2000/svg">
<rect width="640" height="360" fill="#444242"/>
<path d="M270.353 60.7764C271.564 60.7764 272.472 61.1547 273.077 61.8356C273.683 62.5166 273.91 63.3489 273.91 64.4081C273.91 65.4674 273.607 66.2996 273.001 67.0563C272.396 67.8129 271.488 68.1912 270.277 68.1912C269.142 68.1912 268.233 67.8129 267.704 67.0563C267.174 66.2996 266.871 65.3917 266.871 64.4081C266.871 63.3489 267.174 62.5166 267.704 61.8356C268.309 61.1547 269.217 60.7764 270.353 60.7764ZM273.456 73.9414V115.252H267.477V73.9414H273.456Z" fill="white"/>
<path d="M300.474 60.1709V115.252H296.387L295.403 112.68C294.344 113.663 293.209 114.42 291.922 114.95C290.635 115.479 289.273 115.782 287.911 115.782C286.776 115.782 285.716 115.555 284.657 115.177C283.597 114.798 282.689 114.117 281.932 113.285C281.175 112.453 280.57 111.394 280.04 110.183C279.586 108.972 279.359 107.459 279.359 105.795V83.3989C279.359 81.7344 279.586 80.2968 280.04 79.0106C280.494 77.7243 281.099 76.6651 281.932 75.8328C282.689 75.0005 283.597 74.3952 284.657 73.9412C285.716 73.5629 286.776 73.336 287.911 73.336C289.046 73.336 290.257 73.5629 291.392 73.9412C292.527 74.3196 293.587 74.9248 294.571 75.6815V61.6841L300.474 60.1709ZM285.338 104.508C285.338 106.249 285.64 107.535 286.322 108.443C287.003 109.351 288.062 109.805 289.5 109.805C291.317 109.805 292.982 109.048 294.419 107.459V81.7344C292.906 80.1455 291.317 79.3889 289.5 79.3889C287.987 79.3889 286.927 79.8428 286.322 80.7508C285.64 81.6587 285.338 83.0206 285.338 84.6852V104.508Z" fill="white"/>
<path d="M319.924 96.7153C319.016 97.5476 317.881 98.3798 316.594 99.2878C315.308 100.196 313.87 101.179 312.205 102.239V105.568C312.205 107.005 312.583 108.064 313.416 108.821C314.248 109.578 315.232 109.956 316.519 109.956C317.805 109.956 318.865 109.578 319.697 108.821C320.53 108.064 320.908 107.005 320.908 105.568V102.92L326.357 101.482V105.719C326.357 107.308 326.13 108.67 325.6 109.88C325.071 111.091 324.389 112.15 323.406 113.058C322.497 113.966 321.438 114.571 320.227 115.025C319.016 115.479 317.729 115.706 316.292 115.706C314.854 115.706 313.567 115.479 312.432 115.025C311.221 114.571 310.161 113.89 309.253 113.058C308.345 112.15 307.664 111.167 307.134 109.88C306.604 108.67 306.377 107.232 306.377 105.719V83.3989C306.377 81.8857 306.604 80.4481 307.134 79.2375C307.664 78.027 308.345 76.9677 309.253 76.0598C310.161 75.1518 311.221 74.5465 312.432 74.0926C313.643 73.6386 314.929 73.4116 316.367 73.4116C317.578 73.4116 318.789 73.5629 320 73.9412C321.211 74.3196 322.27 74.9248 323.254 75.7571C324.162 76.5894 324.995 77.7243 325.6 79.0862C326.206 80.4481 326.509 82.1883 326.509 84.2312C326.509 86.8037 325.979 89.0735 324.919 90.965C323.86 92.9322 322.195 94.8238 319.924 96.7153ZM312.205 96.4126C314.248 95.1264 315.762 93.9158 316.897 92.9322C318.259 91.646 319.319 90.3597 319.849 89.0735C320.454 87.7873 320.757 86.3497 320.757 84.6852C320.757 82.491 320.303 81.0534 319.47 80.2211C318.562 79.3889 317.578 78.9349 316.367 78.9349C315.081 78.9349 314.021 79.3889 313.34 80.2211C312.583 81.0534 312.28 82.1883 312.28 83.7016V96.4126H312.205Z" fill="white"/>
<path d="M334.985 60.7764C336.196 60.7764 337.104 61.1547 337.709 61.8356C338.315 62.5166 338.618 63.4245 338.618 64.4081C338.618 65.4674 338.315 66.2996 337.709 67.0563C337.104 67.8129 336.196 68.1912 334.985 68.1912C333.85 68.1912 332.942 67.8129 332.412 67.0563C331.882 66.2996 331.579 65.3917 331.579 64.4081C331.579 63.3489 331.882 62.5166 332.412 61.8356C332.942 61.1547 333.774 60.7764 334.985 60.7764ZM338.088 73.9414V115.252H332.109V73.9414H338.088Z" fill="white"/>
<path d="M344.748 78.027C345.732 76.5894 347.094 75.4545 348.835 74.6222C350.575 73.7899 352.392 73.4116 354.36 73.4116C357.614 73.4116 360.111 74.4709 361.701 76.5894C363.29 78.7079 364.122 81.3561 364.122 84.6851V115.252H360.338L359.279 112.982C358.219 113.815 357.084 114.496 355.797 115.025C354.511 115.555 353.149 115.782 351.711 115.782C350.575 115.782 349.516 115.555 348.456 115.177C347.397 114.798 346.489 114.193 345.656 113.361C344.824 112.528 344.218 111.469 343.764 110.107C343.31 108.745 343.083 107.081 343.083 105.114C343.083 103.6 343.234 102.163 343.537 100.952C343.84 99.6661 344.369 98.5312 345.051 97.3962C345.732 96.2613 346.64 95.2021 347.699 94.0671C348.759 93.0079 350.046 91.873 351.559 90.7381C352.543 89.9814 353.603 89.2248 354.814 88.4682C355.949 87.7116 357.235 86.8793 358.522 86.0471V84.7608C358.522 83.0206 358.144 81.6587 357.311 80.5994C356.479 79.5402 355.268 79.0106 353.603 79.0106C352.467 79.0106 351.408 79.3132 350.424 79.8428C349.516 80.3725 348.683 81.2047 348.154 82.1883L344.748 78.027ZM353.451 110.107C354.36 110.107 355.268 109.88 356.1 109.502C356.933 109.124 357.69 108.518 358.446 107.762V91.873C357.614 92.4026 356.933 92.8566 356.252 93.2349C355.646 93.6888 355.041 94.0671 354.435 94.5211C352.316 96.1857 350.878 97.7746 350.121 99.2878C349.364 100.801 348.986 102.466 348.986 104.13C348.986 106.249 349.364 107.762 350.197 108.67C351.029 109.578 352.165 110.107 353.451 110.107Z" fill="white"/>
<path d="M377.064 72.4282C379.562 72.4282 381.605 73.1848 383.119 74.6224C384.632 76.06 385.389 78.4811 385.389 81.7346C385.389 83.2478 385.238 84.534 384.859 85.5933C384.557 86.6525 384.027 87.7118 383.421 88.8467C382.967 89.6033 382.438 90.5113 381.756 91.4192C381.075 92.4028 380.47 93.3107 379.713 94.37C379.032 95.3536 378.351 96.3372 377.67 97.3208C376.988 98.3044 376.383 99.2123 375.853 100.045C375.475 100.726 375.172 101.255 374.869 101.785C374.642 102.314 374.415 102.844 374.264 103.298C374.113 103.828 374.037 104.357 373.961 104.887C373.885 105.492 373.886 106.173 373.886 106.93V110.41H385.313V115.253H368.966V106.93C368.966 105.568 369.118 104.206 369.42 102.844C369.723 101.482 370.253 100.12 371.085 98.607C371.539 97.8504 372.145 96.9425 372.826 95.9589C373.507 94.9753 374.188 93.9917 374.945 93.0081C375.626 92.0245 376.383 91.0409 377.064 90.0573C377.745 89.0737 378.351 88.1658 378.805 87.4092C379.41 86.3499 379.864 85.3663 380.091 84.3827C380.318 83.4748 380.47 82.4912 380.47 81.5076C380.47 79.9187 380.167 78.7838 379.562 78.1028C378.956 77.4219 378.048 77.1192 376.913 77.1192C375.702 77.1192 374.794 77.4219 374.188 78.0272C373.507 78.6324 373.204 79.5404 373.204 80.751V82.0372H368.663V80.6753C368.663 78.1028 369.42 76.06 370.858 74.5467C372.296 73.1848 374.415 72.4282 377.064 72.4282Z" fill="#FA9401"/>
<path d="M406.126 107.535C406.126 108.897 405.899 110.032 405.445 111.091C404.991 112.15 404.385 112.983 403.629 113.739C402.872 114.496 401.888 115.025 400.828 115.404C399.769 115.782 398.634 115.933 397.498 115.933C396.287 115.933 395.152 115.782 394.093 115.404C393.033 115.025 392.125 114.496 391.368 113.739C390.611 112.983 390.006 112.15 389.552 111.091C389.098 110.032 388.871 108.897 388.871 107.535V80.8266C388.871 79.4647 389.098 78.3298 389.552 77.2705C390.006 76.2113 390.611 75.379 391.368 74.6224C392.125 73.9414 393.033 73.3361 394.093 72.9578C395.152 72.5795 396.287 72.3525 397.498 72.3525C398.709 72.3525 399.769 72.5795 400.828 72.9578C401.888 73.3361 402.796 73.9414 403.629 74.6224C404.385 75.3033 405.066 76.2113 405.445 77.2705C405.899 78.3298 406.126 79.4647 406.126 80.8266V107.535ZM393.714 107.459C393.714 108.67 394.093 109.578 394.774 110.259C395.455 110.864 396.363 111.167 397.498 111.167C398.634 111.167 399.542 110.864 400.223 110.259C400.904 109.654 401.282 108.746 401.282 107.459V80.9023C401.282 79.6917 400.904 78.7837 400.223 78.1028C399.542 77.4975 398.634 77.1949 397.498 77.1949C396.363 77.1949 395.455 77.4975 394.774 78.1028C394.093 78.7081 393.714 79.616 393.714 80.9023V107.459Z" fill="#FA9401"/>
<path d="M427.847 107.535C427.847 108.897 427.62 110.032 427.166 111.091C426.712 112.15 426.106 112.983 425.349 113.739C424.592 114.496 423.609 115.025 422.549 115.404C421.489 115.782 420.354 115.933 419.219 115.933C418.008 115.933 416.873 115.782 415.813 115.404C414.754 115.025 413.846 114.496 413.089 113.739C412.332 112.983 411.726 112.15 411.272 111.091C410.818 110.032 410.591 108.897 410.591 107.535V80.8266C410.591 79.4647 410.818 78.3298 411.272 77.2705C411.726 76.2113 412.332 75.379 413.089 74.6224C413.846 73.9414 414.754 73.3361 415.813 72.9578C416.873 72.5795 418.008 72.3525 419.219 72.3525C420.43 72.3525 421.489 72.5795 422.549 72.9578C423.609 73.3361 424.517 73.9414 425.349 74.6224C426.106 75.3033 426.787 76.2113 427.166 77.2705C427.62 78.3298 427.847 79.4647 427.847 80.8266V107.535ZM415.435 107.459C415.435 108.67 415.813 109.578 416.494 110.259C417.176 110.864 418.084 111.167 419.219 111.167C420.354 111.167 421.262 110.864 421.944 110.259C422.625 109.654 423.003 108.746 423.003 107.459V80.9023C423.003 79.6917 422.625 78.7837 421.944 78.1028C421.262 77.4975 420.354 77.1949 419.219 77.1949C418.084 77.1949 417.176 77.4975 416.494 78.1028C415.813 78.7081 415.435 79.616 415.435 80.9023V107.459Z" fill="#FA9401"/>
<path d="M432.917 76.665C433.826 76.665 434.431 76.3623 434.809 75.7571C435.188 75.1518 435.339 74.2438 435.339 73.1846H440.259V115.252H435.339V80.8264H430.798V76.665H432.917Z" fill="#FA9401"/>
<path d="M274.591 130.839C274.137 131.066 273.153 131.368 271.791 131.368C268.99 131.368 267.174 129.477 267.174 126.904C267.174 124.181 269.142 122.213 272.093 122.213C273.153 122.213 274.061 122.516 274.515 122.743L274.137 123.954C273.834 123.802 273.153 123.575 272.169 123.575C270.05 123.575 268.839 125.013 268.839 126.829C268.839 128.872 270.277 130.082 272.093 130.082C273.077 130.082 273.758 129.78 274.288 129.628L274.591 130.839Z" fill="white"/>
<path d="M282.992 129.099C282.992 129.855 282.992 130.612 283.143 131.217H281.705L281.554 130.082H281.478C281.024 130.763 279.964 131.444 278.602 131.444C276.71 131.444 275.802 130.082 275.802 128.947C275.802 126.829 277.618 125.618 281.402 125.694V125.543C281.402 125.013 281.251 123.5 279.283 123.5C278.375 123.5 277.467 123.802 276.786 124.256L276.407 123.197C277.24 122.667 278.299 122.365 279.51 122.365C282.386 122.365 282.992 124.408 282.992 126.072V129.099ZM281.478 126.753C279.51 126.677 277.467 127.056 277.467 128.645C277.467 129.628 278.148 130.158 279.056 130.158C280.343 130.158 281.1 129.326 281.402 128.645C281.478 128.493 281.478 128.266 281.478 128.115V126.753Z" fill="white"/>
<path d="M287.608 120.397V122.516H290.03V123.727H287.608V128.266C287.608 129.325 287.911 130.082 288.895 130.082C289.349 130.082 289.652 130.006 289.879 129.931L289.954 131.141C289.652 131.293 289.122 131.368 288.441 131.368C287.684 131.368 287.078 131.066 286.7 130.612C286.246 130.082 286.094 129.25 286.094 128.342V123.651H284.732V122.44H286.094V120.776L287.608 120.397Z" fill="white"/>
<path d="M298.431 129.098C298.431 129.855 298.431 130.612 298.582 131.217H297.144L296.993 130.082H296.917C296.463 130.763 295.403 131.444 294.041 131.444C292.149 131.444 291.241 130.082 291.241 128.947C291.241 126.829 293.057 125.618 296.841 125.694V125.542C296.841 125.013 296.69 123.5 294.722 123.5C293.814 123.5 292.906 123.802 292.225 124.256L291.846 123.197C292.679 122.667 293.738 122.365 294.949 122.365C297.825 122.365 298.431 124.407 298.431 126.072V129.098ZM296.841 126.753C294.874 126.677 292.83 127.056 292.83 128.645C292.83 129.628 293.511 130.158 294.419 130.158C295.706 130.158 296.463 129.325 296.766 128.645C296.841 128.493 296.841 128.266 296.841 128.115V126.753ZM297.522 118.657L295.252 121.305H294.117L295.706 118.657H297.522Z" fill="white"/>
<path d="M301.079 118.354H302.669V131.217H301.079V118.354Z" fill="white"/>
<path d="M309.253 131.444C306.68 131.444 304.712 129.628 304.712 126.98C304.712 124.105 306.756 122.289 309.329 122.289C312.053 122.289 313.87 124.181 313.87 126.753C313.945 129.931 311.524 131.444 309.253 131.444ZM309.329 130.234C310.918 130.234 312.28 129.023 312.28 126.829C312.28 125.316 311.372 123.5 309.329 123.5C307.285 123.5 306.377 125.164 306.377 126.904C306.377 128.947 307.74 130.234 309.329 130.234Z" fill="white"/>
<path d="M323.935 129.855C323.935 131.747 323.481 133.109 322.573 133.941C321.665 134.773 320.303 135 319.243 135C318.108 135 316.897 134.697 316.14 134.168L316.519 132.882C317.124 133.26 318.108 133.638 319.319 133.638C321.06 133.638 322.346 132.73 322.346 130.46V129.477C321.816 130.309 320.833 131.066 319.319 131.066C316.973 131.066 315.383 129.174 315.383 126.829C315.383 123.954 317.427 122.213 319.546 122.213C321.211 122.213 322.119 123.046 322.573 123.878L322.649 122.44H324.087C324.011 123.046 324.011 123.727 324.011 124.71V129.855H323.935ZM322.346 126.072C322.346 125.769 322.346 125.542 322.27 125.315C321.968 124.256 321.06 123.5 319.773 123.5C318.184 123.5 316.897 124.786 316.897 126.829C316.897 128.342 317.805 129.931 319.697 129.931C320.833 129.931 321.816 129.174 322.119 128.191C322.195 127.964 322.27 127.585 322.27 127.358V126.072H322.346Z" fill="white"/>
<path d="M330.52 131.444C327.947 131.444 325.979 129.628 325.979 126.98C325.979 124.105 328.022 122.289 330.595 122.289C333.32 122.289 335.136 124.181 335.136 126.753C335.212 129.931 332.79 131.444 330.52 131.444ZM330.595 130.234C332.185 130.234 333.547 129.023 333.547 126.829C333.547 125.316 332.639 123.5 330.595 123.5C328.552 123.5 327.644 125.164 327.644 126.904C327.644 128.947 329.006 130.234 330.595 130.234Z" fill="white"/>
<path d="M337.104 129.553C337.634 129.855 338.542 130.234 339.375 130.234C340.586 130.234 341.115 129.628 341.115 128.947C341.115 128.191 340.586 127.812 339.375 127.434C337.71 126.904 336.953 125.996 336.953 124.937C336.953 123.5 338.088 122.365 340.056 122.365C340.964 122.365 341.796 122.592 342.326 122.97L341.948 124.181C341.645 123.954 340.888 123.651 339.98 123.651C338.996 123.651 338.466 124.181 338.466 124.862C338.466 125.618 339.072 125.921 340.283 126.299C341.948 126.829 342.629 127.585 342.629 128.872C342.629 130.309 341.494 131.52 339.223 131.52C338.239 131.52 337.255 131.217 336.65 130.839L337.104 129.553Z" fill="white"/>
<path d="M349.667 121.003C349.062 121.003 348.683 120.549 348.683 120.019C348.683 119.49 349.062 119.036 349.667 119.036C350.273 119.036 350.651 119.49 350.651 120.019C350.727 120.549 350.348 121.003 349.667 121.003ZM348.911 131.217V122.516H350.5V131.217H348.911Z" fill="white"/>
<path d="M353.3 124.937C353.3 124.029 353.3 123.273 353.224 122.516H354.662L354.738 124.029H354.814C355.268 123.197 356.327 122.289 357.917 122.289C359.052 122.289 361.171 122.97 361.171 126.223V131.217H359.582V126.375C359.582 124.862 358.976 123.651 357.387 123.651C356.252 123.651 355.343 124.483 355.041 125.316C354.965 125.542 354.889 125.769 354.889 126.072V131.217H353.3V124.937Z" fill="white"/>
<path d="M365.788 120.397V122.516H368.209V123.727H365.788V128.266C365.788 129.325 366.09 130.082 367.074 130.082C367.528 130.082 367.831 130.006 368.058 129.931L368.134 131.141C367.831 131.293 367.301 131.368 366.62 131.368C365.863 131.368 365.258 131.066 364.879 130.612C364.425 130.082 364.274 129.25 364.274 128.342V123.651H362.912V122.44H364.274V120.776L365.788 120.397Z" fill="white"/>
<path d="M370.858 127.207C370.858 129.174 372.296 130.158 374.037 130.158C375.323 130.158 376.08 129.931 376.686 129.704L376.988 130.839C376.459 131.066 375.399 131.444 373.81 131.444C371.01 131.444 369.269 129.628 369.269 127.056C369.269 124.483 370.934 122.289 373.658 122.289C376.761 122.289 377.518 125.013 377.518 126.45C377.518 126.753 377.518 126.98 377.443 127.207H370.858ZM376.005 126.072C376.005 125.316 375.702 123.5 373.583 123.5C371.766 123.5 371.01 125.013 370.858 126.072H376.005Z" fill="white"/>
<path d="M379.562 118.354H381.151V131.217H379.562V118.354Z" fill="white"/>
<path d="M384.708 121.003C384.103 121.003 383.724 120.549 383.724 120.019C383.724 119.49 384.103 119.036 384.708 119.036C385.313 119.036 385.692 119.49 385.692 120.019C385.768 120.549 385.389 121.003 384.708 121.003ZM383.951 131.217V122.516H385.541V131.217H383.951Z" fill="white"/>
<path d="M396.287 129.855C396.287 131.747 395.833 133.109 394.925 133.941C394.017 134.773 392.655 135 391.595 135C390.46 135 389.249 134.697 388.492 134.168L388.871 132.882C389.476 133.26 390.46 133.638 391.671 133.638C393.411 133.638 394.698 132.73 394.698 130.46V129.477C394.168 130.309 393.184 131.066 391.671 131.066C389.4 131.066 387.735 129.174 387.735 126.829C387.735 123.954 389.779 122.213 391.898 122.213C393.563 122.213 394.471 123.046 394.925 123.878L395.001 122.44H396.439C396.363 123.046 396.363 123.727 396.363 124.71V129.855H396.287ZM394.698 126.072C394.698 125.769 394.698 125.542 394.622 125.315C394.32 124.256 393.411 123.5 392.125 123.5C390.46 123.5 389.249 124.786 389.249 126.829C389.249 128.342 390.157 129.931 392.049 129.931C393.184 129.931 394.168 129.174 394.471 128.191C394.547 127.964 394.622 127.585 394.622 127.358V126.072H394.698Z" fill="white"/>
<path d="M399.844 127.207C399.844 129.174 401.282 130.158 403.023 130.158C404.31 130.158 405.067 129.931 405.672 129.704L405.975 130.839C405.445 131.066 404.385 131.444 402.796 131.444C399.996 131.444 398.255 129.628 398.255 127.056C398.255 124.483 399.844 122.289 402.645 122.289C405.748 122.289 406.504 125.013 406.504 126.45C406.504 126.753 406.504 126.98 406.429 127.207H399.844ZM404.991 126.072C404.991 125.316 404.688 123.5 402.569 123.5C400.753 123.5 399.996 125.013 399.844 126.072H404.991Z" fill="white"/>
<path d="M408.624 124.937C408.624 124.029 408.624 123.273 408.548 122.516H409.986L410.061 124.029H410.137C410.591 123.197 411.651 122.289 413.24 122.289C414.375 122.289 416.494 122.97 416.494 126.223V131.217H414.905V126.375C414.905 124.862 414.3 123.651 412.71 123.651C411.575 123.651 410.667 124.483 410.364 125.316C410.289 125.542 410.213 125.769 410.213 126.072V131.217H408.624V124.937Z" fill="white"/>
<path d="M421.111 120.397V122.516H423.533V123.727H421.111V128.266C421.111 129.325 421.414 130.082 422.398 130.082C422.852 130.082 423.155 130.006 423.382 129.931L423.457 131.141C423.155 131.293 422.625 131.368 421.944 131.368C421.187 131.368 420.581 131.066 420.203 130.612C419.749 130.082 419.597 129.25 419.597 128.342V123.651H418.235V122.44H419.597V120.776L421.111 120.397Z" fill="white"/>
<path d="M426.182 127.207C426.182 129.174 427.62 130.158 429.36 130.158C430.647 130.158 431.404 129.931 432.009 129.704L432.312 130.839C431.782 131.066 430.723 131.444 429.133 131.444C426.333 131.444 424.592 129.628 424.592 127.056C424.592 124.483 426.182 122.289 428.982 122.289C432.085 122.289 432.842 125.013 432.842 126.45C432.842 126.753 432.842 126.98 432.766 127.207H426.182ZM431.328 126.072C431.328 125.316 431.025 123.5 428.906 123.5C427.09 123.5 426.333 125.013 426.182 126.072H431.328Z" fill="white"/>
<path d="M434.734 129.553C435.264 129.855 436.172 130.234 437.004 130.234C438.215 130.234 438.745 129.628 438.745 128.947C438.745 128.191 438.215 127.812 437.004 127.434C435.339 126.904 434.583 125.996 434.583 124.937C434.583 123.5 435.718 122.365 437.685 122.365C438.594 122.365 439.426 122.592 439.956 122.97L439.578 124.181C439.275 123.954 438.518 123.651 437.61 123.651C436.626 123.651 436.096 124.181 436.096 124.862C436.096 125.618 436.702 125.921 437.913 126.299C439.578 126.829 440.259 127.585 440.259 128.872C440.259 130.309 439.123 131.52 436.853 131.52C435.869 131.52 434.885 131.217 434.28 130.839L434.734 129.553Z" fill="white"/>
<path d="M257.184 88.998C256.2 85.3662 255.746 83.4747 255.141 80.5239C254.535 80.5996 249.086 77.1191 249.767 71.2932C247.043 68.9477 245.756 67.5858 243.031 65.0133C242.729 65.6186 240.08 66.6022 237.582 65.6186C235.085 64.635 232.966 62.8948 232.436 60.3223C228.046 60.0953 226.154 59.944 221.992 60.0197C222.522 61.3816 222.446 62.2139 222.068 63.4244C221.689 64.7107 220.327 65.9969 218.965 66.6022C215.407 68.1154 211.018 65.9213 210.11 65.2403C207.461 68.4937 205.039 71.3689 202.39 75.1519C204.736 76.2869 205.947 80.2969 205.947 82.4911C205.947 85.8202 203.45 89.9059 199.741 90.2085C201.179 96.0345 202.012 98.153 203.904 104.357C212.532 104.13 215.18 111.167 214.121 115.782C217.829 117.295 221.311 119.111 224.792 120.473V112.377C214.499 108.14 207.839 95.8075 209.504 84.307C210.488 77.5731 214.272 71.8228 219.797 68.7207C224.943 65.7699 230.922 65.3916 236.825 67.5858C237.128 67.6615 237.431 67.8128 237.658 67.8885C247.572 71.9742 253.93 82.6424 252.794 93.689C252.038 101.028 248.253 107.081 241.82 110.713L240.685 119.035C242.804 118.128 244.772 116.993 246.588 115.555C245.756 112.604 250.675 106.778 253.476 107.384C254.686 103.979 255.292 102.39 256.503 99.2122C254.081 98.9852 254.308 89.3763 257.184 88.998Z" fill="white"/>
<path d="M241.518 122.97L224.489 125.618L224.641 130.536L229.106 130.914C229.257 133.108 231.074 134.849 233.193 134.849C235.312 134.849 237.053 133.108 237.28 130.914L241.745 130.536L241.518 122.97Z" fill="white"/>
<path d="M241.896 110.788C245.907 107.989 248.632 103.752 249.843 99.1365C251.054 94.5211 251.205 88.7709 249.54 84.4582C247.951 80.1455 245.68 76.5138 242.123 73.9413C238.566 71.3688 234.404 70.0069 229.711 70.3852C225.549 70.6878 220.705 72.882 217.829 75.9841C214.953 79.0862 213.213 83.3989 212.986 87.8629C212.683 92.327 213.894 96.9423 216.164 100.877C218.359 104.811 221.765 108.14 225.776 110.032L226.76 110.486L226.684 111.469C226.533 114.723 226.457 117.976 226.23 121.23C226.23 121.23 230.468 121.078 232.587 121.078C235.085 121.003 237.582 121.003 240.08 121.003C237.582 121.457 235.161 121.835 232.663 122.289C230.166 122.667 227.668 123.045 225.246 123.424L224.187 123.575L224.111 122.364C223.884 119.111 223.657 112.604 223.657 112.604C223.657 112.604 223.581 112.604 223.506 112.529C214.348 108.518 208.066 98.3799 208.369 87.5603C208.52 82.037 210.64 76.4381 214.348 72.3524C218.056 68.3423 223.354 65.9212 228.652 65.7699C231.301 65.6942 233.95 66.1482 236.371 67.0561C238.793 67.964 241.139 69.2503 243.259 70.8392C247.421 74.0926 250.524 78.7836 252.038 83.8529C253.551 88.9979 253.4 94.5968 251.584 99.5148C249.843 104.584 246.286 108.745 241.896 110.788Z" fill="#FA9401"/>
<rect x="47" y="185" width="265" height="50" rx="25" fill="#FA9401"/>
<path d="M107.429 211.057H106.697L106.423 210.783C107.337 209.777 107.886 208.406 107.886 206.943C107.886 203.651 105.234 201 101.943 201C98.6514 201 96 203.651 96 206.943C96 210.234 98.6514 212.886 101.943 212.886C103.406 212.886 104.777 212.337 105.783 211.423L106.057 211.697V212.429L110.629 217L112 215.629L107.429 211.057ZM101.943 211.057C99.6571 211.057 97.8286 209.229 97.8286 206.943C97.8286 204.657 99.6571 202.829 101.943 202.829C104.229 202.829 106.057 204.657 106.057 206.943C106.057 209.229 104.229 211.057 101.943 211.057Z" fill="white"/>
<path d="M128.93 211.445H126.031V209.617H128.93C129.378 209.617 129.742 209.544 130.023 209.398C130.305 209.247 130.51 209.039 130.641 208.773C130.771 208.508 130.836 208.208 130.836 207.875C130.836 207.536 130.771 207.221 130.641 206.93C130.51 206.638 130.305 206.404 130.023 206.227C129.742 206.049 129.378 205.961 128.93 205.961H126.844V215.5H124.5V204.125H128.93C129.82 204.125 130.583 204.286 131.219 204.609C131.859 204.927 132.349 205.367 132.688 205.93C133.026 206.492 133.195 207.135 133.195 207.859C133.195 208.594 133.026 209.229 132.688 209.766C132.349 210.302 131.859 210.716 131.219 211.008C130.583 211.299 129.82 211.445 128.93 211.445ZM138.453 215.656C137.797 215.656 137.208 215.552 136.688 215.344C136.167 215.13 135.724 214.836 135.359 214.461C135 214.086 134.724 213.651 134.531 213.156C134.339 212.656 134.242 212.125 134.242 211.562V211.25C134.242 210.609 134.333 210.023 134.516 209.492C134.698 208.961 134.958 208.5 135.297 208.109C135.641 207.719 136.057 207.419 136.547 207.211C137.036 206.997 137.589 206.891 138.203 206.891C138.802 206.891 139.333 206.99 139.797 207.188C140.26 207.385 140.648 207.667 140.961 208.031C141.279 208.396 141.518 208.833 141.68 209.344C141.841 209.849 141.922 210.411 141.922 211.031V211.969H135.203V210.469H139.711V210.297C139.711 209.984 139.654 209.706 139.539 209.461C139.43 209.211 139.263 209.013 139.039 208.867C138.815 208.721 138.529 208.648 138.18 208.648C137.883 208.648 137.628 208.714 137.414 208.844C137.201 208.974 137.026 209.156 136.891 209.391C136.76 209.625 136.661 209.901 136.594 210.219C136.531 210.531 136.5 210.875 136.5 211.25V211.562C136.5 211.901 136.547 212.214 136.641 212.5C136.74 212.786 136.878 213.034 137.055 213.242C137.237 213.451 137.456 213.612 137.711 213.727C137.971 213.841 138.266 213.898 138.594 213.898C139 213.898 139.378 213.82 139.727 213.664C140.081 213.503 140.385 213.26 140.641 212.938L141.734 214.125C141.557 214.38 141.315 214.625 141.008 214.859C140.706 215.094 140.341 215.286 139.914 215.438C139.487 215.583 139 215.656 138.453 215.656ZM147.773 213.164C147.773 213.003 147.727 212.857 147.633 212.727C147.539 212.596 147.365 212.477 147.109 212.367C146.859 212.253 146.497 212.148 146.023 212.055C145.596 211.961 145.198 211.844 144.828 211.703C144.464 211.557 144.146 211.383 143.875 211.18C143.609 210.977 143.401 210.737 143.25 210.461C143.099 210.18 143.023 209.859 143.023 209.5C143.023 209.146 143.099 208.812 143.25 208.5C143.406 208.188 143.628 207.911 143.914 207.672C144.206 207.427 144.56 207.237 144.977 207.102C145.398 206.961 145.872 206.891 146.398 206.891C147.133 206.891 147.763 207.008 148.289 207.242C148.82 207.477 149.227 207.799 149.508 208.211C149.794 208.617 149.938 209.081 149.938 209.602H147.688C147.688 209.383 147.641 209.188 147.547 209.016C147.458 208.839 147.318 208.701 147.125 208.602C146.938 208.497 146.693 208.445 146.391 208.445C146.141 208.445 145.924 208.49 145.742 208.578C145.56 208.661 145.419 208.776 145.32 208.922C145.227 209.062 145.18 209.219 145.18 209.391C145.18 209.521 145.206 209.638 145.258 209.742C145.315 209.841 145.406 209.932 145.531 210.016C145.656 210.099 145.818 210.177 146.016 210.25C146.219 210.318 146.469 210.38 146.766 210.438C147.375 210.562 147.919 210.727 148.398 210.93C148.878 211.128 149.258 211.398 149.539 211.742C149.82 212.081 149.961 212.526 149.961 213.078C149.961 213.453 149.878 213.797 149.711 214.109C149.544 214.422 149.305 214.695 148.992 214.93C148.68 215.159 148.305 215.339 147.867 215.469C147.435 215.594 146.948 215.656 146.406 215.656C145.62 215.656 144.953 215.516 144.406 215.234C143.865 214.953 143.453 214.596 143.172 214.164C142.896 213.727 142.758 213.279 142.758 212.82H144.891C144.901 213.128 144.979 213.375 145.125 213.562C145.276 213.75 145.466 213.885 145.695 213.969C145.93 214.052 146.182 214.094 146.453 214.094C146.745 214.094 146.987 214.055 147.18 213.977C147.372 213.893 147.518 213.784 147.617 213.648C147.721 213.508 147.773 213.346 147.773 213.164ZM156.414 218.75V208.773L156.703 207.047H158.68V218.75H156.414ZM151.07 211.359V211.195C151.07 210.549 151.141 209.964 151.281 209.438C151.427 208.906 151.641 208.453 151.922 208.078C152.203 207.698 152.547 207.406 152.953 207.203C153.365 206.995 153.839 206.891 154.375 206.891C154.891 206.891 155.336 206.995 155.711 207.203C156.086 207.411 156.401 207.706 156.656 208.086C156.917 208.466 157.125 208.914 157.281 209.43C157.438 209.945 157.557 210.51 157.641 211.125V211.484C157.562 212.073 157.443 212.62 157.281 213.125C157.125 213.63 156.917 214.073 156.656 214.453C156.401 214.833 156.083 215.13 155.703 215.344C155.328 215.552 154.88 215.656 154.359 215.656C153.833 215.656 153.365 215.549 152.953 215.336C152.547 215.117 152.203 214.815 151.922 214.43C151.641 214.044 151.427 213.591 151.281 213.07C151.141 212.544 151.07 211.974 151.07 211.359ZM153.32 211.195V211.359C153.32 211.708 153.349 212.036 153.406 212.344C153.464 212.646 153.555 212.914 153.68 213.148C153.81 213.383 153.977 213.568 154.18 213.703C154.383 213.833 154.633 213.898 154.93 213.898C155.341 213.898 155.672 213.81 155.922 213.633C156.177 213.451 156.365 213.203 156.484 212.891C156.609 212.578 156.682 212.221 156.703 211.82V210.797C156.688 210.469 156.643 210.174 156.57 209.914C156.503 209.648 156.398 209.422 156.258 209.234C156.122 209.047 155.945 208.904 155.727 208.805C155.513 208.701 155.253 208.648 154.945 208.648C154.654 208.648 154.404 208.714 154.195 208.844C153.987 208.974 153.818 209.156 153.688 209.391C153.562 209.62 153.469 209.888 153.406 210.195C153.349 210.503 153.32 210.836 153.32 211.195ZM165.453 213.477V207.047H167.703V215.5H165.586L165.453 213.477ZM165.703 211.742L166.367 211.727C166.367 212.289 166.302 212.812 166.172 213.297C166.042 213.776 165.846 214.193 165.586 214.547C165.326 214.896 164.997 215.169 164.602 215.367C164.206 215.56 163.74 215.656 163.203 215.656C162.792 215.656 162.411 215.599 162.062 215.484C161.719 215.365 161.422 215.18 161.172 214.93C160.927 214.674 160.734 214.349 160.594 213.953C160.458 213.552 160.391 213.07 160.391 212.508V207.047H162.641V212.523C162.641 212.773 162.669 212.984 162.727 213.156C162.789 213.328 162.875 213.469 162.984 213.578C163.094 213.688 163.221 213.766 163.367 213.812C163.518 213.859 163.685 213.883 163.867 213.883C164.331 213.883 164.695 213.789 164.961 213.602C165.232 213.414 165.422 213.159 165.531 212.836C165.646 212.508 165.703 212.143 165.703 211.742ZM171.797 207.047V215.5H169.539V207.047H171.797ZM169.398 204.844C169.398 204.516 169.513 204.245 169.742 204.031C169.971 203.818 170.279 203.711 170.664 203.711C171.044 203.711 171.349 203.818 171.578 204.031C171.812 204.245 171.93 204.516 171.93 204.844C171.93 205.172 171.812 205.443 171.578 205.656C171.349 205.87 171.044 205.977 170.664 205.977C170.279 205.977 169.971 205.87 169.742 205.656C169.513 205.443 169.398 205.172 169.398 204.844ZM178.227 213.164C178.227 213.003 178.18 212.857 178.086 212.727C177.992 212.596 177.818 212.477 177.562 212.367C177.312 212.253 176.951 212.148 176.477 212.055C176.049 211.961 175.651 211.844 175.281 211.703C174.917 211.557 174.599 211.383 174.328 211.18C174.062 210.977 173.854 210.737 173.703 210.461C173.552 210.18 173.477 209.859 173.477 209.5C173.477 209.146 173.552 208.812 173.703 208.5C173.859 208.188 174.081 207.911 174.367 207.672C174.659 207.427 175.013 207.237 175.43 207.102C175.852 206.961 176.326 206.891 176.852 206.891C177.586 206.891 178.216 207.008 178.742 207.242C179.273 207.477 179.68 207.799 179.961 208.211C180.247 208.617 180.391 209.081 180.391 209.602H178.141C178.141 209.383 178.094 209.188 178 209.016C177.911 208.839 177.771 208.701 177.578 208.602C177.391 208.497 177.146 208.445 176.844 208.445C176.594 208.445 176.378 208.49 176.195 208.578C176.013 208.661 175.872 208.776 175.773 208.922C175.68 209.062 175.633 209.219 175.633 209.391C175.633 209.521 175.659 209.638 175.711 209.742C175.768 209.841 175.859 209.932 175.984 210.016C176.109 210.099 176.271 210.177 176.469 210.25C176.672 210.318 176.922 210.38 177.219 210.438C177.828 210.562 178.372 210.727 178.852 210.93C179.331 211.128 179.711 211.398 179.992 211.742C180.273 212.081 180.414 212.526 180.414 213.078C180.414 213.453 180.331 213.797 180.164 214.109C179.997 214.422 179.758 214.695 179.445 214.93C179.133 215.159 178.758 215.339 178.32 215.469C177.888 215.594 177.401 215.656 176.859 215.656C176.073 215.656 175.406 215.516 174.859 215.234C174.318 214.953 173.906 214.596 173.625 214.164C173.349 213.727 173.211 213.279 173.211 212.82H175.344C175.354 213.128 175.432 213.375 175.578 213.562C175.729 213.75 175.919 213.885 176.148 213.969C176.383 214.052 176.635 214.094 176.906 214.094C177.198 214.094 177.44 214.055 177.633 213.977C177.826 213.893 177.971 213.784 178.07 213.648C178.174 213.508 178.227 213.346 178.227 213.164ZM186.438 213.594V209.828C186.438 209.557 186.393 209.326 186.305 209.133C186.216 208.935 186.078 208.781 185.891 208.672C185.708 208.562 185.471 208.508 185.18 208.508C184.93 208.508 184.714 208.552 184.531 208.641C184.349 208.724 184.208 208.846 184.109 209.008C184.01 209.164 183.961 209.349 183.961 209.562H181.711C181.711 209.203 181.794 208.862 181.961 208.539C182.128 208.216 182.37 207.932 182.688 207.688C183.005 207.438 183.383 207.242 183.82 207.102C184.263 206.961 184.758 206.891 185.305 206.891C185.961 206.891 186.544 207 187.055 207.219C187.565 207.438 187.966 207.766 188.258 208.203C188.555 208.641 188.703 209.188 188.703 209.844V213.461C188.703 213.924 188.732 214.305 188.789 214.602C188.846 214.893 188.93 215.148 189.039 215.367V215.5H186.766C186.656 215.271 186.573 214.984 186.516 214.641C186.464 214.292 186.438 213.943 186.438 213.594ZM186.734 210.352L186.75 211.625H185.492C185.195 211.625 184.938 211.659 184.719 211.727C184.5 211.794 184.32 211.891 184.18 212.016C184.039 212.135 183.935 212.276 183.867 212.438C183.805 212.599 183.773 212.776 183.773 212.969C183.773 213.161 183.818 213.336 183.906 213.492C183.995 213.643 184.122 213.763 184.289 213.852C184.456 213.935 184.651 213.977 184.875 213.977C185.214 213.977 185.508 213.909 185.758 213.773C186.008 213.638 186.201 213.471 186.336 213.273C186.477 213.076 186.549 212.888 186.555 212.711L187.148 213.664C187.065 213.878 186.951 214.099 186.805 214.328C186.664 214.557 186.484 214.773 186.266 214.977C186.047 215.174 185.784 215.339 185.477 215.469C185.169 215.594 184.805 215.656 184.383 215.656C183.846 215.656 183.359 215.549 182.922 215.336C182.49 215.117 182.146 214.818 181.891 214.438C181.641 214.052 181.516 213.615 181.516 213.125C181.516 212.682 181.599 212.289 181.766 211.945C181.932 211.602 182.177 211.312 182.5 211.078C182.828 210.839 183.237 210.659 183.727 210.539C184.216 210.414 184.784 210.352 185.43 210.352H186.734ZM192.688 208.891V215.5H190.438V207.047H192.555L192.688 208.891ZM195.234 206.992L195.195 209.078C195.086 209.062 194.953 209.049 194.797 209.039C194.646 209.023 194.508 209.016 194.383 209.016C194.065 209.016 193.789 209.057 193.555 209.141C193.326 209.219 193.133 209.336 192.977 209.492C192.826 209.648 192.711 209.839 192.633 210.062C192.56 210.286 192.518 210.542 192.508 210.828L192.055 210.688C192.055 210.141 192.109 209.638 192.219 209.18C192.328 208.716 192.487 208.312 192.695 207.969C192.909 207.625 193.169 207.359 193.477 207.172C193.784 206.984 194.135 206.891 194.531 206.891C194.656 206.891 194.784 206.901 194.914 206.922C195.044 206.938 195.151 206.961 195.234 206.992ZM202.531 208.672V218.75H200.281V207.047H202.367L202.531 208.672ZM207.883 211.18V211.344C207.883 211.958 207.81 212.529 207.664 213.055C207.523 213.581 207.315 214.039 207.039 214.43C206.763 214.815 206.419 215.117 206.008 215.336C205.602 215.549 205.133 215.656 204.602 215.656C204.086 215.656 203.638 215.552 203.258 215.344C202.878 215.135 202.557 214.844 202.297 214.469C202.042 214.089 201.836 213.648 201.68 213.148C201.523 212.648 201.404 212.112 201.32 211.539V211.109C201.404 210.495 201.523 209.932 201.68 209.422C201.836 208.906 202.042 208.461 202.297 208.086C202.557 207.706 202.875 207.411 203.25 207.203C203.63 206.995 204.076 206.891 204.586 206.891C205.122 206.891 205.594 206.992 206 207.195C206.411 207.398 206.755 207.69 207.031 208.07C207.312 208.451 207.523 208.904 207.664 209.43C207.81 209.956 207.883 210.539 207.883 211.18ZM205.625 211.344V211.18C205.625 210.82 205.594 210.49 205.531 210.188C205.474 209.88 205.38 209.612 205.25 209.383C205.125 209.154 204.958 208.977 204.75 208.852C204.547 208.721 204.299 208.656 204.008 208.656C203.701 208.656 203.438 208.706 203.219 208.805C203.005 208.904 202.831 209.047 202.695 209.234C202.56 209.422 202.458 209.646 202.391 209.906C202.323 210.167 202.281 210.461 202.266 210.789V211.875C202.292 212.26 202.365 212.607 202.484 212.914C202.604 213.216 202.789 213.456 203.039 213.633C203.289 213.81 203.617 213.898 204.023 213.898C204.32 213.898 204.57 213.833 204.773 213.703C204.977 213.568 205.141 213.383 205.266 213.148C205.396 212.914 205.487 212.643 205.539 212.336C205.596 212.029 205.625 211.698 205.625 211.344ZM211.531 208.891V215.5H209.281V207.047H211.398L211.531 208.891ZM214.078 206.992L214.039 209.078C213.93 209.062 213.797 209.049 213.641 209.039C213.49 209.023 213.352 209.016 213.227 209.016C212.909 209.016 212.633 209.057 212.398 209.141C212.169 209.219 211.977 209.336 211.82 209.492C211.669 209.648 211.555 209.839 211.477 210.062C211.404 210.286 211.362 210.542 211.352 210.828L210.898 210.688C210.898 210.141 210.953 209.638 211.062 209.18C211.172 208.716 211.331 208.312 211.539 207.969C211.753 207.625 212.013 207.359 212.32 207.172C212.628 206.984 212.979 206.891 213.375 206.891C213.5 206.891 213.628 206.901 213.758 206.922C213.888 206.938 213.995 206.961 214.078 206.992ZM214.547 211.359V211.195C214.547 210.576 214.635 210.005 214.812 209.484C214.99 208.958 215.247 208.503 215.586 208.117C215.924 207.732 216.341 207.432 216.836 207.219C217.331 207 217.898 206.891 218.539 206.891C219.18 206.891 219.75 207 220.25 207.219C220.75 207.432 221.169 207.732 221.508 208.117C221.852 208.503 222.112 208.958 222.289 209.484C222.466 210.005 222.555 210.576 222.555 211.195V211.359C222.555 211.974 222.466 212.544 222.289 213.07C222.112 213.591 221.852 214.047 221.508 214.438C221.169 214.823 220.753 215.122 220.258 215.336C219.763 215.549 219.195 215.656 218.555 215.656C217.914 215.656 217.344 215.549 216.844 215.336C216.349 215.122 215.93 214.823 215.586 214.438C215.247 214.047 214.99 213.591 214.812 213.07C214.635 212.544 214.547 211.974 214.547 211.359ZM216.797 211.195V211.359C216.797 211.714 216.828 212.044 216.891 212.352C216.953 212.659 217.052 212.93 217.188 213.164C217.328 213.393 217.51 213.573 217.734 213.703C217.958 213.833 218.232 213.898 218.555 213.898C218.867 213.898 219.135 213.833 219.359 213.703C219.583 213.573 219.763 213.393 219.898 213.164C220.034 212.93 220.133 212.659 220.195 212.352C220.263 212.044 220.297 211.714 220.297 211.359V211.195C220.297 210.852 220.263 210.529 220.195 210.227C220.133 209.919 220.031 209.648 219.891 209.414C219.755 209.174 219.576 208.987 219.352 208.852C219.128 208.716 218.857 208.648 218.539 208.648C218.221 208.648 217.951 208.716 217.727 208.852C217.508 208.987 217.328 209.174 217.188 209.414C217.052 209.648 216.953 209.919 216.891 210.227C216.828 210.529 216.797 210.852 216.797 211.195ZM228.93 213.656V203.5H231.195V215.5H229.156L228.93 213.656ZM223.586 211.375V211.211C223.586 210.565 223.659 209.979 223.805 209.453C223.951 208.922 224.164 208.466 224.445 208.086C224.727 207.706 225.073 207.411 225.484 207.203C225.896 206.995 226.365 206.891 226.891 206.891C227.385 206.891 227.818 206.995 228.188 207.203C228.562 207.411 228.88 207.708 229.141 208.094C229.406 208.474 229.62 208.924 229.781 209.445C229.943 209.961 230.06 210.526 230.133 211.141V211.5C230.06 212.089 229.943 212.635 229.781 213.141C229.62 213.646 229.406 214.089 229.141 214.469C228.88 214.844 228.562 215.135 228.188 215.344C227.812 215.552 227.375 215.656 226.875 215.656C226.349 215.656 225.88 215.549 225.469 215.336C225.062 215.122 224.719 214.823 224.438 214.438C224.161 214.052 223.951 213.599 223.805 213.078C223.659 212.557 223.586 211.99 223.586 211.375ZM225.836 211.211V211.375C225.836 211.724 225.862 212.049 225.914 212.352C225.971 212.654 226.062 212.922 226.188 213.156C226.318 213.385 226.484 213.565 226.688 213.695C226.896 213.82 227.148 213.883 227.445 213.883C227.831 213.883 228.148 213.797 228.398 213.625C228.648 213.448 228.839 213.206 228.969 212.898C229.104 212.591 229.182 212.237 229.203 211.836V210.812C229.188 210.484 229.141 210.19 229.062 209.93C228.99 209.664 228.88 209.438 228.734 209.25C228.594 209.062 228.417 208.917 228.203 208.812C227.995 208.708 227.747 208.656 227.461 208.656C227.169 208.656 226.919 208.724 226.711 208.859C226.503 208.99 226.333 209.169 226.203 209.398C226.078 209.628 225.984 209.898 225.922 210.211C225.865 210.518 225.836 210.852 225.836 211.211ZM237.953 213.477V207.047H240.203V215.5H238.086L237.953 213.477ZM238.203 211.742L238.867 211.727C238.867 212.289 238.802 212.812 238.672 213.297C238.542 213.776 238.346 214.193 238.086 214.547C237.826 214.896 237.497 215.169 237.102 215.367C236.706 215.56 236.24 215.656 235.703 215.656C235.292 215.656 234.911 215.599 234.562 215.484C234.219 215.365 233.922 215.18 233.672 214.93C233.427 214.674 233.234 214.349 233.094 213.953C232.958 213.552 232.891 213.07 232.891 212.508V207.047H235.141V212.523C235.141 212.773 235.169 212.984 235.227 213.156C235.289 213.328 235.375 213.469 235.484 213.578C235.594 213.688 235.721 213.766 235.867 213.812C236.018 213.859 236.185 213.883 236.367 213.883C236.831 213.883 237.195 213.789 237.461 213.602C237.732 213.414 237.922 213.159 238.031 212.836C238.146 212.508 238.203 212.143 238.203 211.742ZM246.062 207.047V208.641H241.141V207.047H246.062ZM242.359 204.961H244.609V212.953C244.609 213.198 244.641 213.385 244.703 213.516C244.771 213.646 244.87 213.737 245 213.789C245.13 213.836 245.294 213.859 245.492 213.859C245.633 213.859 245.758 213.854 245.867 213.844C245.982 213.828 246.078 213.812 246.156 213.797L246.164 215.453C245.971 215.516 245.763 215.565 245.539 215.602C245.315 215.638 245.068 215.656 244.797 215.656C244.302 215.656 243.87 215.576 243.5 215.414C243.135 215.247 242.854 214.982 242.656 214.617C242.458 214.253 242.359 213.773 242.359 213.18V204.961ZM246.781 211.359V211.195C246.781 210.576 246.87 210.005 247.047 209.484C247.224 208.958 247.482 208.503 247.82 208.117C248.159 207.732 248.576 207.432 249.07 207.219C249.565 207 250.133 206.891 250.773 206.891C251.414 206.891 251.984 207 252.484 207.219C252.984 207.432 253.404 207.732 253.742 208.117C254.086 208.503 254.346 208.958 254.523 209.484C254.701 210.005 254.789 210.576 254.789 211.195V211.359C254.789 211.974 254.701 212.544 254.523 213.07C254.346 213.591 254.086 214.047 253.742 214.438C253.404 214.823 252.987 215.122 252.492 215.336C251.997 215.549 251.43 215.656 250.789 215.656C250.148 215.656 249.578 215.549 249.078 215.336C248.583 215.122 248.164 214.823 247.82 214.438C247.482 214.047 247.224 213.591 247.047 213.07C246.87 212.544 246.781 211.974 246.781 211.359ZM249.031 211.195V211.359C249.031 211.714 249.062 212.044 249.125 212.352C249.188 212.659 249.286 212.93 249.422 213.164C249.562 213.393 249.745 213.573 249.969 213.703C250.193 213.833 250.466 213.898 250.789 213.898C251.102 213.898 251.37 213.833 251.594 213.703C251.818 213.573 251.997 213.393 252.133 213.164C252.268 212.93 252.367 212.659 252.43 212.352C252.497 212.044 252.531 211.714 252.531 211.359V211.195C252.531 210.852 252.497 210.529 252.43 210.227C252.367 209.919 252.266 209.648 252.125 209.414C251.99 209.174 251.81 208.987 251.586 208.852C251.362 208.716 251.091 208.648 250.773 208.648C250.456 208.648 250.185 208.716 249.961 208.852C249.742 208.987 249.562 209.174 249.422 209.414C249.286 209.648 249.188 209.919 249.125 210.227C249.062 210.529 249.031 210.852 249.031 211.195ZM260.742 213.164C260.742 213.003 260.695 212.857 260.602 212.727C260.508 212.596 260.333 212.477 260.078 212.367C259.828 212.253 259.466 212.148 258.992 212.055C258.565 211.961 258.167 211.844 257.797 211.703C257.432 211.557 257.115 211.383 256.844 211.18C256.578 210.977 256.37 210.737 256.219 210.461C256.068 210.18 255.992 209.859 255.992 209.5C255.992 209.146 256.068 208.812 256.219 208.5C256.375 208.188 256.596 207.911 256.883 207.672C257.174 207.427 257.529 207.237 257.945 207.102C258.367 206.961 258.841 206.891 259.367 206.891C260.102 206.891 260.732 207.008 261.258 207.242C261.789 207.477 262.195 207.799 262.477 208.211C262.763 208.617 262.906 209.081 262.906 209.602H260.656C260.656 209.383 260.609 209.188 260.516 209.016C260.427 208.839 260.286 208.701 260.094 208.602C259.906 208.497 259.661 208.445 259.359 208.445C259.109 208.445 258.893 208.49 258.711 208.578C258.529 208.661 258.388 208.776 258.289 208.922C258.195 209.062 258.148 209.219 258.148 209.391C258.148 209.521 258.174 209.638 258.227 209.742C258.284 209.841 258.375 209.932 258.5 210.016C258.625 210.099 258.786 210.177 258.984 210.25C259.188 210.318 259.438 210.38 259.734 210.438C260.344 210.562 260.888 210.727 261.367 210.93C261.846 211.128 262.227 211.398 262.508 211.742C262.789 212.081 262.93 212.526 262.93 213.078C262.93 213.453 262.846 213.797 262.68 214.109C262.513 214.422 262.273 214.695 261.961 214.93C261.648 215.159 261.273 215.339 260.836 215.469C260.404 215.594 259.917 215.656 259.375 215.656C258.589 215.656 257.922 215.516 257.375 215.234C256.833 214.953 256.422 214.596 256.141 214.164C255.865 213.727 255.727 213.279 255.727 212.82H257.859C257.87 213.128 257.948 213.375 258.094 213.562C258.245 213.75 258.435 213.885 258.664 213.969C258.898 214.052 259.151 214.094 259.422 214.094C259.714 214.094 259.956 214.055 260.148 213.977C260.341 213.893 260.487 213.784 260.586 213.648C260.69 213.508 260.742 213.346 260.742 213.164Z" fill="white"/>
<rect x="327.5" y="185.5" width="264" height="49" rx="24.5" fill="#444242"/>
<path d="M413.02 208.28C412.14 205.96 409.82 204.76 407.26 205.24C404.78 202.76 401.34 201.08 397.9 201C397.66 201 397.5 201.16 397.5 201.4C397.58 204.84 399.26 208.28 401.66 210.76C401.26 213.24 402.38 215.64 404.7 216.52C404.3 215.48 404.22 214.28 404.54 213.08C404.94 213.32 405.34 213.56 405.74 213.72C405.9 213.8 406.06 213.8 406.22 213.64L410.22 209.64C410.3 209.56 410.3 209.4 410.22 209.24C410.06 208.84 409.82 208.44 409.58 208.12C410.78 207.8 411.98 207.88 413.02 208.28ZM404.22 207.72C403.58 208.36 402.62 208.36 401.98 207.72C401.34 207.08 401.34 206.12 401.98 205.48C402.62 204.84 403.58 204.84 404.22 205.48C404.86 206.12 404.86 207.08 404.22 207.72Z" fill="white"/>
<path d="M413.26 212.52L411.58 210.84C411.26 210.52 410.78 210.52 410.46 210.84C410.14 211.16 410.14 211.64 410.46 211.96L412.14 213.64C412.46 213.96 412.94 213.96 413.26 213.64C413.58 213.32 413.58 212.84 413.26 212.52Z" fill="white"/>
<path d="M410.14 215.64L408.46 213.96C408.14 213.64 407.66 213.64 407.34 213.96C407.02 214.28 407.02 214.76 407.34 215.08L409.02 216.76C409.34 217.08 409.82 217.08 410.14 216.76C410.46 216.44 410.46 215.96 410.14 215.64Z" fill="white"/>
<path d="M412.3 214.76L409.98 212.44C409.66 212.12 409.18 212.12 408.86 212.44C408.54 212.76 408.54 213.24 408.86 213.56L411.18 215.88C411.5 216.2 411.98 216.2 412.3 215.88C412.62 215.56 412.62 215.08 412.3 214.76Z" fill="white"/>
<path d="M433.312 213.672V215.5H427.586V213.672H433.312ZM428.344 204.125V215.5H426V204.125H428.344ZM439.078 213.594V209.828C439.078 209.557 439.034 209.326 438.945 209.133C438.857 208.935 438.719 208.781 438.531 208.672C438.349 208.562 438.112 208.508 437.82 208.508C437.57 208.508 437.354 208.552 437.172 208.641C436.99 208.724 436.849 208.846 436.75 209.008C436.651 209.164 436.602 209.349 436.602 209.562H434.352C434.352 209.203 434.435 208.862 434.602 208.539C434.768 208.216 435.01 207.932 435.328 207.688C435.646 207.438 436.023 207.242 436.461 207.102C436.904 206.961 437.398 206.891 437.945 206.891C438.602 206.891 439.185 207 439.695 207.219C440.206 207.438 440.607 207.766 440.898 208.203C441.195 208.641 441.344 209.188 441.344 209.844V213.461C441.344 213.924 441.372 214.305 441.43 214.602C441.487 214.893 441.57 215.148 441.68 215.367V215.5H439.406C439.297 215.271 439.214 214.984 439.156 214.641C439.104 214.292 439.078 213.943 439.078 213.594ZM439.375 210.352L439.391 211.625H438.133C437.836 211.625 437.578 211.659 437.359 211.727C437.141 211.794 436.961 211.891 436.82 212.016C436.68 212.135 436.576 212.276 436.508 212.438C436.445 212.599 436.414 212.776 436.414 212.969C436.414 213.161 436.458 213.336 436.547 213.492C436.635 213.643 436.763 213.763 436.93 213.852C437.096 213.935 437.292 213.977 437.516 213.977C437.854 213.977 438.148 213.909 438.398 213.773C438.648 213.638 438.841 213.471 438.977 213.273C439.117 213.076 439.19 212.888 439.195 212.711L439.789 213.664C439.706 213.878 439.591 214.099 439.445 214.328C439.305 214.557 439.125 214.773 438.906 214.977C438.688 215.174 438.424 215.339 438.117 215.469C437.81 215.594 437.445 215.656 437.023 215.656C436.487 215.656 436 215.549 435.562 215.336C435.13 215.117 434.786 214.818 434.531 214.438C434.281 214.052 434.156 213.615 434.156 213.125C434.156 212.682 434.24 212.289 434.406 211.945C434.573 211.602 434.818 211.312 435.141 211.078C435.469 210.839 435.878 210.659 436.367 210.539C436.857 210.414 437.424 210.352 438.07 210.352H439.375ZM445.281 208.852V215.5H443.031V207.047H445.141L445.281 208.852ZM444.953 210.977H444.344C444.344 210.352 444.424 209.789 444.586 209.289C444.747 208.784 444.974 208.354 445.266 208C445.557 207.641 445.904 207.367 446.305 207.18C446.711 206.987 447.164 206.891 447.664 206.891C448.06 206.891 448.422 206.948 448.75 207.062C449.078 207.177 449.359 207.359 449.594 207.609C449.833 207.859 450.016 208.19 450.141 208.602C450.271 209.013 450.336 209.516 450.336 210.109V215.5H448.07V210.102C448.07 209.727 448.018 209.435 447.914 209.227C447.81 209.018 447.656 208.872 447.453 208.789C447.255 208.701 447.01 208.656 446.719 208.656C446.417 208.656 446.154 208.716 445.93 208.836C445.711 208.956 445.529 209.122 445.383 209.336C445.242 209.544 445.135 209.789 445.062 210.07C444.99 210.352 444.953 210.654 444.953 210.977ZM455.539 213.898C455.815 213.898 456.06 213.846 456.273 213.742C456.487 213.633 456.654 213.482 456.773 213.289C456.898 213.091 456.964 212.859 456.969 212.594H459.086C459.081 213.188 458.922 213.716 458.609 214.18C458.297 214.638 457.878 215 457.352 215.266C456.826 215.526 456.237 215.656 455.586 215.656C454.93 215.656 454.357 215.547 453.867 215.328C453.383 215.109 452.979 214.807 452.656 214.422C452.333 214.031 452.091 213.578 451.93 213.062C451.768 212.542 451.688 211.984 451.688 211.391V211.164C451.688 210.565 451.768 210.008 451.93 209.492C452.091 208.971 452.333 208.518 452.656 208.133C452.979 207.742 453.383 207.438 453.867 207.219C454.352 207 454.919 206.891 455.57 206.891C456.263 206.891 456.87 207.023 457.391 207.289C457.917 207.555 458.328 207.935 458.625 208.43C458.927 208.919 459.081 209.5 459.086 210.172H456.969C456.964 209.891 456.904 209.635 456.789 209.406C456.68 209.177 456.518 208.995 456.305 208.859C456.096 208.719 455.839 208.648 455.531 208.648C455.203 208.648 454.935 208.719 454.727 208.859C454.518 208.995 454.357 209.182 454.242 209.422C454.128 209.656 454.047 209.924 454 210.227C453.958 210.523 453.938 210.836 453.938 211.164V211.391C453.938 211.719 453.958 212.034 454 212.336C454.042 212.638 454.12 212.906 454.234 213.141C454.354 213.375 454.518 213.56 454.727 213.695C454.935 213.831 455.206 213.898 455.539 213.898ZM454.695 215.469H456.391L456.305 215.93C456.602 215.982 456.872 216.107 457.117 216.305C457.362 216.503 457.484 216.828 457.484 217.281C457.484 217.557 457.424 217.807 457.305 218.031C457.19 218.255 457.018 218.448 456.789 218.609C456.56 218.776 456.273 218.901 455.93 218.984C455.586 219.073 455.19 219.117 454.742 219.117L454.688 217.867C454.854 217.867 455.005 217.844 455.141 217.797C455.276 217.75 455.383 217.677 455.461 217.578C455.539 217.484 455.578 217.359 455.578 217.203C455.578 217.057 455.539 216.943 455.461 216.859C455.383 216.776 455.26 216.714 455.094 216.672C454.932 216.63 454.719 216.602 454.453 216.586L454.695 215.469ZM464.953 213.594V209.828C464.953 209.557 464.909 209.326 464.82 209.133C464.732 208.935 464.594 208.781 464.406 208.672C464.224 208.562 463.987 208.508 463.695 208.508C463.445 208.508 463.229 208.552 463.047 208.641C462.865 208.724 462.724 208.846 462.625 209.008C462.526 209.164 462.477 209.349 462.477 209.562H460.227C460.227 209.203 460.31 208.862 460.477 208.539C460.643 208.216 460.885 207.932 461.203 207.688C461.521 207.438 461.898 207.242 462.336 207.102C462.779 206.961 463.273 206.891 463.82 206.891C464.477 206.891 465.06 207 465.57 207.219C466.081 207.438 466.482 207.766 466.773 208.203C467.07 208.641 467.219 209.188 467.219 209.844V213.461C467.219 213.924 467.247 214.305 467.305 214.602C467.362 214.893 467.445 215.148 467.555 215.367V215.5H465.281C465.172 215.271 465.089 214.984 465.031 214.641C464.979 214.292 464.953 213.943 464.953 213.594ZM465.25 210.352L465.266 211.625H464.008C463.711 211.625 463.453 211.659 463.234 211.727C463.016 211.794 462.836 211.891 462.695 212.016C462.555 212.135 462.451 212.276 462.383 212.438C462.32 212.599 462.289 212.776 462.289 212.969C462.289 213.161 462.333 213.336 462.422 213.492C462.51 213.643 462.638 213.763 462.805 213.852C462.971 213.935 463.167 213.977 463.391 213.977C463.729 213.977 464.023 213.909 464.273 213.773C464.523 213.638 464.716 213.471 464.852 213.273C464.992 213.076 465.065 212.888 465.07 212.711L465.664 213.664C465.581 213.878 465.466 214.099 465.32 214.328C465.18 214.557 465 214.773 464.781 214.977C464.562 215.174 464.299 215.339 463.992 215.469C463.685 215.594 463.32 215.656 462.898 215.656C462.362 215.656 461.875 215.549 461.438 215.336C461.005 215.117 460.661 214.818 460.406 214.438C460.156 214.052 460.031 213.615 460.031 213.125C460.031 212.682 460.115 212.289 460.281 211.945C460.448 211.602 460.693 211.312 461.016 211.078C461.344 210.839 461.753 210.659 462.242 210.539C462.732 210.414 463.299 210.352 463.945 210.352H465.25ZM471.203 208.797V215.5H468.945V207.047H471.062L471.203 208.797ZM470.891 210.977H470.266C470.266 210.388 470.336 209.846 470.477 209.352C470.622 208.852 470.833 208.419 471.109 208.055C471.391 207.685 471.737 207.398 472.148 207.195C472.56 206.992 473.036 206.891 473.578 206.891C473.953 206.891 474.297 206.948 474.609 207.062C474.922 207.172 475.19 207.346 475.414 207.586C475.643 207.82 475.82 208.128 475.945 208.508C476.07 208.883 476.133 209.333 476.133 209.859V215.5H473.883V210.109C473.883 209.724 473.831 209.427 473.727 209.219C473.622 209.01 473.474 208.865 473.281 208.781C473.094 208.698 472.867 208.656 472.602 208.656C472.31 208.656 472.055 208.716 471.836 208.836C471.622 208.956 471.445 209.122 471.305 209.336C471.164 209.544 471.06 209.789 470.992 210.07C470.924 210.352 470.891 210.654 470.891 210.977ZM475.922 210.719L475.117 210.82C475.117 210.268 475.185 209.755 475.32 209.281C475.461 208.807 475.667 208.391 475.938 208.031C476.214 207.672 476.555 207.393 476.961 207.195C477.367 206.992 477.836 206.891 478.367 206.891C478.773 206.891 479.143 206.951 479.477 207.07C479.81 207.185 480.094 207.37 480.328 207.625C480.568 207.875 480.75 208.203 480.875 208.609C481.005 209.016 481.07 209.513 481.07 210.102V215.5H478.812V210.102C478.812 209.711 478.76 209.414 478.656 209.211C478.557 209.003 478.411 208.859 478.219 208.781C478.031 208.698 477.807 208.656 477.547 208.656C477.276 208.656 477.039 208.711 476.836 208.82C476.633 208.924 476.464 209.07 476.328 209.258C476.193 209.445 476.091 209.664 476.023 209.914C475.956 210.159 475.922 210.427 475.922 210.719ZM486.703 215.656C486.047 215.656 485.458 215.552 484.938 215.344C484.417 215.13 483.974 214.836 483.609 214.461C483.25 214.086 482.974 213.651 482.781 213.156C482.589 212.656 482.492 212.125 482.492 211.562V211.25C482.492 210.609 482.583 210.023 482.766 209.492C482.948 208.961 483.208 208.5 483.547 208.109C483.891 207.719 484.307 207.419 484.797 207.211C485.286 206.997 485.839 206.891 486.453 206.891C487.052 206.891 487.583 206.99 488.047 207.188C488.51 207.385 488.898 207.667 489.211 208.031C489.529 208.396 489.768 208.833 489.93 209.344C490.091 209.849 490.172 210.411 490.172 211.031V211.969H483.453V210.469H487.961V210.297C487.961 209.984 487.904 209.706 487.789 209.461C487.68 209.211 487.513 209.013 487.289 208.867C487.065 208.721 486.779 208.648 486.43 208.648C486.133 208.648 485.878 208.714 485.664 208.844C485.451 208.974 485.276 209.156 485.141 209.391C485.01 209.625 484.911 209.901 484.844 210.219C484.781 210.531 484.75 210.875 484.75 211.25V211.562C484.75 211.901 484.797 212.214 484.891 212.5C484.99 212.786 485.128 213.034 485.305 213.242C485.487 213.451 485.706 213.612 485.961 213.727C486.221 213.841 486.516 213.898 486.844 213.898C487.25 213.898 487.628 213.82 487.977 213.664C488.331 213.503 488.635 213.26 488.891 212.938L489.984 214.125C489.807 214.38 489.565 214.625 489.258 214.859C488.956 215.094 488.591 215.286 488.164 215.438C487.737 215.583 487.25 215.656 486.703 215.656ZM493.656 208.852V215.5H491.406V207.047H493.516L493.656 208.852ZM493.328 210.977H492.719C492.719 210.352 492.799 209.789 492.961 209.289C493.122 208.784 493.349 208.354 493.641 208C493.932 207.641 494.279 207.367 494.68 207.18C495.086 206.987 495.539 206.891 496.039 206.891C496.435 206.891 496.797 206.948 497.125 207.062C497.453 207.177 497.734 207.359 497.969 207.609C498.208 207.859 498.391 208.19 498.516 208.602C498.646 209.013 498.711 209.516 498.711 210.109V215.5H496.445V210.102C496.445 209.727 496.393 209.435 496.289 209.227C496.185 209.018 496.031 208.872 495.828 208.789C495.63 208.701 495.385 208.656 495.094 208.656C494.792 208.656 494.529 208.716 494.305 208.836C494.086 208.956 493.904 209.122 493.758 209.336C493.617 209.544 493.51 209.789 493.438 210.07C493.365 210.352 493.328 210.654 493.328 210.977ZM504.562 207.047V208.641H499.641V207.047H504.562ZM500.859 204.961H503.109V212.953C503.109 213.198 503.141 213.385 503.203 213.516C503.271 213.646 503.37 213.737 503.5 213.789C503.63 213.836 503.794 213.859 503.992 213.859C504.133 213.859 504.258 213.854 504.367 213.844C504.482 213.828 504.578 213.812 504.656 213.797L504.664 215.453C504.471 215.516 504.263 215.565 504.039 215.602C503.815 215.638 503.568 215.656 503.297 215.656C502.802 215.656 502.37 215.576 502 215.414C501.635 215.247 501.354 214.982 501.156 214.617C500.958 214.253 500.859 213.773 500.859 213.18V204.961ZM505.281 211.359V211.195C505.281 210.576 505.37 210.005 505.547 209.484C505.724 208.958 505.982 208.503 506.32 208.117C506.659 207.732 507.076 207.432 507.57 207.219C508.065 207 508.633 206.891 509.273 206.891C509.914 206.891 510.484 207 510.984 207.219C511.484 207.432 511.904 207.732 512.242 208.117C512.586 208.503 512.846 208.958 513.023 209.484C513.201 210.005 513.289 210.576 513.289 211.195V211.359C513.289 211.974 513.201 212.544 513.023 213.07C512.846 213.591 512.586 214.047 512.242 214.438C511.904 214.823 511.487 215.122 510.992 215.336C510.497 215.549 509.93 215.656 509.289 215.656C508.648 215.656 508.078 215.549 507.578 215.336C507.083 215.122 506.664 214.823 506.32 214.438C505.982 214.047 505.724 213.591 505.547 213.07C505.37 212.544 505.281 211.974 505.281 211.359ZM507.531 211.195V211.359C507.531 211.714 507.562 212.044 507.625 212.352C507.688 212.659 507.786 212.93 507.922 213.164C508.062 213.393 508.245 213.573 508.469 213.703C508.693 213.833 508.966 213.898 509.289 213.898C509.602 213.898 509.87 213.833 510.094 213.703C510.318 213.573 510.497 213.393 510.633 213.164C510.768 212.93 510.867 212.659 510.93 212.352C510.997 212.044 511.031 211.714 511.031 211.359V211.195C511.031 210.852 510.997 210.529 510.93 210.227C510.867 209.919 510.766 209.648 510.625 209.414C510.49 209.174 510.31 208.987 510.086 208.852C509.862 208.716 509.591 208.648 509.273 208.648C508.956 208.648 508.685 208.716 508.461 208.852C508.242 208.987 508.062 209.174 507.922 209.414C507.786 209.648 507.688 209.919 507.625 210.227C507.562 210.529 507.531 210.852 507.531 211.195ZM519.242 213.164C519.242 213.003 519.195 212.857 519.102 212.727C519.008 212.596 518.833 212.477 518.578 212.367C518.328 212.253 517.966 212.148 517.492 212.055C517.065 211.961 516.667 211.844 516.297 211.703C515.932 211.557 515.615 211.383 515.344 211.18C515.078 210.977 514.87 210.737 514.719 210.461C514.568 210.18 514.492 209.859 514.492 209.5C514.492 209.146 514.568 208.812 514.719 208.5C514.875 208.188 515.096 207.911 515.383 207.672C515.674 207.427 516.029 207.237 516.445 207.102C516.867 206.961 517.341 206.891 517.867 206.891C518.602 206.891 519.232 207.008 519.758 207.242C520.289 207.477 520.695 207.799 520.977 208.211C521.263 208.617 521.406 209.081 521.406 209.602H519.156C519.156 209.383 519.109 209.188 519.016 209.016C518.927 208.839 518.786 208.701 518.594 208.602C518.406 208.497 518.161 208.445 517.859 208.445C517.609 208.445 517.393 208.49 517.211 208.578C517.029 208.661 516.888 208.776 516.789 208.922C516.695 209.062 516.648 209.219 516.648 209.391C516.648 209.521 516.674 209.638 516.727 209.742C516.784 209.841 516.875 209.932 517 210.016C517.125 210.099 517.286 210.177 517.484 210.25C517.688 210.318 517.938 210.38 518.234 210.438C518.844 210.562 519.388 210.727 519.867 210.93C520.346 211.128 520.727 211.398 521.008 211.742C521.289 212.081 521.43 212.526 521.43 213.078C521.43 213.453 521.346 213.797 521.18 214.109C521.013 214.422 520.773 214.695 520.461 214.93C520.148 215.159 519.773 215.339 519.336 215.469C518.904 215.594 518.417 215.656 517.875 215.656C517.089 215.656 516.422 215.516 515.875 215.234C515.333 214.953 514.922 214.596 514.641 214.164C514.365 213.727 514.227 213.279 514.227 212.82H516.359C516.37 213.128 516.448 213.375 516.594 213.562C516.745 213.75 516.935 213.885 517.164 213.969C517.398 214.052 517.651 214.094 517.922 214.094C518.214 214.094 518.456 214.055 518.648 213.977C518.841 213.893 518.987 213.784 519.086 213.648C519.19 213.508 519.242 213.346 519.242 213.164Z" fill="white"/>
<rect x="327.5" y="185.5" width="264" height="49" rx="24.5" stroke="#FA9401"/>
<rect x="47.5" y="250.5" width="264" height="49" rx="24.5" fill="#444242"/>
<path d="M141.083 279.701C139.767 279.701 138.701 280.775 138.701 282.1C138.701 283.426 139.767 284.5 141.083 284.5C142.398 284.5 143.464 283.426 143.464 282.1C143.463 280.776 142.397 279.702 141.083 279.701Z" fill="white"/>
<path d="M154.413 269.807C154.33 269.697 154.201 269.632 154.063 269.631H138.605L138.289 267.853C138.095 266.759 137.244 265.903 136.157 265.71L135.015 265.507C134.776 265.464 134.549 265.624 134.507 265.864C134.465 266.104 134.623 266.333 134.861 266.376L136.008 266.579C136.732 266.708 137.299 267.279 137.427 268.008L138.977 276.816C139.16 277.87 140.069 278.639 141.131 278.638H150.324C151.29 278.641 152.143 278.004 152.421 277.072L154.479 270.2C154.522 270.066 154.498 269.92 154.413 269.807Z" fill="white"/>
<path d="M150.276 279.701C148.961 279.701 147.895 280.775 147.895 282.1C147.895 283.426 148.961 284.5 150.276 284.5C151.591 284.5 152.658 283.426 152.658 282.1C152.656 280.776 151.591 279.702 150.276 279.701Z" fill="white"/>
<path d="M170.133 276.727H172.469C172.422 277.492 172.211 278.172 171.836 278.766C171.466 279.359 170.948 279.823 170.281 280.156C169.62 280.49 168.823 280.656 167.891 280.656C167.161 280.656 166.508 280.531 165.93 280.281C165.352 280.026 164.857 279.661 164.445 279.188C164.039 278.714 163.729 278.141 163.516 277.469C163.302 276.797 163.195 276.044 163.195 275.211V274.422C163.195 273.589 163.305 272.836 163.523 272.164C163.747 271.487 164.065 270.911 164.477 270.438C164.893 269.964 165.391 269.599 165.969 269.344C166.547 269.089 167.193 268.961 167.906 268.961C168.854 268.961 169.654 269.133 170.305 269.477C170.961 269.82 171.469 270.294 171.828 270.898C172.193 271.503 172.411 272.19 172.484 272.961H170.141C170.115 272.503 170.023 272.115 169.867 271.797C169.711 271.474 169.474 271.232 169.156 271.07C168.844 270.904 168.427 270.82 167.906 270.82C167.516 270.82 167.174 270.893 166.883 271.039C166.591 271.185 166.346 271.406 166.148 271.703C165.951 272 165.802 272.375 165.703 272.828C165.609 273.276 165.562 273.802 165.562 274.406V275.211C165.562 275.799 165.607 276.318 165.695 276.766C165.784 277.208 165.919 277.583 166.102 277.891C166.289 278.193 166.529 278.422 166.82 278.578C167.117 278.729 167.474 278.805 167.891 278.805C168.38 278.805 168.784 278.727 169.102 278.57C169.419 278.414 169.661 278.182 169.828 277.875C170 277.568 170.102 277.185 170.133 276.727ZM178.43 278.594V274.828C178.43 274.557 178.385 274.326 178.297 274.133C178.208 273.935 178.07 273.781 177.883 273.672C177.701 273.562 177.464 273.508 177.172 273.508C176.922 273.508 176.706 273.552 176.523 273.641C176.341 273.724 176.201 273.846 176.102 274.008C176.003 274.164 175.953 274.349 175.953 274.562H173.703C173.703 274.203 173.786 273.862 173.953 273.539C174.12 273.216 174.362 272.932 174.68 272.688C174.997 272.438 175.375 272.242 175.812 272.102C176.255 271.961 176.75 271.891 177.297 271.891C177.953 271.891 178.536 272 179.047 272.219C179.557 272.438 179.958 272.766 180.25 273.203C180.547 273.641 180.695 274.188 180.695 274.844V278.461C180.695 278.924 180.724 279.305 180.781 279.602C180.839 279.893 180.922 280.148 181.031 280.367V280.5H178.758C178.648 280.271 178.565 279.984 178.508 279.641C178.456 279.292 178.43 278.943 178.43 278.594ZM178.727 275.352L178.742 276.625H177.484C177.188 276.625 176.93 276.659 176.711 276.727C176.492 276.794 176.312 276.891 176.172 277.016C176.031 277.135 175.927 277.276 175.859 277.438C175.797 277.599 175.766 277.776 175.766 277.969C175.766 278.161 175.81 278.336 175.898 278.492C175.987 278.643 176.115 278.763 176.281 278.852C176.448 278.935 176.643 278.977 176.867 278.977C177.206 278.977 177.5 278.909 177.75 278.773C178 278.638 178.193 278.471 178.328 278.273C178.469 278.076 178.542 277.888 178.547 277.711L179.141 278.664C179.057 278.878 178.943 279.099 178.797 279.328C178.656 279.557 178.477 279.773 178.258 279.977C178.039 280.174 177.776 280.339 177.469 280.469C177.161 280.594 176.797 280.656 176.375 280.656C175.839 280.656 175.352 280.549 174.914 280.336C174.482 280.117 174.138 279.818 173.883 279.438C173.633 279.052 173.508 278.615 173.508 278.125C173.508 277.682 173.591 277.289 173.758 276.945C173.924 276.602 174.169 276.312 174.492 276.078C174.82 275.839 175.229 275.659 175.719 275.539C176.208 275.414 176.776 275.352 177.422 275.352H178.727ZM184.68 273.891V280.5H182.43V272.047H184.547L184.68 273.891ZM187.227 271.992L187.188 274.078C187.078 274.062 186.945 274.049 186.789 274.039C186.638 274.023 186.5 274.016 186.375 274.016C186.057 274.016 185.781 274.057 185.547 274.141C185.318 274.219 185.125 274.336 184.969 274.492C184.818 274.648 184.703 274.839 184.625 275.062C184.552 275.286 184.51 275.542 184.5 275.828L184.047 275.688C184.047 275.141 184.102 274.638 184.211 274.18C184.32 273.716 184.479 273.312 184.688 272.969C184.901 272.625 185.161 272.359 185.469 272.172C185.776 271.984 186.128 271.891 186.523 271.891C186.648 271.891 186.776 271.901 186.906 271.922C187.036 271.938 187.143 271.961 187.227 271.992ZM190.539 273.891V280.5H188.289V272.047H190.406L190.539 273.891ZM193.086 271.992L193.047 274.078C192.938 274.062 192.805 274.049 192.648 274.039C192.497 274.023 192.359 274.016 192.234 274.016C191.917 274.016 191.641 274.057 191.406 274.141C191.177 274.219 190.984 274.336 190.828 274.492C190.677 274.648 190.562 274.839 190.484 275.062C190.411 275.286 190.37 275.542 190.359 275.828L189.906 275.688C189.906 275.141 189.961 274.638 190.07 274.18C190.18 273.716 190.339 273.312 190.547 272.969C190.76 272.625 191.021 272.359 191.328 272.172C191.635 271.984 191.987 271.891 192.383 271.891C192.508 271.891 192.635 271.901 192.766 271.922C192.896 271.938 193.003 271.961 193.086 271.992ZM196.523 272.047V280.5H194.266V272.047H196.523ZM194.125 269.844C194.125 269.516 194.24 269.245 194.469 269.031C194.698 268.818 195.005 268.711 195.391 268.711C195.771 268.711 196.076 268.818 196.305 269.031C196.539 269.245 196.656 269.516 196.656 269.844C196.656 270.172 196.539 270.443 196.305 270.656C196.076 270.87 195.771 270.977 195.391 270.977C195.005 270.977 194.698 270.87 194.469 270.656C194.24 270.443 194.125 270.172 194.125 269.844ZM200.586 273.852V280.5H198.336V272.047H200.445L200.586 273.852ZM200.258 275.977H199.648C199.648 275.352 199.729 274.789 199.891 274.289C200.052 273.784 200.279 273.354 200.57 273C200.862 272.641 201.208 272.367 201.609 272.18C202.016 271.987 202.469 271.891 202.969 271.891C203.365 271.891 203.727 271.948 204.055 272.062C204.383 272.177 204.664 272.359 204.898 272.609C205.138 272.859 205.32 273.19 205.445 273.602C205.576 274.013 205.641 274.516 205.641 275.109V280.5H203.375V275.102C203.375 274.727 203.323 274.435 203.219 274.227C203.115 274.018 202.961 273.872 202.758 273.789C202.56 273.701 202.315 273.656 202.023 273.656C201.721 273.656 201.458 273.716 201.234 273.836C201.016 273.956 200.833 274.122 200.688 274.336C200.547 274.544 200.44 274.789 200.367 275.07C200.294 275.352 200.258 275.654 200.258 275.977ZM209.547 268.5V280.5H207.297V268.5H209.547ZM209.227 275.977H208.609C208.615 275.388 208.693 274.846 208.844 274.352C208.995 273.852 209.211 273.419 209.492 273.055C209.773 272.685 210.109 272.398 210.5 272.195C210.896 271.992 211.333 271.891 211.812 271.891C212.229 271.891 212.607 271.951 212.945 272.07C213.289 272.185 213.583 272.372 213.828 272.633C214.078 272.888 214.271 273.224 214.406 273.641C214.542 274.057 214.609 274.562 214.609 275.156V280.5H212.344V275.141C212.344 274.766 212.289 274.471 212.18 274.258C212.076 274.039 211.922 273.885 211.719 273.797C211.521 273.703 211.276 273.656 210.984 273.656C210.661 273.656 210.385 273.716 210.156 273.836C209.932 273.956 209.753 274.122 209.617 274.336C209.482 274.544 209.383 274.789 209.32 275.07C209.258 275.352 209.227 275.654 209.227 275.977ZM215.961 276.359V276.195C215.961 275.576 216.049 275.005 216.227 274.484C216.404 273.958 216.661 273.503 217 273.117C217.339 272.732 217.755 272.432 218.25 272.219C218.745 272 219.312 271.891 219.953 271.891C220.594 271.891 221.164 272 221.664 272.219C222.164 272.432 222.583 272.732 222.922 273.117C223.266 273.503 223.526 273.958 223.703 274.484C223.88 275.005 223.969 275.576 223.969 276.195V276.359C223.969 276.974 223.88 277.544 223.703 278.07C223.526 278.591 223.266 279.047 222.922 279.438C222.583 279.823 222.167 280.122 221.672 280.336C221.177 280.549 220.609 280.656 219.969 280.656C219.328 280.656 218.758 280.549 218.258 280.336C217.763 280.122 217.344 279.823 217 279.438C216.661 279.047 216.404 278.591 216.227 278.07C216.049 277.544 215.961 276.974 215.961 276.359ZM218.211 276.195V276.359C218.211 276.714 218.242 277.044 218.305 277.352C218.367 277.659 218.466 277.93 218.602 278.164C218.742 278.393 218.924 278.573 219.148 278.703C219.372 278.833 219.646 278.898 219.969 278.898C220.281 278.898 220.549 278.833 220.773 278.703C220.997 278.573 221.177 278.393 221.312 278.164C221.448 277.93 221.547 277.659 221.609 277.352C221.677 277.044 221.711 276.714 221.711 276.359V276.195C221.711 275.852 221.677 275.529 221.609 275.227C221.547 274.919 221.445 274.648 221.305 274.414C221.169 274.174 220.99 273.987 220.766 273.852C220.542 273.716 220.271 273.648 219.953 273.648C219.635 273.648 219.365 273.716 219.141 273.852C218.922 273.987 218.742 274.174 218.602 274.414C218.466 274.648 218.367 274.919 218.305 275.227C218.242 275.529 218.211 275.852 218.211 276.195Z" fill="white"/>
<rect x="47.5" y="250.5" width="264" height="49" rx="24.5" stroke="#FA9401"/>
<rect x="327.5" y="250.5" width="264" height="49" rx="24.5" fill="#444242"/>
<path d="M434.596 280.237L431.817 277.451C431.263 276.898 430.346 276.915 429.773 277.489L428.373 278.893C428.284 278.844 428.193 278.793 428.096 278.739C427.212 278.247 426.001 277.574 424.728 276.297C423.45 275.016 422.778 273.801 422.286 272.914C422.234 272.82 422.185 272.73 422.136 272.644L423.076 271.703L423.538 271.239C424.112 270.664 424.127 269.745 423.575 269.191L420.795 266.404C420.243 265.851 419.325 265.868 418.752 266.443L417.968 267.233L417.99 267.254C417.727 267.59 417.507 267.977 417.344 268.395C417.193 268.793 417.1 269.172 417.057 269.553C416.69 272.603 418.08 275.39 421.854 279.172C427.071 284.4 431.274 284.005 431.456 283.986C431.851 283.939 432.229 283.844 432.614 283.695C433.027 283.533 433.414 283.313 433.749 283.05L433.766 283.066L434.559 282.287C435.132 281.711 435.149 280.792 434.596 280.237Z" fill="white"/>
<path d="M452.758 276.727H455.094C455.047 277.492 454.836 278.172 454.461 278.766C454.091 279.359 453.573 279.823 452.906 280.156C452.245 280.49 451.448 280.656 450.516 280.656C449.786 280.656 449.133 280.531 448.555 280.281C447.977 280.026 447.482 279.661 447.07 279.188C446.664 278.714 446.354 278.141 446.141 277.469C445.927 276.797 445.82 276.044 445.82 275.211V274.422C445.82 273.589 445.93 272.836 446.148 272.164C446.372 271.487 446.69 270.911 447.102 270.438C447.518 269.964 448.016 269.599 448.594 269.344C449.172 269.089 449.818 268.961 450.531 268.961C451.479 268.961 452.279 269.133 452.93 269.477C453.586 269.82 454.094 270.294 454.453 270.898C454.818 271.503 455.036 272.19 455.109 272.961H452.766C452.74 272.503 452.648 272.115 452.492 271.797C452.336 271.474 452.099 271.232 451.781 271.07C451.469 270.904 451.052 270.82 450.531 270.82C450.141 270.82 449.799 270.893 449.508 271.039C449.216 271.185 448.971 271.406 448.773 271.703C448.576 272 448.427 272.375 448.328 272.828C448.234 273.276 448.188 273.802 448.188 274.406V275.211C448.188 275.799 448.232 276.318 448.32 276.766C448.409 277.208 448.544 277.583 448.727 277.891C448.914 278.193 449.154 278.422 449.445 278.578C449.742 278.729 450.099 278.805 450.516 278.805C451.005 278.805 451.409 278.727 451.727 278.57C452.044 278.414 452.286 278.182 452.453 277.875C452.625 277.568 452.727 277.185 452.758 276.727ZM456.133 276.359V276.195C456.133 275.576 456.221 275.005 456.398 274.484C456.576 273.958 456.833 273.503 457.172 273.117C457.51 272.732 457.927 272.432 458.422 272.219C458.917 272 459.484 271.891 460.125 271.891C460.766 271.891 461.336 272 461.836 272.219C462.336 272.432 462.755 272.732 463.094 273.117C463.438 273.503 463.698 273.958 463.875 274.484C464.052 275.005 464.141 275.576 464.141 276.195V276.359C464.141 276.974 464.052 277.544 463.875 278.07C463.698 278.591 463.438 279.047 463.094 279.438C462.755 279.823 462.339 280.122 461.844 280.336C461.349 280.549 460.781 280.656 460.141 280.656C459.5 280.656 458.93 280.549 458.43 280.336C457.935 280.122 457.516 279.823 457.172 279.438C456.833 279.047 456.576 278.591 456.398 278.07C456.221 277.544 456.133 276.974 456.133 276.359ZM458.383 276.195V276.359C458.383 276.714 458.414 277.044 458.477 277.352C458.539 277.659 458.638 277.93 458.773 278.164C458.914 278.393 459.096 278.573 459.32 278.703C459.544 278.833 459.818 278.898 460.141 278.898C460.453 278.898 460.721 278.833 460.945 278.703C461.169 278.573 461.349 278.393 461.484 278.164C461.62 277.93 461.719 277.659 461.781 277.352C461.849 277.044 461.883 276.714 461.883 276.359V276.195C461.883 275.852 461.849 275.529 461.781 275.227C461.719 274.919 461.617 274.648 461.477 274.414C461.341 274.174 461.161 273.987 460.938 273.852C460.714 273.716 460.443 273.648 460.125 273.648C459.807 273.648 459.536 273.716 459.312 273.852C459.094 273.987 458.914 274.174 458.773 274.414C458.638 274.648 458.539 274.919 458.477 275.227C458.414 275.529 458.383 275.852 458.383 276.195ZM467.727 273.852V280.5H465.477V272.047H467.586L467.727 273.852ZM467.398 275.977H466.789C466.789 275.352 466.87 274.789 467.031 274.289C467.193 273.784 467.419 273.354 467.711 273C468.003 272.641 468.349 272.367 468.75 272.18C469.156 271.987 469.609 271.891 470.109 271.891C470.505 271.891 470.867 271.948 471.195 272.062C471.523 272.177 471.805 272.359 472.039 272.609C472.279 272.859 472.461 273.19 472.586 273.602C472.716 274.013 472.781 274.516 472.781 275.109V280.5H470.516V275.102C470.516 274.727 470.464 274.435 470.359 274.227C470.255 274.018 470.102 273.872 469.898 273.789C469.701 273.701 469.456 273.656 469.164 273.656C468.862 273.656 468.599 273.716 468.375 273.836C468.156 273.956 467.974 274.122 467.828 274.336C467.688 274.544 467.581 274.789 467.508 275.07C467.435 275.352 467.398 275.654 467.398 275.977ZM478.633 272.047V273.641H473.711V272.047H478.633ZM474.93 269.961H477.18V277.953C477.18 278.198 477.211 278.385 477.273 278.516C477.341 278.646 477.44 278.737 477.57 278.789C477.701 278.836 477.865 278.859 478.062 278.859C478.203 278.859 478.328 278.854 478.438 278.844C478.552 278.828 478.648 278.812 478.727 278.797L478.734 280.453C478.542 280.516 478.333 280.565 478.109 280.602C477.885 280.638 477.638 280.656 477.367 280.656C476.872 280.656 476.44 280.576 476.07 280.414C475.706 280.247 475.424 279.982 475.227 279.617C475.029 279.253 474.93 278.773 474.93 278.18V269.961ZM484.477 278.594V274.828C484.477 274.557 484.432 274.326 484.344 274.133C484.255 273.935 484.117 273.781 483.93 273.672C483.747 273.562 483.51 273.508 483.219 273.508C482.969 273.508 482.753 273.552 482.57 273.641C482.388 273.724 482.247 273.846 482.148 274.008C482.049 274.164 482 274.349 482 274.562H479.75C479.75 274.203 479.833 273.862 480 273.539C480.167 273.216 480.409 272.932 480.727 272.688C481.044 272.438 481.422 272.242 481.859 272.102C482.302 271.961 482.797 271.891 483.344 271.891C484 271.891 484.583 272 485.094 272.219C485.604 272.438 486.005 272.766 486.297 273.203C486.594 273.641 486.742 274.188 486.742 274.844V278.461C486.742 278.924 486.771 279.305 486.828 279.602C486.885 279.893 486.969 280.148 487.078 280.367V280.5H484.805C484.695 280.271 484.612 279.984 484.555 279.641C484.503 279.292 484.477 278.943 484.477 278.594ZM484.773 275.352L484.789 276.625H483.531C483.234 276.625 482.977 276.659 482.758 276.727C482.539 276.794 482.359 276.891 482.219 277.016C482.078 277.135 481.974 277.276 481.906 277.438C481.844 277.599 481.812 277.776 481.812 277.969C481.812 278.161 481.857 278.336 481.945 278.492C482.034 278.643 482.161 278.763 482.328 278.852C482.495 278.935 482.69 278.977 482.914 278.977C483.253 278.977 483.547 278.909 483.797 278.773C484.047 278.638 484.24 278.471 484.375 278.273C484.516 278.076 484.589 277.888 484.594 277.711L485.188 278.664C485.104 278.878 484.99 279.099 484.844 279.328C484.703 279.557 484.523 279.773 484.305 279.977C484.086 280.174 483.823 280.339 483.516 280.469C483.208 280.594 482.844 280.656 482.422 280.656C481.885 280.656 481.398 280.549 480.961 280.336C480.529 280.117 480.185 279.818 479.93 279.438C479.68 279.052 479.555 278.615 479.555 278.125C479.555 277.682 479.638 277.289 479.805 276.945C479.971 276.602 480.216 276.312 480.539 276.078C480.867 275.839 481.276 275.659 481.766 275.539C482.255 275.414 482.823 275.352 483.469 275.352H484.773ZM492.617 272.047V273.641H487.695V272.047H492.617ZM488.914 269.961H491.164V277.953C491.164 278.198 491.195 278.385 491.258 278.516C491.326 278.646 491.424 278.737 491.555 278.789C491.685 278.836 491.849 278.859 492.047 278.859C492.188 278.859 492.312 278.854 492.422 278.844C492.536 278.828 492.633 278.812 492.711 278.797L492.719 280.453C492.526 280.516 492.318 280.565 492.094 280.602C491.87 280.638 491.622 280.656 491.352 280.656C490.857 280.656 490.424 280.576 490.055 280.414C489.69 280.247 489.409 279.982 489.211 279.617C489.013 279.253 488.914 278.773 488.914 278.18V269.961ZM493.336 276.359V276.195C493.336 275.576 493.424 275.005 493.602 274.484C493.779 273.958 494.036 273.503 494.375 273.117C494.714 272.732 495.13 272.432 495.625 272.219C496.12 272 496.688 271.891 497.328 271.891C497.969 271.891 498.539 272 499.039 272.219C499.539 272.432 499.958 272.732 500.297 273.117C500.641 273.503 500.901 273.958 501.078 274.484C501.255 275.005 501.344 275.576 501.344 276.195V276.359C501.344 276.974 501.255 277.544 501.078 278.07C500.901 278.591 500.641 279.047 500.297 279.438C499.958 279.823 499.542 280.122 499.047 280.336C498.552 280.549 497.984 280.656 497.344 280.656C496.703 280.656 496.133 280.549 495.633 280.336C495.138 280.122 494.719 279.823 494.375 279.438C494.036 279.047 493.779 278.591 493.602 278.07C493.424 277.544 493.336 276.974 493.336 276.359ZM495.586 276.195V276.359C495.586 276.714 495.617 277.044 495.68 277.352C495.742 277.659 495.841 277.93 495.977 278.164C496.117 278.393 496.299 278.573 496.523 278.703C496.747 278.833 497.021 278.898 497.344 278.898C497.656 278.898 497.924 278.833 498.148 278.703C498.372 278.573 498.552 278.393 498.688 278.164C498.823 277.93 498.922 277.659 498.984 277.352C499.052 277.044 499.086 276.714 499.086 276.359V276.195C499.086 275.852 499.052 275.529 498.984 275.227C498.922 274.919 498.82 274.648 498.68 274.414C498.544 274.174 498.365 273.987 498.141 273.852C497.917 273.716 497.646 273.648 497.328 273.648C497.01 273.648 496.74 273.716 496.516 273.852C496.297 273.987 496.117 274.174 495.977 274.414C495.841 274.648 495.742 274.919 495.68 275.227C495.617 275.529 495.586 275.852 495.586 276.195Z" fill="white"/>
<rect x="327.5" y="250.5" width="264" height="49" rx="24.5" stroke="#FA9401"/>
<rect x="600" y="22" width="24" height="4" rx="2" fill="white"/>
<rect x="600" y="30" width="24" height="4" rx="2" fill="white"/>
<rect x="600" y="38" width="24" height="4" rx="2" fill="white"/>
<rect x="15" y="15" width="121.333" height="34" rx="17" fill="white"/>
<path d="M29.3223 27.4688V36H28.1914V27.4688H29.3223ZM35.2109 34.7695V27H36.3008V36H35.3047L35.2109 34.7695ZM30.9453 32.9004V32.7773C30.9453 32.293 31.0039 31.8535 31.1211 31.459C31.2422 31.0605 31.4121 30.7188 31.6309 30.4336C31.8535 30.1484 32.1172 29.9297 32.4219 29.7773C32.7305 29.6211 33.0742 29.543 33.4531 29.543C33.8516 29.543 34.1992 29.6133 34.4961 29.7539C34.7969 29.8906 35.0508 30.0918 35.2578 30.3574C35.4688 30.6191 35.6348 30.9355 35.7559 31.3066C35.877 31.6777 35.9609 32.0977 36.0078 32.5664V33.1055C35.9648 33.5703 35.8809 33.9883 35.7559 34.3594C35.6348 34.7305 35.4688 35.0469 35.2578 35.3086C35.0508 35.5703 34.7969 35.7715 34.4961 35.9121C34.1953 36.0488 33.8438 36.1172 33.4414 36.1172C33.0703 36.1172 32.7305 36.0371 32.4219 35.877C32.1172 35.7168 31.8535 35.4922 31.6309 35.2031C31.4121 34.9141 31.2422 34.5742 31.1211 34.1836C31.0039 33.7891 30.9453 33.3613 30.9453 32.9004ZM32.0352 32.7773V32.9004C32.0352 33.2168 32.0664 33.5137 32.1289 33.791C32.1953 34.0684 32.2969 34.3125 32.4336 34.5234C32.5703 34.7344 32.7441 34.9004 32.9551 35.0215C33.166 35.1387 33.418 35.1973 33.7109 35.1973C34.0703 35.1973 34.3652 35.1211 34.5957 34.9688C34.8301 34.8164 35.0176 34.6152 35.1582 34.3652C35.2988 34.1152 35.4082 33.8438 35.4863 33.5508V32.1387C35.4395 31.9238 35.3711 31.7168 35.2812 31.5176C35.1953 31.3145 35.082 31.1348 34.9414 30.9785C34.8047 30.8184 34.6348 30.6914 34.4316 30.5977C34.2324 30.5039 33.9961 30.457 33.7227 30.457C33.4258 30.457 33.1699 30.5195 32.9551 30.6445C32.7441 30.7656 32.5703 30.9336 32.4336 31.1484C32.2969 31.3594 32.1953 31.6055 32.1289 31.8867C32.0664 32.1641 32.0352 32.4609 32.0352 32.7773ZM39.166 29.6602V36H38.0762V29.6602H39.166ZM37.9941 27.9785C37.9941 27.8027 38.0469 27.6543 38.1523 27.5332C38.2617 27.4121 38.4219 27.3516 38.6328 27.3516C38.8398 27.3516 38.998 27.4121 39.1074 27.5332C39.2207 27.6543 39.2773 27.8027 39.2773 27.9785C39.2773 28.1465 39.2207 28.291 39.1074 28.4121C38.998 28.5293 38.8398 28.5879 38.6328 28.5879C38.4219 28.5879 38.2617 28.5293 38.1523 28.4121C38.0469 28.291 37.9941 28.1465 37.9941 27.9785ZM40.6191 32.9004V32.7656C40.6191 32.3086 40.6855 31.8848 40.8184 31.4941C40.9512 31.0996 41.1426 30.7578 41.3926 30.4688C41.6426 30.1758 41.9453 29.9492 42.3008 29.7891C42.6562 29.625 43.0547 29.543 43.4961 29.543C43.9414 29.543 44.3418 29.625 44.6973 29.7891C45.0566 29.9492 45.3613 30.1758 45.6113 30.4688C45.8652 30.7578 46.0586 31.0996 46.1914 31.4941C46.3242 31.8848 46.3906 32.3086 46.3906 32.7656V32.9004C46.3906 33.3574 46.3242 33.7812 46.1914 34.1719C46.0586 34.5625 45.8652 34.9043 45.6113 35.1973C45.3613 35.4863 45.0586 35.7129 44.7031 35.877C44.3516 36.0371 43.9531 36.1172 43.5078 36.1172C43.0625 36.1172 42.6621 36.0371 42.3066 35.877C41.9512 35.7129 41.6465 35.4863 41.3926 35.1973C41.1426 34.9043 40.9512 34.5625 40.8184 34.1719C40.6855 33.7812 40.6191 33.3574 40.6191 32.9004ZM41.7031 32.7656V32.9004C41.7031 33.2168 41.7402 33.5156 41.8145 33.7969C41.8887 34.0742 42 34.3203 42.1484 34.5352C42.3008 34.75 42.4902 34.9199 42.7168 35.0449C42.9434 35.166 43.207 35.2266 43.5078 35.2266C43.8047 35.2266 44.0645 35.166 44.2871 35.0449C44.5137 34.9199 44.7012 34.75 44.8496 34.5352C44.998 34.3203 45.1094 34.0742 45.1836 33.7969C45.2617 33.5156 45.3008 33.2168 45.3008 32.9004V32.7656C45.3008 32.4531 45.2617 32.1582 45.1836 31.8809C45.1094 31.5996 44.9961 31.3516 44.8438 31.1367C44.6953 30.918 44.5078 30.7461 44.2812 30.6211C44.0586 30.4961 43.7969 30.4336 43.4961 30.4336C43.1992 30.4336 42.9375 30.4961 42.7109 30.6211C42.4883 30.7461 42.3008 30.918 42.1484 31.1367C42 31.3516 41.8887 31.5996 41.8145 31.8809C41.7402 32.1582 41.7031 32.4531 41.7031 32.7656ZM48.8281 30.9199V36H47.7383V29.6602H48.7695L48.8281 30.9199ZM48.6055 32.5898L48.1016 32.5723C48.1055 32.1387 48.1621 31.7383 48.2715 31.3711C48.3809 31 48.543 30.6777 48.7578 30.4043C48.9727 30.1309 49.2402 29.9199 49.5605 29.7715C49.8809 29.6191 50.252 29.543 50.6738 29.543C50.9707 29.543 51.2441 29.5859 51.4941 29.6719C51.7441 29.7539 51.9609 29.8848 52.1445 30.0645C52.3281 30.2441 52.4707 30.4746 52.5723 30.7559C52.6738 31.0371 52.7246 31.377 52.7246 31.7754V36H51.6406V31.8281C51.6406 31.4961 51.584 31.2305 51.4707 31.0312C51.3613 30.832 51.2051 30.6875 51.002 30.5977C50.7988 30.5039 50.5605 30.457 50.2871 30.457C49.9668 30.457 49.6992 30.5137 49.4844 30.627C49.2695 30.7402 49.0977 30.8965 48.9688 31.0957C48.8398 31.2949 48.7461 31.5234 48.6875 31.7812C48.6328 32.0352 48.6055 32.3047 48.6055 32.5898ZM52.7129 31.9922L51.9863 32.2148C51.9902 31.8672 52.0469 31.5332 52.1562 31.2129C52.2695 30.8926 52.4316 30.6074 52.6426 30.3574C52.8574 30.1074 53.1211 29.9102 53.4336 29.7656C53.7461 29.6172 54.1035 29.543 54.5059 29.543C54.8457 29.543 55.1465 29.5879 55.4082 29.6777C55.6738 29.7676 55.8965 29.9062 56.0762 30.0938C56.2598 30.2773 56.3984 30.5137 56.4922 30.8027C56.5859 31.0918 56.6328 31.4355 56.6328 31.834V36H55.543V31.8223C55.543 31.4668 55.4863 31.1914 55.373 30.9961C55.2637 30.7969 55.1074 30.6582 54.9043 30.5801C54.7051 30.498 54.4668 30.457 54.1895 30.457C53.9512 30.457 53.7402 30.498 53.5566 30.5801C53.373 30.6621 53.2188 30.7754 53.0938 30.9199C52.9688 31.0605 52.873 31.2227 52.8066 31.4062C52.7441 31.5898 52.7129 31.7852 52.7129 31.9922ZM62.0117 34.916V31.6523C62.0117 31.4023 61.9609 31.1855 61.8594 31.002C61.7617 30.8145 61.6133 30.6699 61.4141 30.5684C61.2148 30.4668 60.9688 30.416 60.6758 30.416C60.4023 30.416 60.1621 30.4629 59.9551 30.5566C59.752 30.6504 59.5918 30.7734 59.4746 30.9258C59.3613 31.0781 59.3047 31.2422 59.3047 31.418H58.2207C58.2207 31.1914 58.2793 30.9668 58.3965 30.7441C58.5137 30.5215 58.6816 30.3203 58.9004 30.1406C59.123 29.957 59.3887 29.8125 59.6973 29.707C60.0098 29.5977 60.3574 29.543 60.7402 29.543C61.2012 29.543 61.6074 29.6211 61.959 29.7773C62.3145 29.9336 62.5918 30.1699 62.791 30.4863C62.9941 30.7988 63.0957 31.1914 63.0957 31.6641V34.6172C63.0957 34.8281 63.1133 35.0527 63.1484 35.291C63.1875 35.5293 63.2441 35.7344 63.3184 35.9062V36H62.1875C62.1328 35.875 62.0898 35.709 62.0586 35.502C62.0273 35.291 62.0117 35.0957 62.0117 34.916ZM62.1992 32.1562L62.2109 32.918H61.1152C60.8066 32.918 60.5312 32.9434 60.2891 32.9941C60.0469 33.041 59.8438 33.1133 59.6797 33.2109C59.5156 33.3086 59.3906 33.4316 59.3047 33.5801C59.2188 33.7246 59.1758 33.8945 59.1758 34.0898C59.1758 34.2891 59.2207 34.4707 59.3105 34.6348C59.4004 34.7988 59.5352 34.9297 59.7148 35.0273C59.8984 35.1211 60.123 35.168 60.3887 35.168C60.7207 35.168 61.0137 35.0977 61.2676 34.957C61.5215 34.8164 61.7227 34.6445 61.8711 34.4414C62.0234 34.2383 62.1055 34.041 62.1172 33.8496L62.5801 34.3711C62.5527 34.5352 62.4785 34.7168 62.3574 34.916C62.2363 35.1152 62.0742 35.3066 61.8711 35.4902C61.6719 35.6699 61.4336 35.8203 61.1562 35.9414C60.8828 36.0586 60.5742 36.1172 60.2305 36.1172C59.8008 36.1172 59.4238 36.0332 59.0996 35.8652C58.7793 35.6973 58.5293 35.4727 58.3496 35.1914C58.1738 34.9062 58.0859 34.5879 58.0859 34.2363C58.0859 33.8965 58.1523 33.5977 58.2852 33.3398C58.418 33.0781 58.6094 32.8613 58.8594 32.6895C59.1094 32.5137 59.4102 32.3809 59.7617 32.291C60.1133 32.2012 60.5059 32.1562 60.9395 32.1562H62.1992ZM64.7539 35.4258C64.7539 35.2422 64.8105 35.0879 64.9238 34.9629C65.041 34.834 65.209 34.7695 65.4277 34.7695C65.6465 34.7695 65.8125 34.834 65.9258 34.9629C66.043 35.0879 66.1016 35.2422 66.1016 35.4258C66.1016 35.6055 66.043 35.7578 65.9258 35.8828C65.8125 36.0078 65.6465 36.0703 65.4277 36.0703C65.209 36.0703 65.041 36.0078 64.9238 35.8828C64.8105 35.7578 64.7539 35.6055 64.7539 35.4258ZM64.7598 30.252C64.7598 30.0684 64.8164 29.9141 64.9297 29.7891C65.0469 29.6602 65.2148 29.5957 65.4336 29.5957C65.6523 29.5957 65.8184 29.6602 65.9316 29.7891C66.0488 29.9141 66.1074 30.0684 66.1074 30.252C66.1074 30.4316 66.0488 30.584 65.9316 30.709C65.8184 30.834 65.6523 30.8965 65.4336 30.8965C65.2148 30.8965 65.0469 30.834 64.9297 30.709C64.8164 30.584 64.7598 30.4316 64.7598 30.252Z" fill="#444242"/>
<g clip-path="url(#clip0_4523_651)">
<path d="M89 44C95.6274 44 101 38.6274 101 32C101 25.3726 95.6274 20 89 20C82.3726 20 77 25.3726 77 32C77 38.6274 82.3726 44 89 44Z" fill="#6DA544"/>
<path d="M89.0001 24.6958L98.9131 32.0001L89.0001 39.3045L79.087 32.0001L89.0001 24.6958Z" fill="#FFDA44"/>
<path d="M88.9999 36.174C91.3051 36.174 93.1738 34.3052 93.1738 32.0001C93.1738 29.6949 91.3051 27.8262 88.9999 27.8262C86.6948 27.8262 84.826 29.6949 84.826 32.0001C84.826 34.3052 86.6948 36.174 88.9999 36.174Z" fill="#F0F0F0"/>
<path d="M86.9131 31.7393C86.1873 31.7393 85.4869 31.8496 84.8275 32.0545C84.8567 34.3345 86.7132 36.1741 89.0001 36.1741C90.4142 36.1741 91.6632 35.4701 92.4182 34.3943C91.1264 32.7773 89.1389 31.7393 86.9131 31.7393Z" fill="#0052B4"/>
<path d="M93.0965 32.7998C93.1468 32.5408 93.1739 32.2737 93.1739 32.0001C93.1739 29.6948 91.3052 27.8262 89 27.8262C87.28 27.8262 85.8034 28.8668 85.1644 30.3527C85.7293 30.2356 86.3141 30.174 86.9131 30.174C89.3373 30.174 91.5304 31.1817 93.0965 32.7998Z" fill="#0052B4"/>
</g>
<path d="M120.84 29.9179L120.513 29.6387C120.41 29.5515 120.272 29.5034 120.126 29.5034C119.979 29.5034 119.842 29.5515 119.739 29.6387L116.002 32.8019L112.261 29.6352C112.158 29.548 112.021 29.5 111.875 29.5C111.728 29.5 111.591 29.548 111.488 29.6352L111.16 29.9127C110.947 30.0931 110.947 30.3871 111.16 30.5675L115.614 34.3515C115.717 34.4386 115.854 34.5 116.002 34.5H116.004C116.15 34.5 116.287 34.4385 116.39 34.3515L120.84 30.5778C120.943 30.4906 121 30.371 121 30.247C121 30.1229 120.943 30.005 120.84 29.9179Z" fill="#444242"/>
<defs>
<clipPath id="clip0_4523_651">
<rect width="24" height="24" fill="white" transform="translate(77 20)"/>
</clipPath>
</defs>
</svg>
