<svg width="360" height="640" viewBox="0 0 360 640" fill="none" xmlns="http://www.w3.org/2000/svg">
<rect width="360" height="640" fill="#444242"/>
<circle cx="135" cy="608" r="15" fill="white"/>
<path d="M134.791 617.681C140.253 617.681 144.681 613.253 144.681 607.792C144.681 602.33 140.253 597.902 134.791 597.902C129.33 597.902 124.902 602.33 124.902 607.792C124.902 613.253 129.33 617.681 134.791 617.681Z" stroke="#F07D00" stroke-width="1.5" stroke-linecap="round" stroke-linejoin="round"/>
<path d="M126.221 604.495H143.362" stroke="#F07D00" stroke-width="1.5" stroke-linecap="round" stroke-linejoin="round"/>
<path d="M126.221 611.088H143.362" stroke="#F07D00" stroke-width="1.5" stroke-linecap="round" stroke-linejoin="round"/>
<path d="M134.132 597.902C132.409 600.869 131.495 604.295 131.495 607.792C131.495 611.288 132.409 614.715 134.132 617.681" stroke="#F07D00" stroke-width="1.5" stroke-linecap="round" stroke-linejoin="round"/>
<path d="M135.451 597.902C137.174 600.869 138.088 604.295 138.088 607.792C138.088 611.288 137.174 614.715 135.451 617.681" stroke="#F07D00" stroke-width="1.5" stroke-linecap="round" stroke-linejoin="round"/>
<circle cx="180" cy="608" r="15" fill="white"/>
<path d="M184.779 602.84V599.623L181.605 599.593C180.263 599.593 178.331 601.284 178.331 603.203V606.655H175.549V610.311H178.3V619.371H181.539V610.254H184.41L184.777 606.684H181.578V604.064C181.571 603.742 181.68 603.429 181.881 603.196C182.081 602.962 182.358 602.826 182.649 602.817C183.078 602.822 184.779 602.84 184.779 602.84Z" fill="#F07D00"/>
<circle cx="225" cy="608" r="15" fill="white"/>
<path fill-rule="evenodd" clip-rule="evenodd" d="M234.993 612.241C234.946 613.294 234.778 614.012 234.534 614.641C234.02 615.97 232.97 617.02 231.641 617.534C231.013 617.778 230.294 617.945 229.241 617.993C228.187 618.041 227.85 618.053 225.164 618.053C222.478 618.053 222.141 618.041 221.087 617.993C220.034 617.945 219.315 617.778 218.686 617.534C218.026 617.285 217.428 616.896 216.934 616.393C216.431 615.899 216.042 615.301 215.794 614.641C215.55 614.013 215.382 613.294 215.334 612.241C215.286 611.186 215.274 610.849 215.274 608.164C215.274 605.478 215.286 605.141 215.334 604.087C215.382 603.034 215.549 602.315 215.793 601.686C216.042 601.026 216.431 600.428 216.934 599.934C217.428 599.431 218.026 599.042 218.686 598.794C219.315 598.549 220.034 598.382 221.087 598.334C222.141 598.286 222.478 598.274 225.164 598.274C227.849 598.274 228.186 598.286 229.241 598.334C230.294 598.382 231.012 598.549 231.641 598.793C232.301 599.042 232.899 599.431 233.393 599.934C233.896 600.428 234.286 601.026 234.534 601.686C234.778 602.315 234.946 603.034 234.994 604.087C235.042 605.141 235.053 605.478 235.053 608.164C235.053 610.849 235.042 611.186 234.993 612.241ZM232.133 601.194C232.462 601.513 232.714 601.902 232.873 602.331C233.008 602.68 233.17 603.204 233.213 604.168C233.261 605.21 233.271 605.523 233.271 608.164C233.271 610.804 233.261 611.117 233.213 612.16C233.169 613.124 233.008 613.648 232.873 613.996C232.54 614.859 231.859 615.54 230.996 615.873C230.648 616.009 230.124 616.17 229.16 616.214C228.117 616.261 227.804 616.271 225.163 616.271C222.523 616.271 222.21 616.261 221.167 616.214C220.203 616.17 219.68 616.009 219.331 615.873C218.901 615.715 218.513 615.462 218.194 615.133C217.866 614.814 217.613 614.426 217.454 613.996C217.319 613.648 217.158 613.124 217.114 612.16C217.066 611.117 217.056 610.804 217.056 608.164C217.056 605.523 217.066 605.21 217.114 604.168C217.158 603.204 217.319 602.68 217.454 602.331C217.613 601.902 217.866 601.513 218.194 601.194C218.513 600.866 218.902 600.613 219.331 600.455C219.68 600.319 220.203 600.158 221.167 600.114C222.21 600.066 222.523 600.056 225.164 600.056C227.804 600.056 228.117 600.067 229.16 600.114C230.124 600.158 230.648 600.319 230.996 600.455C231.426 600.613 231.814 600.866 232.133 601.194Z" fill="#F07D00"/>
<path fill-rule="evenodd" clip-rule="evenodd" d="M225.164 613.242C222.359 613.242 220.085 610.968 220.085 608.164C220.085 605.359 222.359 603.086 225.164 603.086C227.968 603.086 230.242 605.359 230.242 608.164C230.242 610.968 227.968 613.242 225.164 613.242ZM225.164 611.46C226.984 611.46 228.46 609.984 228.46 608.164C228.46 606.343 226.984 604.867 225.164 604.867C223.343 604.867 221.867 606.343 221.867 608.164C221.867 609.984 223.343 611.46 225.164 611.46Z" fill="#F07D00"/>
<path d="M230.443 604.072C229.787 604.072 229.256 603.54 229.256 602.885C229.256 602.229 229.787 601.698 230.443 601.698C231.098 601.698 231.629 602.229 231.629 602.885C231.629 603.54 231.098 604.072 230.443 604.072Z" fill="#F07D00"/>
<path d="M130.853 135.776C132.064 135.776 132.972 136.155 133.577 136.836C134.183 137.517 134.41 138.349 134.41 139.408C134.41 140.467 134.107 141.3 133.501 142.056C132.896 142.813 131.988 143.191 130.777 143.191C129.642 143.191 128.733 142.813 128.204 142.056C127.674 141.3 127.371 140.392 127.371 139.408C127.371 138.349 127.674 137.517 128.204 136.836C128.809 136.155 129.717 135.776 130.853 135.776ZM133.956 148.941V190.252H127.977V148.941H133.956Z" fill="white"/>
<path d="M160.974 135.171V190.252H156.887L155.903 187.68C154.844 188.663 153.709 189.42 152.422 189.95C151.135 190.479 149.773 190.782 148.411 190.782C147.276 190.782 146.216 190.555 145.157 190.177C144.097 189.798 143.189 189.117 142.432 188.285C141.675 187.453 141.07 186.394 140.54 185.183C140.086 183.972 139.859 182.459 139.859 180.795V158.399C139.859 156.734 140.086 155.297 140.54 154.011C140.994 152.724 141.599 151.665 142.432 150.833C143.189 150.001 144.097 149.395 145.157 148.941C146.216 148.563 147.276 148.336 148.411 148.336C149.546 148.336 150.757 148.563 151.892 148.941C153.027 149.32 154.087 149.925 155.071 150.681V136.684L160.974 135.171ZM145.838 179.508C145.838 181.249 146.14 182.535 146.822 183.443C147.503 184.351 148.562 184.805 150 184.805C151.817 184.805 153.482 184.048 154.919 182.459V156.734C153.406 155.145 151.817 154.389 150 154.389C148.487 154.389 147.427 154.843 146.822 155.751C146.14 156.659 145.838 158.021 145.838 159.685V179.508Z" fill="white"/>
<path d="M180.424 171.715C179.516 172.548 178.381 173.38 177.094 174.288C175.808 175.196 174.37 176.179 172.705 177.239V180.568C172.705 182.005 173.083 183.064 173.916 183.821C174.748 184.578 175.732 184.956 177.019 184.956C178.305 184.956 179.365 184.578 180.197 183.821C181.03 183.064 181.408 182.005 181.408 180.568V177.92L186.857 176.482V180.719C186.857 182.308 186.63 183.67 186.1 184.88C185.571 186.091 184.889 187.15 183.906 188.058C182.997 188.966 181.938 189.571 180.727 190.025C179.516 190.479 178.229 190.706 176.792 190.706C175.354 190.706 174.067 190.479 172.932 190.025C171.721 189.571 170.661 188.89 169.753 188.058C168.845 187.15 168.164 186.167 167.634 184.88C167.104 183.67 166.877 182.232 166.877 180.719V158.399C166.877 156.886 167.104 155.448 167.634 154.238C168.164 153.027 168.845 151.968 169.753 151.06C170.661 150.152 171.721 149.547 172.932 149.093C174.143 148.639 175.429 148.412 176.867 148.412C178.078 148.412 179.289 148.563 180.5 148.941C181.711 149.32 182.77 149.925 183.754 150.757C184.662 151.589 185.495 152.724 186.1 154.086C186.706 155.448 187.009 157.188 187.009 159.231C187.009 161.804 186.479 164.074 185.419 165.965C184.36 167.932 182.695 169.824 180.424 171.715ZM172.705 171.413C174.748 170.126 176.262 168.916 177.397 167.932C178.759 166.646 179.819 165.36 180.349 164.074C180.954 162.787 181.257 161.35 181.257 159.685C181.257 157.491 180.803 156.053 179.97 155.221C179.062 154.389 178.078 153.935 176.867 153.935C175.581 153.935 174.521 154.389 173.84 155.221C173.083 156.053 172.78 157.188 172.78 158.702V171.413H172.705Z" fill="white"/>
<path d="M195.485 135.776C196.696 135.776 197.604 136.155 198.21 136.836C198.815 137.517 199.118 138.425 199.118 139.408C199.118 140.467 198.815 141.3 198.21 142.056C197.604 142.813 196.696 143.191 195.485 143.191C194.35 143.191 193.442 142.813 192.912 142.056C192.382 141.3 192.079 140.392 192.079 139.408C192.079 138.349 192.382 137.517 192.912 136.836C193.442 136.155 194.274 135.776 195.485 135.776ZM198.588 148.941V190.252H192.609V148.941H198.588Z" fill="white"/>
<path d="M205.248 153.027C206.232 151.589 207.594 150.454 209.335 149.622C211.075 148.79 212.892 148.412 214.86 148.412C218.114 148.412 220.611 149.471 222.201 151.589C223.79 153.708 224.622 156.356 224.622 159.685V190.252H220.838L219.779 187.982C218.719 188.815 217.584 189.496 216.297 190.025C215.011 190.555 213.649 190.782 212.211 190.782C211.075 190.782 210.016 190.555 208.956 190.177C207.897 189.798 206.989 189.193 206.156 188.361C205.324 187.528 204.718 186.469 204.264 185.107C203.81 183.745 203.583 182.081 203.583 180.114C203.583 178.6 203.734 177.163 204.037 175.952C204.34 174.666 204.869 173.531 205.551 172.396C206.232 171.261 207.14 170.202 208.199 169.067C209.259 168.008 210.546 166.873 212.059 165.738C213.043 164.981 214.103 164.225 215.314 163.468C216.449 162.712 217.735 161.879 219.022 161.047V159.761C219.022 158.021 218.644 156.659 217.811 155.599C216.979 154.54 215.768 154.011 214.103 154.011C212.967 154.011 211.908 154.313 210.924 154.843C210.016 155.372 209.183 156.205 208.654 157.188L205.248 153.027ZM213.951 185.107C214.86 185.107 215.768 184.88 216.6 184.502C217.433 184.124 218.19 183.518 218.946 182.762V166.873C218.114 167.403 217.433 167.857 216.752 168.235C216.146 168.689 215.541 169.067 214.935 169.521C212.816 171.186 211.378 172.775 210.621 174.288C209.864 175.801 209.486 177.466 209.486 179.13C209.486 181.249 209.864 182.762 210.697 183.67C211.529 184.578 212.665 185.107 213.951 185.107Z" fill="white"/>
<path d="M237.564 147.428C240.062 147.428 242.105 148.185 243.619 149.622C245.132 151.06 245.889 153.481 245.889 156.735C245.889 158.248 245.738 159.534 245.359 160.593C245.057 161.653 244.527 162.712 243.921 163.847C243.467 164.603 242.938 165.511 242.256 166.419C241.575 167.403 240.97 168.311 240.213 169.37C239.532 170.354 238.851 171.337 238.17 172.321C237.488 173.304 236.883 174.212 236.353 175.045C235.975 175.726 235.672 176.255 235.369 176.785C235.142 177.314 234.915 177.844 234.764 178.298C234.613 178.828 234.537 179.357 234.461 179.887C234.385 180.492 234.386 181.173 234.386 181.93V185.41H245.813V190.253H229.466V181.93C229.466 180.568 229.618 179.206 229.92 177.844C230.223 176.482 230.753 175.12 231.585 173.607C232.039 172.85 232.645 171.942 233.326 170.959C234.007 169.975 234.688 168.992 235.445 168.008C236.126 167.024 236.883 166.041 237.564 165.057C238.245 164.074 238.851 163.166 239.305 162.409C239.91 161.35 240.364 160.366 240.591 159.383C240.818 158.475 240.97 157.491 240.97 156.508C240.97 154.919 240.667 153.784 240.062 153.103C239.456 152.422 238.548 152.119 237.413 152.119C236.202 152.119 235.294 152.422 234.688 153.027C234.007 153.632 233.704 154.54 233.704 155.751V157.037H229.163V155.675C229.163 153.103 229.92 151.06 231.358 149.547C232.796 148.185 234.915 147.428 237.564 147.428Z" fill="#FA9401"/>
<path d="M266.626 182.535C266.626 183.897 266.399 185.032 265.945 186.091C265.491 187.15 264.885 187.983 264.128 188.739C263.372 189.496 262.388 190.025 261.328 190.404C260.269 190.782 259.133 190.933 257.998 190.933C256.787 190.933 255.652 190.782 254.593 190.404C253.533 190.025 252.625 189.496 251.868 188.739C251.111 187.983 250.506 187.15 250.052 186.091C249.598 185.032 249.37 183.897 249.37 182.535V155.827C249.37 154.465 249.598 153.33 250.052 152.271C250.506 151.211 251.111 150.379 251.868 149.622C252.625 148.941 253.533 148.336 254.593 147.958C255.652 147.58 256.787 147.353 257.998 147.353C259.209 147.353 260.269 147.58 261.328 147.958C262.388 148.336 263.296 148.941 264.128 149.622C264.885 150.303 265.566 151.211 265.945 152.271C266.399 153.33 266.626 154.465 266.626 155.827V182.535ZM254.214 182.459C254.214 183.67 254.593 184.578 255.274 185.259C255.955 185.864 256.863 186.167 257.998 186.167C259.133 186.167 260.042 185.864 260.723 185.259C261.404 184.654 261.782 183.746 261.782 182.459V155.902C261.782 154.692 261.404 153.784 260.723 153.103C260.042 152.498 259.133 152.195 257.998 152.195C256.863 152.195 255.955 152.498 255.274 153.103C254.593 153.708 254.214 154.616 254.214 155.902V182.459Z" fill="#FA9401"/>
<path d="M288.347 182.535C288.347 183.897 288.12 185.032 287.666 186.091C287.212 187.15 286.606 187.983 285.849 188.739C285.092 189.496 284.109 190.025 283.049 190.404C281.99 190.782 280.854 190.933 279.719 190.933C278.508 190.933 277.373 190.782 276.313 190.404C275.254 190.025 274.346 189.496 273.589 188.739C272.832 187.983 272.227 187.15 271.772 186.091C271.318 185.032 271.091 183.897 271.091 182.535V155.827C271.091 154.465 271.318 153.33 271.772 152.271C272.227 151.211 272.832 150.379 273.589 149.622C274.346 148.941 275.254 148.336 276.313 147.958C277.373 147.58 278.508 147.353 279.719 147.353C280.93 147.353 281.99 147.58 283.049 147.958C284.109 148.336 285.017 148.941 285.849 149.622C286.606 150.303 287.287 151.211 287.666 152.271C288.12 153.33 288.347 154.465 288.347 155.827V182.535ZM275.935 182.459C275.935 183.67 276.313 184.578 276.995 185.259C277.676 185.864 278.584 186.167 279.719 186.167C280.854 186.167 281.762 185.864 282.444 185.259C283.125 184.654 283.503 183.746 283.503 182.459V155.902C283.503 154.692 283.125 153.784 282.444 153.103C281.762 152.498 280.854 152.195 279.719 152.195C278.584 152.195 277.676 152.498 276.995 153.103C276.313 153.708 275.935 154.616 275.935 155.902V182.459Z" fill="#FA9401"/>
<path d="M293.417 151.665C294.326 151.665 294.931 151.362 295.309 150.757C295.688 150.152 295.839 149.244 295.839 148.185H300.759V190.252H295.839V155.826H291.298V151.665H293.417Z" fill="#FA9401"/>
<path d="M135.091 205.839C134.637 206.066 133.653 206.368 132.291 206.368C129.49 206.368 127.674 204.477 127.674 201.904C127.674 199.181 129.642 197.213 132.593 197.213C133.653 197.213 134.561 197.516 135.015 197.743L134.637 198.954C134.334 198.802 133.653 198.575 132.669 198.575C130.55 198.575 129.339 200.013 129.339 201.829C129.339 203.872 130.777 205.082 132.593 205.082C133.577 205.082 134.258 204.78 134.788 204.628L135.091 205.839Z" fill="white"/>
<path d="M143.492 204.099C143.492 204.855 143.492 205.612 143.643 206.217H142.205L142.054 205.082H141.978C141.524 205.763 140.464 206.444 139.102 206.444C137.21 206.444 136.302 205.082 136.302 203.947C136.302 201.829 138.118 200.618 141.902 200.694V200.543C141.902 200.013 141.751 198.5 139.783 198.5C138.875 198.5 137.967 198.802 137.286 199.256L136.907 198.197C137.74 197.667 138.799 197.365 140.01 197.365C142.886 197.365 143.492 199.408 143.492 201.072V204.099ZM141.978 201.753C140.01 201.677 137.967 202.056 137.967 203.645C137.967 204.628 138.648 205.158 139.556 205.158C140.843 205.158 141.6 204.326 141.902 203.645C141.978 203.493 141.978 203.266 141.978 203.115V201.753V201.753Z" fill="white"/>
<path d="M148.108 195.397V197.516H150.53V198.727H148.108V203.266C148.108 204.325 148.411 205.082 149.395 205.082C149.849 205.082 150.152 205.006 150.379 204.931L150.454 206.141C150.152 206.293 149.622 206.368 148.941 206.368C148.184 206.368 147.578 206.066 147.2 205.612C146.746 205.082 146.594 204.25 146.594 203.342V198.651H145.232V197.44H146.594V195.776L148.108 195.397Z" fill="white"/>
<path d="M158.931 204.098C158.931 204.855 158.931 205.612 159.082 206.217H157.644L157.493 205.082H157.417C156.963 205.763 155.903 206.444 154.541 206.444C152.649 206.444 151.741 205.082 151.741 203.947C151.741 201.829 153.557 200.618 157.341 200.694V200.542C157.341 200.013 157.19 198.5 155.222 198.5C154.314 198.5 153.406 198.802 152.725 199.256L152.346 198.197C153.179 197.667 154.238 197.365 155.449 197.365C158.325 197.365 158.931 199.407 158.931 201.072V204.098ZM157.341 201.753C155.374 201.677 153.33 202.056 153.33 203.645C153.33 204.628 154.011 205.158 154.919 205.158C156.206 205.158 156.963 204.325 157.266 203.645C157.341 203.493 157.341 203.266 157.341 203.115V201.753ZM158.022 193.657L155.752 196.305H154.617L156.206 193.657H158.022Z" fill="white"/>
<path d="M161.579 193.354H163.169V206.217H161.579V193.354Z" fill="white"/>
<path d="M169.753 206.444C167.18 206.444 165.212 204.628 165.212 201.98C165.212 199.105 167.256 197.289 169.829 197.289C172.553 197.289 174.37 199.181 174.37 201.753C174.445 204.931 172.024 206.444 169.753 206.444ZM169.829 205.234C171.418 205.234 172.78 204.023 172.78 201.829C172.78 200.316 171.872 198.5 169.829 198.5C167.785 198.5 166.877 200.164 166.877 201.904C166.877 203.947 168.24 205.234 169.829 205.234Z" fill="white"/>
<path d="M184.435 204.855C184.435 206.747 183.981 208.109 183.073 208.941C182.165 209.773 180.803 210 179.743 210C178.608 210 177.397 209.697 176.64 209.168L177.019 207.882C177.624 208.26 178.608 208.638 179.819 208.638C181.56 208.638 182.846 207.73 182.846 205.46V204.477C182.316 205.309 181.333 206.066 179.819 206.066C177.473 206.066 175.883 204.174 175.883 201.829C175.883 198.954 177.927 197.213 180.046 197.213C181.711 197.213 182.619 198.046 183.073 198.878L183.149 197.44H184.587C184.511 198.046 184.511 198.727 184.511 199.71V204.855H184.435ZM182.846 201.072C182.846 200.769 182.846 200.542 182.77 200.315C182.468 199.256 181.56 198.5 180.273 198.5C178.684 198.5 177.397 199.786 177.397 201.829C177.397 203.342 178.305 204.931 180.197 204.931C181.333 204.931 182.316 204.174 182.619 203.191C182.695 202.964 182.77 202.585 182.77 202.358V201.072H182.846Z" fill="white"/>
<path d="M191.02 206.444C188.447 206.444 186.479 204.628 186.479 201.98C186.479 199.105 188.522 197.289 191.095 197.289C193.82 197.289 195.636 199.181 195.636 201.753C195.712 204.931 193.29 206.444 191.02 206.444ZM191.095 205.234C192.685 205.234 194.047 204.023 194.047 201.829C194.047 200.316 193.139 198.5 191.095 198.5C189.052 198.5 188.144 200.164 188.144 201.904C188.144 203.947 189.506 205.234 191.095 205.234Z" fill="white"/>
<path d="M197.604 204.553C198.134 204.855 199.042 205.234 199.875 205.234C201.086 205.234 201.615 204.628 201.615 203.947C201.615 203.191 201.086 202.812 199.875 202.434C198.21 201.904 197.453 200.996 197.453 199.937C197.453 198.5 198.588 197.365 200.556 197.365C201.464 197.365 202.296 197.592 202.826 197.97L202.448 199.181C202.145 198.954 201.388 198.651 200.48 198.651C199.496 198.651 198.966 199.181 198.966 199.862C198.966 200.618 199.572 200.921 200.783 201.299C202.448 201.829 203.129 202.585 203.129 203.872C203.129 205.309 201.994 206.52 199.723 206.52C198.739 206.52 197.755 206.217 197.15 205.839L197.604 204.553Z" fill="white"/>
<path d="M210.167 196.003C209.562 196.003 209.183 195.549 209.183 195.019C209.183 194.49 209.562 194.036 210.167 194.036C210.773 194.036 211.151 194.49 211.151 195.019C211.227 195.549 210.848 196.003 210.167 196.003ZM209.411 206.217V197.516H211V206.217H209.411Z" fill="white"/>
<path d="M213.8 199.937C213.8 199.029 213.8 198.273 213.724 197.516H215.162L215.238 199.029H215.314C215.768 198.197 216.827 197.289 218.417 197.289C219.552 197.289 221.671 197.97 221.671 201.223V206.217H220.082V201.375C220.082 199.862 219.476 198.651 217.887 198.651C216.752 198.651 215.843 199.483 215.541 200.316C215.465 200.542 215.389 200.769 215.389 201.072V206.217H213.8V199.937V199.937Z" fill="white"/>
<path d="M226.288 195.397V197.516H228.709V198.727H226.288V203.266C226.288 204.325 226.59 205.082 227.574 205.082C228.028 205.082 228.331 205.006 228.558 204.931L228.634 206.141C228.331 206.293 227.801 206.368 227.12 206.368C226.363 206.368 225.758 206.066 225.379 205.612C224.925 205.082 224.774 204.25 224.774 203.342V198.651H223.412V197.44H224.774V195.776L226.288 195.397Z" fill="white"/>
<path d="M231.358 202.207C231.358 204.174 232.796 205.158 234.537 205.158C235.823 205.158 236.58 204.931 237.186 204.704L237.488 205.839C236.959 206.066 235.899 206.444 234.31 206.444C231.51 206.444 229.769 204.628 229.769 202.056C229.769 199.483 231.434 197.289 234.158 197.289C237.261 197.289 238.018 200.013 238.018 201.45C238.018 201.753 238.018 201.98 237.943 202.207H231.358V202.207ZM236.505 201.072C236.505 200.316 236.202 198.5 234.083 198.5C232.266 198.5 231.51 200.013 231.358 201.072H236.505Z" fill="white"/>
<path d="M240.062 193.354H241.651V206.217H240.062V193.354Z" fill="white"/>
<path d="M245.208 196.003C244.603 196.003 244.224 195.549 244.224 195.019C244.224 194.49 244.603 194.036 245.208 194.036C245.814 194.036 246.192 194.49 246.192 195.019C246.268 195.549 245.889 196.003 245.208 196.003ZM244.451 206.217V197.516H246.041V206.217H244.451Z" fill="white"/>
<path d="M256.787 204.855C256.787 206.747 256.333 208.109 255.425 208.941C254.517 209.773 253.155 210 252.095 210C250.96 210 249.749 209.697 248.992 209.168L249.371 207.882C249.976 208.26 250.96 208.638 252.171 208.638C253.912 208.638 255.198 207.73 255.198 205.46V204.477C254.668 205.309 253.684 206.066 252.171 206.066C249.9 206.066 248.235 204.174 248.235 201.829C248.235 198.954 250.279 197.213 252.398 197.213C254.063 197.213 254.971 198.046 255.425 198.878L255.501 197.44H256.939C256.863 198.046 256.863 198.727 256.863 199.71V204.855H256.787ZM255.198 201.072C255.198 200.769 255.198 200.542 255.122 200.315C254.82 199.256 253.912 198.5 252.625 198.5C250.96 198.5 249.749 199.786 249.749 201.829C249.749 203.342 250.657 204.931 252.549 204.931C253.684 204.931 254.668 204.174 254.971 203.191C255.047 202.964 255.122 202.585 255.122 202.358V201.072H255.198Z" fill="white"/>
<path d="M260.344 202.207C260.344 204.174 261.782 205.158 263.523 205.158C264.81 205.158 265.567 204.931 266.172 204.704L266.475 205.839C265.945 206.066 264.885 206.444 263.296 206.444C260.496 206.444 258.755 204.628 258.755 202.056C258.755 199.483 260.344 197.289 263.145 197.289C266.248 197.289 267.004 200.013 267.004 201.45C267.004 201.753 267.004 201.98 266.929 202.207H260.344V202.207ZM265.491 201.072C265.491 200.316 265.188 198.5 263.069 198.5C261.253 198.5 260.496 200.013 260.344 201.072H265.491Z" fill="white"/>
<path d="M269.124 199.937C269.124 199.029 269.124 198.273 269.048 197.516H270.486L270.561 199.029H270.637C271.091 198.197 272.151 197.289 273.74 197.289C274.875 197.289 276.994 197.97 276.994 201.223V206.217H275.405V201.375C275.405 199.862 274.8 198.651 273.21 198.651C272.075 198.651 271.167 199.483 270.864 200.316C270.789 200.542 270.713 200.769 270.713 201.072V206.217H269.124V199.937Z" fill="white"/>
<path d="M281.611 195.397V197.516H284.033V198.727H281.611V203.266C281.611 204.325 281.914 205.082 282.898 205.082C283.352 205.082 283.654 205.006 283.882 204.931L283.957 206.141C283.654 206.293 283.125 206.368 282.444 206.368C281.687 206.368 281.081 206.066 280.703 205.612C280.249 205.082 280.097 204.25 280.097 203.342V198.651H278.735V197.44H280.097V195.776L281.611 195.397Z" fill="white"/>
<path d="M286.682 202.207C286.682 204.174 288.12 205.158 289.86 205.158C291.147 205.158 291.904 204.931 292.509 204.704L292.812 205.839C292.282 206.066 291.223 206.444 289.633 206.444C286.833 206.444 285.092 204.628 285.092 202.056C285.092 199.483 286.682 197.289 289.482 197.289C292.585 197.289 293.342 200.013 293.342 201.45C293.342 201.753 293.342 201.98 293.266 202.207H286.682V202.207ZM291.828 201.072C291.828 200.316 291.525 198.5 289.406 198.5C287.59 198.5 286.833 200.013 286.682 201.072H291.828Z" fill="white"/>
<path d="M295.234 204.553C295.764 204.855 296.672 205.234 297.504 205.234C298.715 205.234 299.245 204.628 299.245 203.947C299.245 203.191 298.715 202.812 297.504 202.434C295.839 201.904 295.083 200.996 295.083 199.937C295.083 198.5 296.218 197.365 298.185 197.365C299.094 197.365 299.926 197.592 300.456 197.97L300.078 199.181C299.775 198.954 299.018 198.651 298.11 198.651C297.126 198.651 296.596 199.181 296.596 199.862C296.596 200.618 297.202 200.921 298.413 201.299C300.078 201.829 300.759 202.585 300.759 203.872C300.759 205.309 299.623 206.52 297.353 206.52C296.369 206.52 295.385 206.217 294.78 205.839L295.234 204.553Z" fill="white"/>
<path d="M117.684 163.998C116.7 160.366 116.246 158.475 115.641 155.524C115.035 155.6 109.586 152.119 110.267 146.293C107.543 143.948 106.256 142.586 103.531 140.013C103.229 140.619 100.58 141.602 98.0823 140.619C95.5848 139.635 93.4657 137.895 92.9359 135.322C88.5464 135.095 86.6543 134.944 82.4918 135.02C83.0216 136.382 82.9459 137.214 82.5675 138.424C82.1891 139.711 80.8268 140.997 79.4645 141.602C75.9075 143.115 71.5179 140.921 70.6098 140.24C67.9609 143.494 65.5391 146.369 62.8902 150.152C65.2363 151.287 66.4473 155.297 66.4473 157.491C66.4473 160.82 63.9497 164.906 60.2413 165.209C61.6793 171.034 62.5118 173.153 64.4038 179.357C73.0316 179.13 75.6805 186.167 74.6209 190.782C78.3293 192.295 81.8107 194.111 85.2921 195.473V187.377C74.9993 183.14 68.3393 170.807 70.0043 159.307C70.9882 152.573 74.7723 146.823 80.2971 143.721C85.4434 140.77 91.4223 140.392 97.3255 142.586C97.6282 142.661 97.9309 142.813 98.158 142.888C108.072 146.974 114.43 157.642 113.294 168.689C112.538 176.028 108.753 182.081 102.32 185.713L101.185 194.035C103.304 193.128 105.272 191.993 107.088 190.555C106.256 187.604 111.175 181.778 113.976 182.384C115.186 178.979 115.792 177.39 117.003 174.212C114.581 173.985 114.808 164.376 117.684 163.998Z" fill="white"/>
<path d="M102.018 197.97L84.9894 200.618L85.1407 205.536L89.606 205.914C89.7573 208.108 91.5737 209.849 93.6928 209.849C95.8119 209.849 97.5526 208.108 97.7796 205.914L102.245 205.536L102.018 197.97Z" fill="white"/>
<path d="M102.396 185.788C106.407 182.989 109.132 178.752 110.343 174.136C111.554 169.521 111.705 163.771 110.04 159.458C108.451 155.145 106.18 151.514 102.623 148.941C99.0662 146.369 94.9037 145.007 90.2114 145.385C86.0489 145.688 81.2053 147.882 78.3294 150.984C75.4535 154.086 73.7128 158.399 73.4857 162.863C73.183 167.327 74.3939 171.942 76.6644 175.877C78.8591 179.811 82.2648 183.14 86.276 185.032L87.2598 185.486L87.1842 186.469C87.0328 189.723 86.9571 192.976 86.7301 196.23C86.7301 196.23 90.9683 196.078 93.0874 196.078C95.5849 196.003 98.0824 196.003 100.58 196.003C98.0824 196.457 95.6605 196.835 93.163 197.289C90.6655 197.667 88.168 198.045 85.7462 198.424L84.6867 198.575L84.611 197.364C84.3839 194.111 84.1569 187.604 84.1569 187.604C84.1569 187.604 84.0812 187.604 84.0055 187.529C74.848 183.518 68.5664 173.38 68.8691 162.56C69.0205 157.037 71.1396 151.438 74.848 147.352C78.5564 143.342 83.8542 140.921 89.1519 140.77C91.8008 140.694 94.4496 141.148 96.8715 142.056C99.2933 142.964 101.639 144.25 103.759 145.839C107.921 149.093 111.024 153.784 112.538 158.853C114.051 163.998 113.9 169.597 112.084 174.515C110.343 179.584 106.786 183.745 102.396 185.788Z" fill="#FA9401"/>
<rect x="48" y="260" width="265" height="50" rx="25" fill="#FA9401"/>
<path d="M108.429 286.057H107.697L107.423 285.783C108.337 284.777 108.886 283.406 108.886 281.943C108.886 278.651 106.234 276 102.943 276C99.6514 276 97 278.651 97 281.943C97 285.234 99.6514 287.886 102.943 287.886C104.406 287.886 105.777 287.337 106.783 286.423L107.057 286.697V287.429L111.629 292L113 290.629L108.429 286.057ZM102.943 286.057C100.657 286.057 98.8286 284.229 98.8286 281.943C98.8286 279.657 100.657 277.829 102.943 277.829C105.229 277.829 107.057 279.657 107.057 281.943C107.057 284.229 105.229 286.057 102.943 286.057Z" fill="white"/>
<path d="M129.93 286.445H127.031V284.617H129.93C130.378 284.617 130.742 284.544 131.023 284.398C131.305 284.247 131.51 284.039 131.641 283.773C131.771 283.508 131.836 283.208 131.836 282.875C131.836 282.536 131.771 282.221 131.641 281.93C131.51 281.638 131.305 281.404 131.023 281.227C130.742 281.049 130.378 280.961 129.93 280.961H127.844V290.5H125.5V279.125H129.93C130.82 279.125 131.583 279.286 132.219 279.609C132.859 279.927 133.349 280.367 133.688 280.93C134.026 281.492 134.195 282.135 134.195 282.859C134.195 283.594 134.026 284.229 133.688 284.766C133.349 285.302 132.859 285.716 132.219 286.008C131.583 286.299 130.82 286.445 129.93 286.445ZM139.453 290.656C138.797 290.656 138.208 290.552 137.688 290.344C137.167 290.13 136.724 289.836 136.359 289.461C136 289.086 135.724 288.651 135.531 288.156C135.339 287.656 135.242 287.125 135.242 286.562V286.25C135.242 285.609 135.333 285.023 135.516 284.492C135.698 283.961 135.958 283.5 136.297 283.109C136.641 282.719 137.057 282.419 137.547 282.211C138.036 281.997 138.589 281.891 139.203 281.891C139.802 281.891 140.333 281.99 140.797 282.188C141.26 282.385 141.648 282.667 141.961 283.031C142.279 283.396 142.518 283.833 142.68 284.344C142.841 284.849 142.922 285.411 142.922 286.031V286.969H136.203V285.469H140.711V285.297C140.711 284.984 140.654 284.706 140.539 284.461C140.43 284.211 140.263 284.013 140.039 283.867C139.815 283.721 139.529 283.648 139.18 283.648C138.883 283.648 138.628 283.714 138.414 283.844C138.201 283.974 138.026 284.156 137.891 284.391C137.76 284.625 137.661 284.901 137.594 285.219C137.531 285.531 137.5 285.875 137.5 286.25V286.562C137.5 286.901 137.547 287.214 137.641 287.5C137.74 287.786 137.878 288.034 138.055 288.242C138.237 288.451 138.456 288.612 138.711 288.727C138.971 288.841 139.266 288.898 139.594 288.898C140 288.898 140.378 288.82 140.727 288.664C141.081 288.503 141.385 288.26 141.641 287.938L142.734 289.125C142.557 289.38 142.315 289.625 142.008 289.859C141.706 290.094 141.341 290.286 140.914 290.438C140.487 290.583 140 290.656 139.453 290.656ZM148.773 288.164C148.773 288.003 148.727 287.857 148.633 287.727C148.539 287.596 148.365 287.477 148.109 287.367C147.859 287.253 147.497 287.148 147.023 287.055C146.596 286.961 146.198 286.844 145.828 286.703C145.464 286.557 145.146 286.383 144.875 286.18C144.609 285.977 144.401 285.737 144.25 285.461C144.099 285.18 144.023 284.859 144.023 284.5C144.023 284.146 144.099 283.812 144.25 283.5C144.406 283.188 144.628 282.911 144.914 282.672C145.206 282.427 145.56 282.237 145.977 282.102C146.398 281.961 146.872 281.891 147.398 281.891C148.133 281.891 148.763 282.008 149.289 282.242C149.82 282.477 150.227 282.799 150.508 283.211C150.794 283.617 150.938 284.081 150.938 284.602H148.688C148.688 284.383 148.641 284.188 148.547 284.016C148.458 283.839 148.318 283.701 148.125 283.602C147.938 283.497 147.693 283.445 147.391 283.445C147.141 283.445 146.924 283.49 146.742 283.578C146.56 283.661 146.419 283.776 146.32 283.922C146.227 284.062 146.18 284.219 146.18 284.391C146.18 284.521 146.206 284.638 146.258 284.742C146.315 284.841 146.406 284.932 146.531 285.016C146.656 285.099 146.818 285.177 147.016 285.25C147.219 285.318 147.469 285.38 147.766 285.438C148.375 285.562 148.919 285.727 149.398 285.93C149.878 286.128 150.258 286.398 150.539 286.742C150.82 287.081 150.961 287.526 150.961 288.078C150.961 288.453 150.878 288.797 150.711 289.109C150.544 289.422 150.305 289.695 149.992 289.93C149.68 290.159 149.305 290.339 148.867 290.469C148.435 290.594 147.948 290.656 147.406 290.656C146.62 290.656 145.953 290.516 145.406 290.234C144.865 289.953 144.453 289.596 144.172 289.164C143.896 288.727 143.758 288.279 143.758 287.82H145.891C145.901 288.128 145.979 288.375 146.125 288.562C146.276 288.75 146.466 288.885 146.695 288.969C146.93 289.052 147.182 289.094 147.453 289.094C147.745 289.094 147.987 289.055 148.18 288.977C148.372 288.893 148.518 288.784 148.617 288.648C148.721 288.508 148.773 288.346 148.773 288.164ZM157.414 293.75V283.773L157.703 282.047H159.68V293.75H157.414ZM152.07 286.359V286.195C152.07 285.549 152.141 284.964 152.281 284.438C152.427 283.906 152.641 283.453 152.922 283.078C153.203 282.698 153.547 282.406 153.953 282.203C154.365 281.995 154.839 281.891 155.375 281.891C155.891 281.891 156.336 281.995 156.711 282.203C157.086 282.411 157.401 282.706 157.656 283.086C157.917 283.466 158.125 283.914 158.281 284.43C158.438 284.945 158.557 285.51 158.641 286.125V286.484C158.562 287.073 158.443 287.62 158.281 288.125C158.125 288.63 157.917 289.073 157.656 289.453C157.401 289.833 157.083 290.13 156.703 290.344C156.328 290.552 155.88 290.656 155.359 290.656C154.833 290.656 154.365 290.549 153.953 290.336C153.547 290.117 153.203 289.815 152.922 289.43C152.641 289.044 152.427 288.591 152.281 288.07C152.141 287.544 152.07 286.974 152.07 286.359ZM154.32 286.195V286.359C154.32 286.708 154.349 287.036 154.406 287.344C154.464 287.646 154.555 287.914 154.68 288.148C154.81 288.383 154.977 288.568 155.18 288.703C155.383 288.833 155.633 288.898 155.93 288.898C156.341 288.898 156.672 288.81 156.922 288.633C157.177 288.451 157.365 288.203 157.484 287.891C157.609 287.578 157.682 287.221 157.703 286.82V285.797C157.688 285.469 157.643 285.174 157.57 284.914C157.503 284.648 157.398 284.422 157.258 284.234C157.122 284.047 156.945 283.904 156.727 283.805C156.513 283.701 156.253 283.648 155.945 283.648C155.654 283.648 155.404 283.714 155.195 283.844C154.987 283.974 154.818 284.156 154.688 284.391C154.562 284.62 154.469 284.888 154.406 285.195C154.349 285.503 154.32 285.836 154.32 286.195ZM166.453 288.477V282.047H168.703V290.5H166.586L166.453 288.477ZM166.703 286.742L167.367 286.727C167.367 287.289 167.302 287.812 167.172 288.297C167.042 288.776 166.846 289.193 166.586 289.547C166.326 289.896 165.997 290.169 165.602 290.367C165.206 290.56 164.74 290.656 164.203 290.656C163.792 290.656 163.411 290.599 163.062 290.484C162.719 290.365 162.422 290.18 162.172 289.93C161.927 289.674 161.734 289.349 161.594 288.953C161.458 288.552 161.391 288.07 161.391 287.508V282.047H163.641V287.523C163.641 287.773 163.669 287.984 163.727 288.156C163.789 288.328 163.875 288.469 163.984 288.578C164.094 288.688 164.221 288.766 164.367 288.812C164.518 288.859 164.685 288.883 164.867 288.883C165.331 288.883 165.695 288.789 165.961 288.602C166.232 288.414 166.422 288.159 166.531 287.836C166.646 287.508 166.703 287.143 166.703 286.742ZM172.797 282.047V290.5H170.539V282.047H172.797ZM170.398 279.844C170.398 279.516 170.513 279.245 170.742 279.031C170.971 278.818 171.279 278.711 171.664 278.711C172.044 278.711 172.349 278.818 172.578 279.031C172.812 279.245 172.93 279.516 172.93 279.844C172.93 280.172 172.812 280.443 172.578 280.656C172.349 280.87 172.044 280.977 171.664 280.977C171.279 280.977 170.971 280.87 170.742 280.656C170.513 280.443 170.398 280.172 170.398 279.844ZM179.227 288.164C179.227 288.003 179.18 287.857 179.086 287.727C178.992 287.596 178.818 287.477 178.562 287.367C178.312 287.253 177.951 287.148 177.477 287.055C177.049 286.961 176.651 286.844 176.281 286.703C175.917 286.557 175.599 286.383 175.328 286.18C175.062 285.977 174.854 285.737 174.703 285.461C174.552 285.18 174.477 284.859 174.477 284.5C174.477 284.146 174.552 283.812 174.703 283.5C174.859 283.188 175.081 282.911 175.367 282.672C175.659 282.427 176.013 282.237 176.43 282.102C176.852 281.961 177.326 281.891 177.852 281.891C178.586 281.891 179.216 282.008 179.742 282.242C180.273 282.477 180.68 282.799 180.961 283.211C181.247 283.617 181.391 284.081 181.391 284.602H179.141C179.141 284.383 179.094 284.188 179 284.016C178.911 283.839 178.771 283.701 178.578 283.602C178.391 283.497 178.146 283.445 177.844 283.445C177.594 283.445 177.378 283.49 177.195 283.578C177.013 283.661 176.872 283.776 176.773 283.922C176.68 284.062 176.633 284.219 176.633 284.391C176.633 284.521 176.659 284.638 176.711 284.742C176.768 284.841 176.859 284.932 176.984 285.016C177.109 285.099 177.271 285.177 177.469 285.25C177.672 285.318 177.922 285.38 178.219 285.438C178.828 285.562 179.372 285.727 179.852 285.93C180.331 286.128 180.711 286.398 180.992 286.742C181.273 287.081 181.414 287.526 181.414 288.078C181.414 288.453 181.331 288.797 181.164 289.109C180.997 289.422 180.758 289.695 180.445 289.93C180.133 290.159 179.758 290.339 179.32 290.469C178.888 290.594 178.401 290.656 177.859 290.656C177.073 290.656 176.406 290.516 175.859 290.234C175.318 289.953 174.906 289.596 174.625 289.164C174.349 288.727 174.211 288.279 174.211 287.82H176.344C176.354 288.128 176.432 288.375 176.578 288.562C176.729 288.75 176.919 288.885 177.148 288.969C177.383 289.052 177.635 289.094 177.906 289.094C178.198 289.094 178.44 289.055 178.633 288.977C178.826 288.893 178.971 288.784 179.07 288.648C179.174 288.508 179.227 288.346 179.227 288.164ZM187.438 288.594V284.828C187.438 284.557 187.393 284.326 187.305 284.133C187.216 283.935 187.078 283.781 186.891 283.672C186.708 283.562 186.471 283.508 186.18 283.508C185.93 283.508 185.714 283.552 185.531 283.641C185.349 283.724 185.208 283.846 185.109 284.008C185.01 284.164 184.961 284.349 184.961 284.562H182.711C182.711 284.203 182.794 283.862 182.961 283.539C183.128 283.216 183.37 282.932 183.688 282.688C184.005 282.438 184.383 282.242 184.82 282.102C185.263 281.961 185.758 281.891 186.305 281.891C186.961 281.891 187.544 282 188.055 282.219C188.565 282.438 188.966 282.766 189.258 283.203C189.555 283.641 189.703 284.188 189.703 284.844V288.461C189.703 288.924 189.732 289.305 189.789 289.602C189.846 289.893 189.93 290.148 190.039 290.367V290.5H187.766C187.656 290.271 187.573 289.984 187.516 289.641C187.464 289.292 187.438 288.943 187.438 288.594ZM187.734 285.352L187.75 286.625H186.492C186.195 286.625 185.938 286.659 185.719 286.727C185.5 286.794 185.32 286.891 185.18 287.016C185.039 287.135 184.935 287.276 184.867 287.438C184.805 287.599 184.773 287.776 184.773 287.969C184.773 288.161 184.818 288.336 184.906 288.492C184.995 288.643 185.122 288.763 185.289 288.852C185.456 288.935 185.651 288.977 185.875 288.977C186.214 288.977 186.508 288.909 186.758 288.773C187.008 288.638 187.201 288.471 187.336 288.273C187.477 288.076 187.549 287.888 187.555 287.711L188.148 288.664C188.065 288.878 187.951 289.099 187.805 289.328C187.664 289.557 187.484 289.773 187.266 289.977C187.047 290.174 186.784 290.339 186.477 290.469C186.169 290.594 185.805 290.656 185.383 290.656C184.846 290.656 184.359 290.549 183.922 290.336C183.49 290.117 183.146 289.818 182.891 289.438C182.641 289.052 182.516 288.615 182.516 288.125C182.516 287.682 182.599 287.289 182.766 286.945C182.932 286.602 183.177 286.312 183.5 286.078C183.828 285.839 184.237 285.659 184.727 285.539C185.216 285.414 185.784 285.352 186.43 285.352H187.734ZM193.688 283.891V290.5H191.438V282.047H193.555L193.688 283.891ZM196.234 281.992L196.195 284.078C196.086 284.062 195.953 284.049 195.797 284.039C195.646 284.023 195.508 284.016 195.383 284.016C195.065 284.016 194.789 284.057 194.555 284.141C194.326 284.219 194.133 284.336 193.977 284.492C193.826 284.648 193.711 284.839 193.633 285.062C193.56 285.286 193.518 285.542 193.508 285.828L193.055 285.688C193.055 285.141 193.109 284.638 193.219 284.18C193.328 283.716 193.487 283.312 193.695 282.969C193.909 282.625 194.169 282.359 194.477 282.172C194.784 281.984 195.135 281.891 195.531 281.891C195.656 281.891 195.784 281.901 195.914 281.922C196.044 281.938 196.151 281.961 196.234 281.992ZM203.531 283.672V293.75H201.281V282.047H203.367L203.531 283.672ZM208.883 286.18V286.344C208.883 286.958 208.81 287.529 208.664 288.055C208.523 288.581 208.315 289.039 208.039 289.43C207.763 289.815 207.419 290.117 207.008 290.336C206.602 290.549 206.133 290.656 205.602 290.656C205.086 290.656 204.638 290.552 204.258 290.344C203.878 290.135 203.557 289.844 203.297 289.469C203.042 289.089 202.836 288.648 202.68 288.148C202.523 287.648 202.404 287.112 202.32 286.539V286.109C202.404 285.495 202.523 284.932 202.68 284.422C202.836 283.906 203.042 283.461 203.297 283.086C203.557 282.706 203.875 282.411 204.25 282.203C204.63 281.995 205.076 281.891 205.586 281.891C206.122 281.891 206.594 281.992 207 282.195C207.411 282.398 207.755 282.69 208.031 283.07C208.312 283.451 208.523 283.904 208.664 284.43C208.81 284.956 208.883 285.539 208.883 286.18ZM206.625 286.344V286.18C206.625 285.82 206.594 285.49 206.531 285.188C206.474 284.88 206.38 284.612 206.25 284.383C206.125 284.154 205.958 283.977 205.75 283.852C205.547 283.721 205.299 283.656 205.008 283.656C204.701 283.656 204.438 283.706 204.219 283.805C204.005 283.904 203.831 284.047 203.695 284.234C203.56 284.422 203.458 284.646 203.391 284.906C203.323 285.167 203.281 285.461 203.266 285.789V286.875C203.292 287.26 203.365 287.607 203.484 287.914C203.604 288.216 203.789 288.456 204.039 288.633C204.289 288.81 204.617 288.898 205.023 288.898C205.32 288.898 205.57 288.833 205.773 288.703C205.977 288.568 206.141 288.383 206.266 288.148C206.396 287.914 206.487 287.643 206.539 287.336C206.596 287.029 206.625 286.698 206.625 286.344ZM212.531 283.891V290.5H210.281V282.047H212.398L212.531 283.891ZM215.078 281.992L215.039 284.078C214.93 284.062 214.797 284.049 214.641 284.039C214.49 284.023 214.352 284.016 214.227 284.016C213.909 284.016 213.633 284.057 213.398 284.141C213.169 284.219 212.977 284.336 212.82 284.492C212.669 284.648 212.555 284.839 212.477 285.062C212.404 285.286 212.362 285.542 212.352 285.828L211.898 285.688C211.898 285.141 211.953 284.638 212.062 284.18C212.172 283.716 212.331 283.312 212.539 282.969C212.753 282.625 213.013 282.359 213.32 282.172C213.628 281.984 213.979 281.891 214.375 281.891C214.5 281.891 214.628 281.901 214.758 281.922C214.888 281.938 214.995 281.961 215.078 281.992ZM215.547 286.359V286.195C215.547 285.576 215.635 285.005 215.812 284.484C215.99 283.958 216.247 283.503 216.586 283.117C216.924 282.732 217.341 282.432 217.836 282.219C218.331 282 218.898 281.891 219.539 281.891C220.18 281.891 220.75 282 221.25 282.219C221.75 282.432 222.169 282.732 222.508 283.117C222.852 283.503 223.112 283.958 223.289 284.484C223.466 285.005 223.555 285.576 223.555 286.195V286.359C223.555 286.974 223.466 287.544 223.289 288.07C223.112 288.591 222.852 289.047 222.508 289.438C222.169 289.823 221.753 290.122 221.258 290.336C220.763 290.549 220.195 290.656 219.555 290.656C218.914 290.656 218.344 290.549 217.844 290.336C217.349 290.122 216.93 289.823 216.586 289.438C216.247 289.047 215.99 288.591 215.812 288.07C215.635 287.544 215.547 286.974 215.547 286.359ZM217.797 286.195V286.359C217.797 286.714 217.828 287.044 217.891 287.352C217.953 287.659 218.052 287.93 218.188 288.164C218.328 288.393 218.51 288.573 218.734 288.703C218.958 288.833 219.232 288.898 219.555 288.898C219.867 288.898 220.135 288.833 220.359 288.703C220.583 288.573 220.763 288.393 220.898 288.164C221.034 287.93 221.133 287.659 221.195 287.352C221.263 287.044 221.297 286.714 221.297 286.359V286.195C221.297 285.852 221.263 285.529 221.195 285.227C221.133 284.919 221.031 284.648 220.891 284.414C220.755 284.174 220.576 283.987 220.352 283.852C220.128 283.716 219.857 283.648 219.539 283.648C219.221 283.648 218.951 283.716 218.727 283.852C218.508 283.987 218.328 284.174 218.188 284.414C218.052 284.648 217.953 284.919 217.891 285.227C217.828 285.529 217.797 285.852 217.797 286.195ZM229.93 288.656V278.5H232.195V290.5H230.156L229.93 288.656ZM224.586 286.375V286.211C224.586 285.565 224.659 284.979 224.805 284.453C224.951 283.922 225.164 283.466 225.445 283.086C225.727 282.706 226.073 282.411 226.484 282.203C226.896 281.995 227.365 281.891 227.891 281.891C228.385 281.891 228.818 281.995 229.188 282.203C229.562 282.411 229.88 282.708 230.141 283.094C230.406 283.474 230.62 283.924 230.781 284.445C230.943 284.961 231.06 285.526 231.133 286.141V286.5C231.06 287.089 230.943 287.635 230.781 288.141C230.62 288.646 230.406 289.089 230.141 289.469C229.88 289.844 229.562 290.135 229.188 290.344C228.812 290.552 228.375 290.656 227.875 290.656C227.349 290.656 226.88 290.549 226.469 290.336C226.062 290.122 225.719 289.823 225.438 289.438C225.161 289.052 224.951 288.599 224.805 288.078C224.659 287.557 224.586 286.99 224.586 286.375ZM226.836 286.211V286.375C226.836 286.724 226.862 287.049 226.914 287.352C226.971 287.654 227.062 287.922 227.188 288.156C227.318 288.385 227.484 288.565 227.688 288.695C227.896 288.82 228.148 288.883 228.445 288.883C228.831 288.883 229.148 288.797 229.398 288.625C229.648 288.448 229.839 288.206 229.969 287.898C230.104 287.591 230.182 287.237 230.203 286.836V285.812C230.188 285.484 230.141 285.19 230.062 284.93C229.99 284.664 229.88 284.438 229.734 284.25C229.594 284.062 229.417 283.917 229.203 283.812C228.995 283.708 228.747 283.656 228.461 283.656C228.169 283.656 227.919 283.724 227.711 283.859C227.503 283.99 227.333 284.169 227.203 284.398C227.078 284.628 226.984 284.898 226.922 285.211C226.865 285.518 226.836 285.852 226.836 286.211ZM238.953 288.477V282.047H241.203V290.5H239.086L238.953 288.477ZM239.203 286.742L239.867 286.727C239.867 287.289 239.802 287.812 239.672 288.297C239.542 288.776 239.346 289.193 239.086 289.547C238.826 289.896 238.497 290.169 238.102 290.367C237.706 290.56 237.24 290.656 236.703 290.656C236.292 290.656 235.911 290.599 235.562 290.484C235.219 290.365 234.922 290.18 234.672 289.93C234.427 289.674 234.234 289.349 234.094 288.953C233.958 288.552 233.891 288.07 233.891 287.508V282.047H236.141V287.523C236.141 287.773 236.169 287.984 236.227 288.156C236.289 288.328 236.375 288.469 236.484 288.578C236.594 288.688 236.721 288.766 236.867 288.812C237.018 288.859 237.185 288.883 237.367 288.883C237.831 288.883 238.195 288.789 238.461 288.602C238.732 288.414 238.922 288.159 239.031 287.836C239.146 287.508 239.203 287.143 239.203 286.742ZM247.062 282.047V283.641H242.141V282.047H247.062ZM243.359 279.961H245.609V287.953C245.609 288.198 245.641 288.385 245.703 288.516C245.771 288.646 245.87 288.737 246 288.789C246.13 288.836 246.294 288.859 246.492 288.859C246.633 288.859 246.758 288.854 246.867 288.844C246.982 288.828 247.078 288.812 247.156 288.797L247.164 290.453C246.971 290.516 246.763 290.565 246.539 290.602C246.315 290.638 246.068 290.656 245.797 290.656C245.302 290.656 244.87 290.576 244.5 290.414C244.135 290.247 243.854 289.982 243.656 289.617C243.458 289.253 243.359 288.773 243.359 288.18V279.961ZM247.781 286.359V286.195C247.781 285.576 247.87 285.005 248.047 284.484C248.224 283.958 248.482 283.503 248.82 283.117C249.159 282.732 249.576 282.432 250.07 282.219C250.565 282 251.133 281.891 251.773 281.891C252.414 281.891 252.984 282 253.484 282.219C253.984 282.432 254.404 282.732 254.742 283.117C255.086 283.503 255.346 283.958 255.523 284.484C255.701 285.005 255.789 285.576 255.789 286.195V286.359C255.789 286.974 255.701 287.544 255.523 288.07C255.346 288.591 255.086 289.047 254.742 289.438C254.404 289.823 253.987 290.122 253.492 290.336C252.997 290.549 252.43 290.656 251.789 290.656C251.148 290.656 250.578 290.549 250.078 290.336C249.583 290.122 249.164 289.823 248.82 289.438C248.482 289.047 248.224 288.591 248.047 288.07C247.87 287.544 247.781 286.974 247.781 286.359ZM250.031 286.195V286.359C250.031 286.714 250.062 287.044 250.125 287.352C250.188 287.659 250.286 287.93 250.422 288.164C250.562 288.393 250.745 288.573 250.969 288.703C251.193 288.833 251.466 288.898 251.789 288.898C252.102 288.898 252.37 288.833 252.594 288.703C252.818 288.573 252.997 288.393 253.133 288.164C253.268 287.93 253.367 287.659 253.43 287.352C253.497 287.044 253.531 286.714 253.531 286.359V286.195C253.531 285.852 253.497 285.529 253.43 285.227C253.367 284.919 253.266 284.648 253.125 284.414C252.99 284.174 252.81 283.987 252.586 283.852C252.362 283.716 252.091 283.648 251.773 283.648C251.456 283.648 251.185 283.716 250.961 283.852C250.742 283.987 250.562 284.174 250.422 284.414C250.286 284.648 250.188 284.919 250.125 285.227C250.062 285.529 250.031 285.852 250.031 286.195ZM261.742 288.164C261.742 288.003 261.695 287.857 261.602 287.727C261.508 287.596 261.333 287.477 261.078 287.367C260.828 287.253 260.466 287.148 259.992 287.055C259.565 286.961 259.167 286.844 258.797 286.703C258.432 286.557 258.115 286.383 257.844 286.18C257.578 285.977 257.37 285.737 257.219 285.461C257.068 285.18 256.992 284.859 256.992 284.5C256.992 284.146 257.068 283.812 257.219 283.5C257.375 283.188 257.596 282.911 257.883 282.672C258.174 282.427 258.529 282.237 258.945 282.102C259.367 281.961 259.841 281.891 260.367 281.891C261.102 281.891 261.732 282.008 262.258 282.242C262.789 282.477 263.195 282.799 263.477 283.211C263.763 283.617 263.906 284.081 263.906 284.602H261.656C261.656 284.383 261.609 284.188 261.516 284.016C261.427 283.839 261.286 283.701 261.094 283.602C260.906 283.497 260.661 283.445 260.359 283.445C260.109 283.445 259.893 283.49 259.711 283.578C259.529 283.661 259.388 283.776 259.289 283.922C259.195 284.062 259.148 284.219 259.148 284.391C259.148 284.521 259.174 284.638 259.227 284.742C259.284 284.841 259.375 284.932 259.5 285.016C259.625 285.099 259.786 285.177 259.984 285.25C260.188 285.318 260.438 285.38 260.734 285.438C261.344 285.562 261.888 285.727 262.367 285.93C262.846 286.128 263.227 286.398 263.508 286.742C263.789 287.081 263.93 287.526 263.93 288.078C263.93 288.453 263.846 288.797 263.68 289.109C263.513 289.422 263.273 289.695 262.961 289.93C262.648 290.159 262.273 290.339 261.836 290.469C261.404 290.594 260.917 290.656 260.375 290.656C259.589 290.656 258.922 290.516 258.375 290.234C257.833 289.953 257.422 289.596 257.141 289.164C256.865 288.727 256.727 288.279 256.727 287.82H258.859C258.87 288.128 258.948 288.375 259.094 288.562C259.245 288.75 259.435 288.885 259.664 288.969C259.898 289.052 260.151 289.094 260.422 289.094C260.714 289.094 260.956 289.055 261.148 288.977C261.341 288.893 261.487 288.784 261.586 288.648C261.69 288.508 261.742 288.346 261.742 288.164Z" fill="white"/>
<rect x="48.5" y="325.5" width="264" height="49" rx="24.5" fill="#444242"/>
<path d="M134.02 348.28C133.14 345.96 130.82 344.76 128.26 345.24C125.78 342.76 122.34 341.08 118.9 341C118.66 341 118.5 341.16 118.5 341.4C118.58 344.84 120.26 348.28 122.66 350.76C122.26 353.24 123.38 355.64 125.7 356.52C125.3 355.48 125.22 354.28 125.54 353.08C125.94 353.32 126.34 353.56 126.74 353.72C126.9 353.8 127.06 353.8 127.22 353.64L131.22 349.64C131.3 349.56 131.3 349.4 131.22 349.24C131.06 348.84 130.82 348.44 130.58 348.12C131.78 347.8 132.98 347.88 134.02 348.28ZM125.22 347.72C124.58 348.36 123.62 348.36 122.98 347.72C122.34 347.08 122.34 346.12 122.98 345.48C123.62 344.84 124.58 344.84 125.22 345.48C125.86 346.12 125.86 347.08 125.22 347.72Z" fill="white"/>
<path d="M134.26 352.52L132.58 350.84C132.26 350.52 131.78 350.52 131.46 350.84C131.14 351.16 131.14 351.64 131.46 351.96L133.14 353.64C133.46 353.96 133.94 353.96 134.26 353.64C134.58 353.32 134.58 352.84 134.26 352.52Z" fill="white"/>
<path d="M131.14 355.64L129.46 353.96C129.14 353.64 128.66 353.64 128.34 353.96C128.02 354.28 128.02 354.76 128.34 355.08L130.02 356.76C130.34 357.08 130.82 357.08 131.14 356.76C131.46 356.44 131.46 355.96 131.14 355.64Z" fill="white"/>
<path d="M133.3 354.76L130.98 352.44C130.66 352.12 130.18 352.12 129.86 352.44C129.54 352.76 129.54 353.24 129.86 353.56L132.18 355.88C132.5 356.2 132.98 356.2 133.3 355.88C133.62 355.56 133.62 355.08 133.3 354.76Z" fill="white"/>
<path d="M154.312 353.672V355.5H148.586V353.672H154.312ZM149.344 344.125V355.5H147V344.125H149.344ZM160.078 353.594V349.828C160.078 349.557 160.034 349.326 159.945 349.133C159.857 348.935 159.719 348.781 159.531 348.672C159.349 348.562 159.112 348.508 158.82 348.508C158.57 348.508 158.354 348.552 158.172 348.641C157.99 348.724 157.849 348.846 157.75 349.008C157.651 349.164 157.602 349.349 157.602 349.562H155.352C155.352 349.203 155.435 348.862 155.602 348.539C155.768 348.216 156.01 347.932 156.328 347.688C156.646 347.438 157.023 347.242 157.461 347.102C157.904 346.961 158.398 346.891 158.945 346.891C159.602 346.891 160.185 347 160.695 347.219C161.206 347.438 161.607 347.766 161.898 348.203C162.195 348.641 162.344 349.188 162.344 349.844V353.461C162.344 353.924 162.372 354.305 162.43 354.602C162.487 354.893 162.57 355.148 162.68 355.367V355.5H160.406C160.297 355.271 160.214 354.984 160.156 354.641C160.104 354.292 160.078 353.943 160.078 353.594ZM160.375 350.352L160.391 351.625H159.133C158.836 351.625 158.578 351.659 158.359 351.727C158.141 351.794 157.961 351.891 157.82 352.016C157.68 352.135 157.576 352.276 157.508 352.438C157.445 352.599 157.414 352.776 157.414 352.969C157.414 353.161 157.458 353.336 157.547 353.492C157.635 353.643 157.763 353.763 157.93 353.852C158.096 353.935 158.292 353.977 158.516 353.977C158.854 353.977 159.148 353.909 159.398 353.773C159.648 353.638 159.841 353.471 159.977 353.273C160.117 353.076 160.19 352.888 160.195 352.711L160.789 353.664C160.706 353.878 160.591 354.099 160.445 354.328C160.305 354.557 160.125 354.773 159.906 354.977C159.688 355.174 159.424 355.339 159.117 355.469C158.81 355.594 158.445 355.656 158.023 355.656C157.487 355.656 157 355.549 156.562 355.336C156.13 355.117 155.786 354.818 155.531 354.438C155.281 354.052 155.156 353.615 155.156 353.125C155.156 352.682 155.24 352.289 155.406 351.945C155.573 351.602 155.818 351.312 156.141 351.078C156.469 350.839 156.878 350.659 157.367 350.539C157.857 350.414 158.424 350.352 159.07 350.352H160.375ZM166.281 348.852V355.5H164.031V347.047H166.141L166.281 348.852ZM165.953 350.977H165.344C165.344 350.352 165.424 349.789 165.586 349.289C165.747 348.784 165.974 348.354 166.266 348C166.557 347.641 166.904 347.367 167.305 347.18C167.711 346.987 168.164 346.891 168.664 346.891C169.06 346.891 169.422 346.948 169.75 347.062C170.078 347.177 170.359 347.359 170.594 347.609C170.833 347.859 171.016 348.19 171.141 348.602C171.271 349.013 171.336 349.516 171.336 350.109V355.5H169.07V350.102C169.07 349.727 169.018 349.435 168.914 349.227C168.81 349.018 168.656 348.872 168.453 348.789C168.255 348.701 168.01 348.656 167.719 348.656C167.417 348.656 167.154 348.716 166.93 348.836C166.711 348.956 166.529 349.122 166.383 349.336C166.242 349.544 166.135 349.789 166.062 350.07C165.99 350.352 165.953 350.654 165.953 350.977ZM176.539 353.898C176.815 353.898 177.06 353.846 177.273 353.742C177.487 353.633 177.654 353.482 177.773 353.289C177.898 353.091 177.964 352.859 177.969 352.594H180.086C180.081 353.188 179.922 353.716 179.609 354.18C179.297 354.638 178.878 355 178.352 355.266C177.826 355.526 177.237 355.656 176.586 355.656C175.93 355.656 175.357 355.547 174.867 355.328C174.383 355.109 173.979 354.807 173.656 354.422C173.333 354.031 173.091 353.578 172.93 353.062C172.768 352.542 172.688 351.984 172.688 351.391V351.164C172.688 350.565 172.768 350.008 172.93 349.492C173.091 348.971 173.333 348.518 173.656 348.133C173.979 347.742 174.383 347.438 174.867 347.219C175.352 347 175.919 346.891 176.57 346.891C177.263 346.891 177.87 347.023 178.391 347.289C178.917 347.555 179.328 347.935 179.625 348.43C179.927 348.919 180.081 349.5 180.086 350.172H177.969C177.964 349.891 177.904 349.635 177.789 349.406C177.68 349.177 177.518 348.995 177.305 348.859C177.096 348.719 176.839 348.648 176.531 348.648C176.203 348.648 175.935 348.719 175.727 348.859C175.518 348.995 175.357 349.182 175.242 349.422C175.128 349.656 175.047 349.924 175 350.227C174.958 350.523 174.938 350.836 174.938 351.164V351.391C174.938 351.719 174.958 352.034 175 352.336C175.042 352.638 175.12 352.906 175.234 353.141C175.354 353.375 175.518 353.56 175.727 353.695C175.935 353.831 176.206 353.898 176.539 353.898ZM175.695 355.469H177.391L177.305 355.93C177.602 355.982 177.872 356.107 178.117 356.305C178.362 356.503 178.484 356.828 178.484 357.281C178.484 357.557 178.424 357.807 178.305 358.031C178.19 358.255 178.018 358.448 177.789 358.609C177.56 358.776 177.273 358.901 176.93 358.984C176.586 359.073 176.19 359.117 175.742 359.117L175.688 357.867C175.854 357.867 176.005 357.844 176.141 357.797C176.276 357.75 176.383 357.677 176.461 357.578C176.539 357.484 176.578 357.359 176.578 357.203C176.578 357.057 176.539 356.943 176.461 356.859C176.383 356.776 176.26 356.714 176.094 356.672C175.932 356.63 175.719 356.602 175.453 356.586L175.695 355.469ZM185.953 353.594V349.828C185.953 349.557 185.909 349.326 185.82 349.133C185.732 348.935 185.594 348.781 185.406 348.672C185.224 348.562 184.987 348.508 184.695 348.508C184.445 348.508 184.229 348.552 184.047 348.641C183.865 348.724 183.724 348.846 183.625 349.008C183.526 349.164 183.477 349.349 183.477 349.562H181.227C181.227 349.203 181.31 348.862 181.477 348.539C181.643 348.216 181.885 347.932 182.203 347.688C182.521 347.438 182.898 347.242 183.336 347.102C183.779 346.961 184.273 346.891 184.82 346.891C185.477 346.891 186.06 347 186.57 347.219C187.081 347.438 187.482 347.766 187.773 348.203C188.07 348.641 188.219 349.188 188.219 349.844V353.461C188.219 353.924 188.247 354.305 188.305 354.602C188.362 354.893 188.445 355.148 188.555 355.367V355.5H186.281C186.172 355.271 186.089 354.984 186.031 354.641C185.979 354.292 185.953 353.943 185.953 353.594ZM186.25 350.352L186.266 351.625H185.008C184.711 351.625 184.453 351.659 184.234 351.727C184.016 351.794 183.836 351.891 183.695 352.016C183.555 352.135 183.451 352.276 183.383 352.438C183.32 352.599 183.289 352.776 183.289 352.969C183.289 353.161 183.333 353.336 183.422 353.492C183.51 353.643 183.638 353.763 183.805 353.852C183.971 353.935 184.167 353.977 184.391 353.977C184.729 353.977 185.023 353.909 185.273 353.773C185.523 353.638 185.716 353.471 185.852 353.273C185.992 353.076 186.065 352.888 186.07 352.711L186.664 353.664C186.581 353.878 186.466 354.099 186.32 354.328C186.18 354.557 186 354.773 185.781 354.977C185.562 355.174 185.299 355.339 184.992 355.469C184.685 355.594 184.32 355.656 183.898 355.656C183.362 355.656 182.875 355.549 182.438 355.336C182.005 355.117 181.661 354.818 181.406 354.438C181.156 354.052 181.031 353.615 181.031 353.125C181.031 352.682 181.115 352.289 181.281 351.945C181.448 351.602 181.693 351.312 182.016 351.078C182.344 350.839 182.753 350.659 183.242 350.539C183.732 350.414 184.299 350.352 184.945 350.352H186.25ZM192.203 348.797V355.5H189.945V347.047H192.062L192.203 348.797ZM191.891 350.977H191.266C191.266 350.388 191.336 349.846 191.477 349.352C191.622 348.852 191.833 348.419 192.109 348.055C192.391 347.685 192.737 347.398 193.148 347.195C193.56 346.992 194.036 346.891 194.578 346.891C194.953 346.891 195.297 346.948 195.609 347.062C195.922 347.172 196.19 347.346 196.414 347.586C196.643 347.82 196.82 348.128 196.945 348.508C197.07 348.883 197.133 349.333 197.133 349.859V355.5H194.883V350.109C194.883 349.724 194.831 349.427 194.727 349.219C194.622 349.01 194.474 348.865 194.281 348.781C194.094 348.698 193.867 348.656 193.602 348.656C193.31 348.656 193.055 348.716 192.836 348.836C192.622 348.956 192.445 349.122 192.305 349.336C192.164 349.544 192.06 349.789 191.992 350.07C191.924 350.352 191.891 350.654 191.891 350.977ZM196.922 350.719L196.117 350.82C196.117 350.268 196.185 349.755 196.32 349.281C196.461 348.807 196.667 348.391 196.938 348.031C197.214 347.672 197.555 347.393 197.961 347.195C198.367 346.992 198.836 346.891 199.367 346.891C199.773 346.891 200.143 346.951 200.477 347.07C200.81 347.185 201.094 347.37 201.328 347.625C201.568 347.875 201.75 348.203 201.875 348.609C202.005 349.016 202.07 349.513 202.07 350.102V355.5H199.812V350.102C199.812 349.711 199.76 349.414 199.656 349.211C199.557 349.003 199.411 348.859 199.219 348.781C199.031 348.698 198.807 348.656 198.547 348.656C198.276 348.656 198.039 348.711 197.836 348.82C197.633 348.924 197.464 349.07 197.328 349.258C197.193 349.445 197.091 349.664 197.023 349.914C196.956 350.159 196.922 350.427 196.922 350.719ZM207.703 355.656C207.047 355.656 206.458 355.552 205.938 355.344C205.417 355.13 204.974 354.836 204.609 354.461C204.25 354.086 203.974 353.651 203.781 353.156C203.589 352.656 203.492 352.125 203.492 351.562V351.25C203.492 350.609 203.583 350.023 203.766 349.492C203.948 348.961 204.208 348.5 204.547 348.109C204.891 347.719 205.307 347.419 205.797 347.211C206.286 346.997 206.839 346.891 207.453 346.891C208.052 346.891 208.583 346.99 209.047 347.188C209.51 347.385 209.898 347.667 210.211 348.031C210.529 348.396 210.768 348.833 210.93 349.344C211.091 349.849 211.172 350.411 211.172 351.031V351.969H204.453V350.469H208.961V350.297C208.961 349.984 208.904 349.706 208.789 349.461C208.68 349.211 208.513 349.013 208.289 348.867C208.065 348.721 207.779 348.648 207.43 348.648C207.133 348.648 206.878 348.714 206.664 348.844C206.451 348.974 206.276 349.156 206.141 349.391C206.01 349.625 205.911 349.901 205.844 350.219C205.781 350.531 205.75 350.875 205.75 351.25V351.562C205.75 351.901 205.797 352.214 205.891 352.5C205.99 352.786 206.128 353.034 206.305 353.242C206.487 353.451 206.706 353.612 206.961 353.727C207.221 353.841 207.516 353.898 207.844 353.898C208.25 353.898 208.628 353.82 208.977 353.664C209.331 353.503 209.635 353.26 209.891 352.938L210.984 354.125C210.807 354.38 210.565 354.625 210.258 354.859C209.956 355.094 209.591 355.286 209.164 355.438C208.737 355.583 208.25 355.656 207.703 355.656ZM214.656 348.852V355.5H212.406V347.047H214.516L214.656 348.852ZM214.328 350.977H213.719C213.719 350.352 213.799 349.789 213.961 349.289C214.122 348.784 214.349 348.354 214.641 348C214.932 347.641 215.279 347.367 215.68 347.18C216.086 346.987 216.539 346.891 217.039 346.891C217.435 346.891 217.797 346.948 218.125 347.062C218.453 347.177 218.734 347.359 218.969 347.609C219.208 347.859 219.391 348.19 219.516 348.602C219.646 349.013 219.711 349.516 219.711 350.109V355.5H217.445V350.102C217.445 349.727 217.393 349.435 217.289 349.227C217.185 349.018 217.031 348.872 216.828 348.789C216.63 348.701 216.385 348.656 216.094 348.656C215.792 348.656 215.529 348.716 215.305 348.836C215.086 348.956 214.904 349.122 214.758 349.336C214.617 349.544 214.51 349.789 214.438 350.07C214.365 350.352 214.328 350.654 214.328 350.977ZM225.562 347.047V348.641H220.641V347.047H225.562ZM221.859 344.961H224.109V352.953C224.109 353.198 224.141 353.385 224.203 353.516C224.271 353.646 224.37 353.737 224.5 353.789C224.63 353.836 224.794 353.859 224.992 353.859C225.133 353.859 225.258 353.854 225.367 353.844C225.482 353.828 225.578 353.812 225.656 353.797L225.664 355.453C225.471 355.516 225.263 355.565 225.039 355.602C224.815 355.638 224.568 355.656 224.297 355.656C223.802 355.656 223.37 355.576 223 355.414C222.635 355.247 222.354 354.982 222.156 354.617C221.958 354.253 221.859 353.773 221.859 353.18V344.961ZM226.281 351.359V351.195C226.281 350.576 226.37 350.005 226.547 349.484C226.724 348.958 226.982 348.503 227.32 348.117C227.659 347.732 228.076 347.432 228.57 347.219C229.065 347 229.633 346.891 230.273 346.891C230.914 346.891 231.484 347 231.984 347.219C232.484 347.432 232.904 347.732 233.242 348.117C233.586 348.503 233.846 348.958 234.023 349.484C234.201 350.005 234.289 350.576 234.289 351.195V351.359C234.289 351.974 234.201 352.544 234.023 353.07C233.846 353.591 233.586 354.047 233.242 354.438C232.904 354.823 232.487 355.122 231.992 355.336C231.497 355.549 230.93 355.656 230.289 355.656C229.648 355.656 229.078 355.549 228.578 355.336C228.083 355.122 227.664 354.823 227.32 354.438C226.982 354.047 226.724 353.591 226.547 353.07C226.37 352.544 226.281 351.974 226.281 351.359ZM228.531 351.195V351.359C228.531 351.714 228.562 352.044 228.625 352.352C228.688 352.659 228.786 352.93 228.922 353.164C229.062 353.393 229.245 353.573 229.469 353.703C229.693 353.833 229.966 353.898 230.289 353.898C230.602 353.898 230.87 353.833 231.094 353.703C231.318 353.573 231.497 353.393 231.633 353.164C231.768 352.93 231.867 352.659 231.93 352.352C231.997 352.044 232.031 351.714 232.031 351.359V351.195C232.031 350.852 231.997 350.529 231.93 350.227C231.867 349.919 231.766 349.648 231.625 349.414C231.49 349.174 231.31 348.987 231.086 348.852C230.862 348.716 230.591 348.648 230.273 348.648C229.956 348.648 229.685 348.716 229.461 348.852C229.242 348.987 229.062 349.174 228.922 349.414C228.786 349.648 228.688 349.919 228.625 350.227C228.562 350.529 228.531 350.852 228.531 351.195ZM240.242 353.164C240.242 353.003 240.195 352.857 240.102 352.727C240.008 352.596 239.833 352.477 239.578 352.367C239.328 352.253 238.966 352.148 238.492 352.055C238.065 351.961 237.667 351.844 237.297 351.703C236.932 351.557 236.615 351.383 236.344 351.18C236.078 350.977 235.87 350.737 235.719 350.461C235.568 350.18 235.492 349.859 235.492 349.5C235.492 349.146 235.568 348.812 235.719 348.5C235.875 348.188 236.096 347.911 236.383 347.672C236.674 347.427 237.029 347.237 237.445 347.102C237.867 346.961 238.341 346.891 238.867 346.891C239.602 346.891 240.232 347.008 240.758 347.242C241.289 347.477 241.695 347.799 241.977 348.211C242.263 348.617 242.406 349.081 242.406 349.602H240.156C240.156 349.383 240.109 349.188 240.016 349.016C239.927 348.839 239.786 348.701 239.594 348.602C239.406 348.497 239.161 348.445 238.859 348.445C238.609 348.445 238.393 348.49 238.211 348.578C238.029 348.661 237.888 348.776 237.789 348.922C237.695 349.062 237.648 349.219 237.648 349.391C237.648 349.521 237.674 349.638 237.727 349.742C237.784 349.841 237.875 349.932 238 350.016C238.125 350.099 238.286 350.177 238.484 350.25C238.688 350.318 238.938 350.38 239.234 350.438C239.844 350.562 240.388 350.727 240.867 350.93C241.346 351.128 241.727 351.398 242.008 351.742C242.289 352.081 242.43 352.526 242.43 353.078C242.43 353.453 242.346 353.797 242.18 354.109C242.013 354.422 241.773 354.695 241.461 354.93C241.148 355.159 240.773 355.339 240.336 355.469C239.904 355.594 239.417 355.656 238.875 355.656C238.089 355.656 237.422 355.516 236.875 355.234C236.333 354.953 235.922 354.596 235.641 354.164C235.365 353.727 235.227 353.279 235.227 352.82H237.359C237.37 353.128 237.448 353.375 237.594 353.562C237.745 353.75 237.935 353.885 238.164 353.969C238.398 354.052 238.651 354.094 238.922 354.094C239.214 354.094 239.456 354.055 239.648 353.977C239.841 353.893 239.987 353.784 240.086 353.648C240.19 353.508 240.242 353.346 240.242 353.164Z" fill="white"/>
<rect x="48.5" y="325.5" width="264" height="49" rx="24.5" stroke="#FA9401"/>
<rect x="48.5" y="390.5" width="264" height="49" rx="24.5" fill="#444242"/>
<path d="M142.083 419.701C140.767 419.701 139.701 420.775 139.701 422.1C139.701 423.426 140.767 424.5 142.083 424.5C143.398 424.5 144.464 423.426 144.464 422.1C144.463 420.776 143.397 419.702 142.083 419.701Z" fill="white"/>
<path d="M155.413 409.807C155.33 409.697 155.201 409.632 155.063 409.631H139.605L139.289 407.853C139.095 406.759 138.244 405.903 137.157 405.71L136.015 405.507C135.776 405.464 135.549 405.624 135.507 405.864C135.465 406.104 135.623 406.333 135.861 406.376L137.008 406.579C137.732 406.708 138.299 407.279 138.427 408.008L139.977 416.816C140.16 417.87 141.069 418.639 142.131 418.638H151.324C152.29 418.641 153.143 418.004 153.421 417.072L155.479 410.2C155.522 410.066 155.498 409.92 155.413 409.807Z" fill="white"/>
<path d="M151.276 419.701C149.961 419.701 148.895 420.775 148.895 422.1C148.895 423.426 149.961 424.5 151.276 424.5C152.591 424.5 153.658 423.426 153.658 422.1C153.656 420.776 152.591 419.702 151.276 419.701Z" fill="white"/>
<path d="M171.133 416.727H173.469C173.422 417.492 173.211 418.172 172.836 418.766C172.466 419.359 171.948 419.823 171.281 420.156C170.62 420.49 169.823 420.656 168.891 420.656C168.161 420.656 167.508 420.531 166.93 420.281C166.352 420.026 165.857 419.661 165.445 419.188C165.039 418.714 164.729 418.141 164.516 417.469C164.302 416.797 164.195 416.044 164.195 415.211V414.422C164.195 413.589 164.305 412.836 164.523 412.164C164.747 411.487 165.065 410.911 165.477 410.438C165.893 409.964 166.391 409.599 166.969 409.344C167.547 409.089 168.193 408.961 168.906 408.961C169.854 408.961 170.654 409.133 171.305 409.477C171.961 409.82 172.469 410.294 172.828 410.898C173.193 411.503 173.411 412.19 173.484 412.961H171.141C171.115 412.503 171.023 412.115 170.867 411.797C170.711 411.474 170.474 411.232 170.156 411.07C169.844 410.904 169.427 410.82 168.906 410.82C168.516 410.82 168.174 410.893 167.883 411.039C167.591 411.185 167.346 411.406 167.148 411.703C166.951 412 166.802 412.375 166.703 412.828C166.609 413.276 166.562 413.802 166.562 414.406V415.211C166.562 415.799 166.607 416.318 166.695 416.766C166.784 417.208 166.919 417.583 167.102 417.891C167.289 418.193 167.529 418.422 167.82 418.578C168.117 418.729 168.474 418.805 168.891 418.805C169.38 418.805 169.784 418.727 170.102 418.57C170.419 418.414 170.661 418.182 170.828 417.875C171 417.568 171.102 417.185 171.133 416.727ZM179.43 418.594V414.828C179.43 414.557 179.385 414.326 179.297 414.133C179.208 413.935 179.07 413.781 178.883 413.672C178.701 413.562 178.464 413.508 178.172 413.508C177.922 413.508 177.706 413.552 177.523 413.641C177.341 413.724 177.201 413.846 177.102 414.008C177.003 414.164 176.953 414.349 176.953 414.562H174.703C174.703 414.203 174.786 413.862 174.953 413.539C175.12 413.216 175.362 412.932 175.68 412.688C175.997 412.438 176.375 412.242 176.812 412.102C177.255 411.961 177.75 411.891 178.297 411.891C178.953 411.891 179.536 412 180.047 412.219C180.557 412.438 180.958 412.766 181.25 413.203C181.547 413.641 181.695 414.188 181.695 414.844V418.461C181.695 418.924 181.724 419.305 181.781 419.602C181.839 419.893 181.922 420.148 182.031 420.367V420.5H179.758C179.648 420.271 179.565 419.984 179.508 419.641C179.456 419.292 179.43 418.943 179.43 418.594ZM179.727 415.352L179.742 416.625H178.484C178.188 416.625 177.93 416.659 177.711 416.727C177.492 416.794 177.312 416.891 177.172 417.016C177.031 417.135 176.927 417.276 176.859 417.438C176.797 417.599 176.766 417.776 176.766 417.969C176.766 418.161 176.81 418.336 176.898 418.492C176.987 418.643 177.115 418.763 177.281 418.852C177.448 418.935 177.643 418.977 177.867 418.977C178.206 418.977 178.5 418.909 178.75 418.773C179 418.638 179.193 418.471 179.328 418.273C179.469 418.076 179.542 417.888 179.547 417.711L180.141 418.664C180.057 418.878 179.943 419.099 179.797 419.328C179.656 419.557 179.477 419.773 179.258 419.977C179.039 420.174 178.776 420.339 178.469 420.469C178.161 420.594 177.797 420.656 177.375 420.656C176.839 420.656 176.352 420.549 175.914 420.336C175.482 420.117 175.138 419.818 174.883 419.438C174.633 419.052 174.508 418.615 174.508 418.125C174.508 417.682 174.591 417.289 174.758 416.945C174.924 416.602 175.169 416.312 175.492 416.078C175.82 415.839 176.229 415.659 176.719 415.539C177.208 415.414 177.776 415.352 178.422 415.352H179.727ZM185.68 413.891V420.5H183.43V412.047H185.547L185.68 413.891ZM188.227 411.992L188.188 414.078C188.078 414.062 187.945 414.049 187.789 414.039C187.638 414.023 187.5 414.016 187.375 414.016C187.057 414.016 186.781 414.057 186.547 414.141C186.318 414.219 186.125 414.336 185.969 414.492C185.818 414.648 185.703 414.839 185.625 415.062C185.552 415.286 185.51 415.542 185.5 415.828L185.047 415.688C185.047 415.141 185.102 414.638 185.211 414.18C185.32 413.716 185.479 413.312 185.688 412.969C185.901 412.625 186.161 412.359 186.469 412.172C186.776 411.984 187.128 411.891 187.523 411.891C187.648 411.891 187.776 411.901 187.906 411.922C188.036 411.938 188.143 411.961 188.227 411.992ZM191.539 413.891V420.5H189.289V412.047H191.406L191.539 413.891ZM194.086 411.992L194.047 414.078C193.938 414.062 193.805 414.049 193.648 414.039C193.497 414.023 193.359 414.016 193.234 414.016C192.917 414.016 192.641 414.057 192.406 414.141C192.177 414.219 191.984 414.336 191.828 414.492C191.677 414.648 191.562 414.839 191.484 415.062C191.411 415.286 191.37 415.542 191.359 415.828L190.906 415.688C190.906 415.141 190.961 414.638 191.07 414.18C191.18 413.716 191.339 413.312 191.547 412.969C191.76 412.625 192.021 412.359 192.328 412.172C192.635 411.984 192.987 411.891 193.383 411.891C193.508 411.891 193.635 411.901 193.766 411.922C193.896 411.938 194.003 411.961 194.086 411.992ZM197.523 412.047V420.5H195.266V412.047H197.523ZM195.125 409.844C195.125 409.516 195.24 409.245 195.469 409.031C195.698 408.818 196.005 408.711 196.391 408.711C196.771 408.711 197.076 408.818 197.305 409.031C197.539 409.245 197.656 409.516 197.656 409.844C197.656 410.172 197.539 410.443 197.305 410.656C197.076 410.87 196.771 410.977 196.391 410.977C196.005 410.977 195.698 410.87 195.469 410.656C195.24 410.443 195.125 410.172 195.125 409.844ZM201.586 413.852V420.5H199.336V412.047H201.445L201.586 413.852ZM201.258 415.977H200.648C200.648 415.352 200.729 414.789 200.891 414.289C201.052 413.784 201.279 413.354 201.57 413C201.862 412.641 202.208 412.367 202.609 412.18C203.016 411.987 203.469 411.891 203.969 411.891C204.365 411.891 204.727 411.948 205.055 412.062C205.383 412.177 205.664 412.359 205.898 412.609C206.138 412.859 206.32 413.19 206.445 413.602C206.576 414.013 206.641 414.516 206.641 415.109V420.5H204.375V415.102C204.375 414.727 204.323 414.435 204.219 414.227C204.115 414.018 203.961 413.872 203.758 413.789C203.56 413.701 203.315 413.656 203.023 413.656C202.721 413.656 202.458 413.716 202.234 413.836C202.016 413.956 201.833 414.122 201.688 414.336C201.547 414.544 201.44 414.789 201.367 415.07C201.294 415.352 201.258 415.654 201.258 415.977ZM210.547 408.5V420.5H208.297V408.5H210.547ZM210.227 415.977H209.609C209.615 415.388 209.693 414.846 209.844 414.352C209.995 413.852 210.211 413.419 210.492 413.055C210.773 412.685 211.109 412.398 211.5 412.195C211.896 411.992 212.333 411.891 212.812 411.891C213.229 411.891 213.607 411.951 213.945 412.07C214.289 412.185 214.583 412.372 214.828 412.633C215.078 412.888 215.271 413.224 215.406 413.641C215.542 414.057 215.609 414.562 215.609 415.156V420.5H213.344V415.141C213.344 414.766 213.289 414.471 213.18 414.258C213.076 414.039 212.922 413.885 212.719 413.797C212.521 413.703 212.276 413.656 211.984 413.656C211.661 413.656 211.385 413.716 211.156 413.836C210.932 413.956 210.753 414.122 210.617 414.336C210.482 414.544 210.383 414.789 210.32 415.07C210.258 415.352 210.227 415.654 210.227 415.977ZM216.961 416.359V416.195C216.961 415.576 217.049 415.005 217.227 414.484C217.404 413.958 217.661 413.503 218 413.117C218.339 412.732 218.755 412.432 219.25 412.219C219.745 412 220.312 411.891 220.953 411.891C221.594 411.891 222.164 412 222.664 412.219C223.164 412.432 223.583 412.732 223.922 413.117C224.266 413.503 224.526 413.958 224.703 414.484C224.88 415.005 224.969 415.576 224.969 416.195V416.359C224.969 416.974 224.88 417.544 224.703 418.07C224.526 418.591 224.266 419.047 223.922 419.438C223.583 419.823 223.167 420.122 222.672 420.336C222.177 420.549 221.609 420.656 220.969 420.656C220.328 420.656 219.758 420.549 219.258 420.336C218.763 420.122 218.344 419.823 218 419.438C217.661 419.047 217.404 418.591 217.227 418.07C217.049 417.544 216.961 416.974 216.961 416.359ZM219.211 416.195V416.359C219.211 416.714 219.242 417.044 219.305 417.352C219.367 417.659 219.466 417.93 219.602 418.164C219.742 418.393 219.924 418.573 220.148 418.703C220.372 418.833 220.646 418.898 220.969 418.898C221.281 418.898 221.549 418.833 221.773 418.703C221.997 418.573 222.177 418.393 222.312 418.164C222.448 417.93 222.547 417.659 222.609 417.352C222.677 417.044 222.711 416.714 222.711 416.359V416.195C222.711 415.852 222.677 415.529 222.609 415.227C222.547 414.919 222.445 414.648 222.305 414.414C222.169 414.174 221.99 413.987 221.766 413.852C221.542 413.716 221.271 413.648 220.953 413.648C220.635 413.648 220.365 413.716 220.141 413.852C219.922 413.987 219.742 414.174 219.602 414.414C219.466 414.648 219.367 414.919 219.305 415.227C219.242 415.529 219.211 415.852 219.211 416.195Z" fill="white"/>
<rect x="48.5" y="390.5" width="264" height="49" rx="24.5" stroke="#FA9401"/>
<rect x="48.5" y="455.5" width="264" height="49" rx="24.5" fill="#444242"/>
<path d="M155.596 485.237L152.817 482.451C152.263 481.898 151.346 481.915 150.773 482.489L149.373 483.893C149.284 483.844 149.193 483.793 149.096 483.739C148.212 483.247 147.001 482.574 145.728 481.297C144.45 480.016 143.778 478.801 143.286 477.914C143.234 477.82 143.185 477.73 143.136 477.644L144.076 476.703L144.538 476.239C145.112 475.664 145.127 474.745 144.575 474.191L141.795 471.404C141.243 470.851 140.325 470.868 139.752 471.443L138.968 472.233L138.99 472.254C138.727 472.59 138.507 472.977 138.344 473.395C138.193 473.793 138.1 474.172 138.057 474.553C137.69 477.603 139.08 480.39 142.854 484.172C148.071 489.4 152.274 489.005 152.456 488.986C152.851 488.939 153.229 488.844 153.614 488.695C154.027 488.533 154.414 488.313 154.749 488.05L154.766 488.066L155.559 487.287C156.132 486.711 156.149 485.792 155.596 485.237Z" fill="white"/>
<path d="M173.758 481.727H176.094C176.047 482.492 175.836 483.172 175.461 483.766C175.091 484.359 174.573 484.823 173.906 485.156C173.245 485.49 172.448 485.656 171.516 485.656C170.786 485.656 170.133 485.531 169.555 485.281C168.977 485.026 168.482 484.661 168.07 484.188C167.664 483.714 167.354 483.141 167.141 482.469C166.927 481.797 166.82 481.044 166.82 480.211V479.422C166.82 478.589 166.93 477.836 167.148 477.164C167.372 476.487 167.69 475.911 168.102 475.438C168.518 474.964 169.016 474.599 169.594 474.344C170.172 474.089 170.818 473.961 171.531 473.961C172.479 473.961 173.279 474.133 173.93 474.477C174.586 474.82 175.094 475.294 175.453 475.898C175.818 476.503 176.036 477.19 176.109 477.961H173.766C173.74 477.503 173.648 477.115 173.492 476.797C173.336 476.474 173.099 476.232 172.781 476.07C172.469 475.904 172.052 475.82 171.531 475.82C171.141 475.82 170.799 475.893 170.508 476.039C170.216 476.185 169.971 476.406 169.773 476.703C169.576 477 169.427 477.375 169.328 477.828C169.234 478.276 169.188 478.802 169.188 479.406V480.211C169.188 480.799 169.232 481.318 169.32 481.766C169.409 482.208 169.544 482.583 169.727 482.891C169.914 483.193 170.154 483.422 170.445 483.578C170.742 483.729 171.099 483.805 171.516 483.805C172.005 483.805 172.409 483.727 172.727 483.57C173.044 483.414 173.286 483.182 173.453 482.875C173.625 482.568 173.727 482.185 173.758 481.727ZM177.133 481.359V481.195C177.133 480.576 177.221 480.005 177.398 479.484C177.576 478.958 177.833 478.503 178.172 478.117C178.51 477.732 178.927 477.432 179.422 477.219C179.917 477 180.484 476.891 181.125 476.891C181.766 476.891 182.336 477 182.836 477.219C183.336 477.432 183.755 477.732 184.094 478.117C184.438 478.503 184.698 478.958 184.875 479.484C185.052 480.005 185.141 480.576 185.141 481.195V481.359C185.141 481.974 185.052 482.544 184.875 483.07C184.698 483.591 184.438 484.047 184.094 484.438C183.755 484.823 183.339 485.122 182.844 485.336C182.349 485.549 181.781 485.656 181.141 485.656C180.5 485.656 179.93 485.549 179.43 485.336C178.935 485.122 178.516 484.823 178.172 484.438C177.833 484.047 177.576 483.591 177.398 483.07C177.221 482.544 177.133 481.974 177.133 481.359ZM179.383 481.195V481.359C179.383 481.714 179.414 482.044 179.477 482.352C179.539 482.659 179.638 482.93 179.773 483.164C179.914 483.393 180.096 483.573 180.32 483.703C180.544 483.833 180.818 483.898 181.141 483.898C181.453 483.898 181.721 483.833 181.945 483.703C182.169 483.573 182.349 483.393 182.484 483.164C182.62 482.93 182.719 482.659 182.781 482.352C182.849 482.044 182.883 481.714 182.883 481.359V481.195C182.883 480.852 182.849 480.529 182.781 480.227C182.719 479.919 182.617 479.648 182.477 479.414C182.341 479.174 182.161 478.987 181.938 478.852C181.714 478.716 181.443 478.648 181.125 478.648C180.807 478.648 180.536 478.716 180.312 478.852C180.094 478.987 179.914 479.174 179.773 479.414C179.638 479.648 179.539 479.919 179.477 480.227C179.414 480.529 179.383 480.852 179.383 481.195ZM188.727 478.852V485.5H186.477V477.047H188.586L188.727 478.852ZM188.398 480.977H187.789C187.789 480.352 187.87 479.789 188.031 479.289C188.193 478.784 188.419 478.354 188.711 478C189.003 477.641 189.349 477.367 189.75 477.18C190.156 476.987 190.609 476.891 191.109 476.891C191.505 476.891 191.867 476.948 192.195 477.062C192.523 477.177 192.805 477.359 193.039 477.609C193.279 477.859 193.461 478.19 193.586 478.602C193.716 479.013 193.781 479.516 193.781 480.109V485.5H191.516V480.102C191.516 479.727 191.464 479.435 191.359 479.227C191.255 479.018 191.102 478.872 190.898 478.789C190.701 478.701 190.456 478.656 190.164 478.656C189.862 478.656 189.599 478.716 189.375 478.836C189.156 478.956 188.974 479.122 188.828 479.336C188.688 479.544 188.581 479.789 188.508 480.07C188.435 480.352 188.398 480.654 188.398 480.977ZM199.633 477.047V478.641H194.711V477.047H199.633ZM195.93 474.961H198.18V482.953C198.18 483.198 198.211 483.385 198.273 483.516C198.341 483.646 198.44 483.737 198.57 483.789C198.701 483.836 198.865 483.859 199.062 483.859C199.203 483.859 199.328 483.854 199.438 483.844C199.552 483.828 199.648 483.812 199.727 483.797L199.734 485.453C199.542 485.516 199.333 485.565 199.109 485.602C198.885 485.638 198.638 485.656 198.367 485.656C197.872 485.656 197.44 485.576 197.07 485.414C196.706 485.247 196.424 484.982 196.227 484.617C196.029 484.253 195.93 483.773 195.93 483.18V474.961ZM205.477 483.594V479.828C205.477 479.557 205.432 479.326 205.344 479.133C205.255 478.935 205.117 478.781 204.93 478.672C204.747 478.562 204.51 478.508 204.219 478.508C203.969 478.508 203.753 478.552 203.57 478.641C203.388 478.724 203.247 478.846 203.148 479.008C203.049 479.164 203 479.349 203 479.562H200.75C200.75 479.203 200.833 478.862 201 478.539C201.167 478.216 201.409 477.932 201.727 477.688C202.044 477.438 202.422 477.242 202.859 477.102C203.302 476.961 203.797 476.891 204.344 476.891C205 476.891 205.583 477 206.094 477.219C206.604 477.438 207.005 477.766 207.297 478.203C207.594 478.641 207.742 479.188 207.742 479.844V483.461C207.742 483.924 207.771 484.305 207.828 484.602C207.885 484.893 207.969 485.148 208.078 485.367V485.5H205.805C205.695 485.271 205.612 484.984 205.555 484.641C205.503 484.292 205.477 483.943 205.477 483.594ZM205.773 480.352L205.789 481.625H204.531C204.234 481.625 203.977 481.659 203.758 481.727C203.539 481.794 203.359 481.891 203.219 482.016C203.078 482.135 202.974 482.276 202.906 482.438C202.844 482.599 202.812 482.776 202.812 482.969C202.812 483.161 202.857 483.336 202.945 483.492C203.034 483.643 203.161 483.763 203.328 483.852C203.495 483.935 203.69 483.977 203.914 483.977C204.253 483.977 204.547 483.909 204.797 483.773C205.047 483.638 205.24 483.471 205.375 483.273C205.516 483.076 205.589 482.888 205.594 482.711L206.188 483.664C206.104 483.878 205.99 484.099 205.844 484.328C205.703 484.557 205.523 484.773 205.305 484.977C205.086 485.174 204.823 485.339 204.516 485.469C204.208 485.594 203.844 485.656 203.422 485.656C202.885 485.656 202.398 485.549 201.961 485.336C201.529 485.117 201.185 484.818 200.93 484.438C200.68 484.052 200.555 483.615 200.555 483.125C200.555 482.682 200.638 482.289 200.805 481.945C200.971 481.602 201.216 481.312 201.539 481.078C201.867 480.839 202.276 480.659 202.766 480.539C203.255 480.414 203.823 480.352 204.469 480.352H205.773ZM213.617 477.047V478.641H208.695V477.047H213.617ZM209.914 474.961H212.164V482.953C212.164 483.198 212.195 483.385 212.258 483.516C212.326 483.646 212.424 483.737 212.555 483.789C212.685 483.836 212.849 483.859 213.047 483.859C213.188 483.859 213.312 483.854 213.422 483.844C213.536 483.828 213.633 483.812 213.711 483.797L213.719 485.453C213.526 485.516 213.318 485.565 213.094 485.602C212.87 485.638 212.622 485.656 212.352 485.656C211.857 485.656 211.424 485.576 211.055 485.414C210.69 485.247 210.409 484.982 210.211 484.617C210.013 484.253 209.914 483.773 209.914 483.18V474.961ZM214.336 481.359V481.195C214.336 480.576 214.424 480.005 214.602 479.484C214.779 478.958 215.036 478.503 215.375 478.117C215.714 477.732 216.13 477.432 216.625 477.219C217.12 477 217.688 476.891 218.328 476.891C218.969 476.891 219.539 477 220.039 477.219C220.539 477.432 220.958 477.732 221.297 478.117C221.641 478.503 221.901 478.958 222.078 479.484C222.255 480.005 222.344 480.576 222.344 481.195V481.359C222.344 481.974 222.255 482.544 222.078 483.07C221.901 483.591 221.641 484.047 221.297 484.438C220.958 484.823 220.542 485.122 220.047 485.336C219.552 485.549 218.984 485.656 218.344 485.656C217.703 485.656 217.133 485.549 216.633 485.336C216.138 485.122 215.719 484.823 215.375 484.438C215.036 484.047 214.779 483.591 214.602 483.07C214.424 482.544 214.336 481.974 214.336 481.359ZM216.586 481.195V481.359C216.586 481.714 216.617 482.044 216.68 482.352C216.742 482.659 216.841 482.93 216.977 483.164C217.117 483.393 217.299 483.573 217.523 483.703C217.747 483.833 218.021 483.898 218.344 483.898C218.656 483.898 218.924 483.833 219.148 483.703C219.372 483.573 219.552 483.393 219.688 483.164C219.823 482.93 219.922 482.659 219.984 482.352C220.052 482.044 220.086 481.714 220.086 481.359V481.195C220.086 480.852 220.052 480.529 219.984 480.227C219.922 479.919 219.82 479.648 219.68 479.414C219.544 479.174 219.365 478.987 219.141 478.852C218.917 478.716 218.646 478.648 218.328 478.648C218.01 478.648 217.74 478.716 217.516 478.852C217.297 478.987 217.117 479.174 216.977 479.414C216.841 479.648 216.742 479.919 216.68 480.227C216.617 480.529 216.586 480.852 216.586 481.195Z" fill="white"/>
<rect x="48.5" y="455.5" width="264" height="49" rx="24.5" stroke="#FA9401"/>
<rect x="320" y="22" width="24" height="4" rx="2" fill="white"/>
<rect x="320" y="30" width="24" height="4" rx="2" fill="white"/>
<rect x="320" y="38" width="24" height="4" rx="2" fill="white"/>
<rect x="15" y="15" width="121.333" height="34" rx="17" fill="white"/>
<path d="M29.3223 27.4688V36H28.1914V27.4688H29.3223ZM35.2109 34.7695V27H36.3008V36H35.3047L35.2109 34.7695ZM30.9453 32.9004V32.7773C30.9453 32.293 31.0039 31.8535 31.1211 31.459C31.2422 31.0605 31.4121 30.7188 31.6309 30.4336C31.8535 30.1484 32.1172 29.9297 32.4219 29.7773C32.7305 29.6211 33.0742 29.543 33.4531 29.543C33.8516 29.543 34.1992 29.6133 34.4961 29.7539C34.7969 29.8906 35.0508 30.0918 35.2578 30.3574C35.4688 30.6191 35.6348 30.9355 35.7559 31.3066C35.877 31.6777 35.9609 32.0977 36.0078 32.5664V33.1055C35.9648 33.5703 35.8809 33.9883 35.7559 34.3594C35.6348 34.7305 35.4688 35.0469 35.2578 35.3086C35.0508 35.5703 34.7969 35.7715 34.4961 35.9121C34.1953 36.0488 33.8438 36.1172 33.4414 36.1172C33.0703 36.1172 32.7305 36.0371 32.4219 35.877C32.1172 35.7168 31.8535 35.4922 31.6309 35.2031C31.4121 34.9141 31.2422 34.5742 31.1211 34.1836C31.0039 33.7891 30.9453 33.3613 30.9453 32.9004ZM32.0352 32.7773V32.9004C32.0352 33.2168 32.0664 33.5137 32.1289 33.791C32.1953 34.0684 32.2969 34.3125 32.4336 34.5234C32.5703 34.7344 32.7441 34.9004 32.9551 35.0215C33.166 35.1387 33.418 35.1973 33.7109 35.1973C34.0703 35.1973 34.3652 35.1211 34.5957 34.9688C34.8301 34.8164 35.0176 34.6152 35.1582 34.3652C35.2988 34.1152 35.4082 33.8438 35.4863 33.5508V32.1387C35.4395 31.9238 35.3711 31.7168 35.2812 31.5176C35.1953 31.3145 35.082 31.1348 34.9414 30.9785C34.8047 30.8184 34.6348 30.6914 34.4316 30.5977C34.2324 30.5039 33.9961 30.457 33.7227 30.457C33.4258 30.457 33.1699 30.5195 32.9551 30.6445C32.7441 30.7656 32.5703 30.9336 32.4336 31.1484C32.2969 31.3594 32.1953 31.6055 32.1289 31.8867C32.0664 32.1641 32.0352 32.4609 32.0352 32.7773ZM39.166 29.6602V36H38.0762V29.6602H39.166ZM37.9941 27.9785C37.9941 27.8027 38.0469 27.6543 38.1523 27.5332C38.2617 27.4121 38.4219 27.3516 38.6328 27.3516C38.8398 27.3516 38.998 27.4121 39.1074 27.5332C39.2207 27.6543 39.2773 27.8027 39.2773 27.9785C39.2773 28.1465 39.2207 28.291 39.1074 28.4121C38.998 28.5293 38.8398 28.5879 38.6328 28.5879C38.4219 28.5879 38.2617 28.5293 38.1523 28.4121C38.0469 28.291 37.9941 28.1465 37.9941 27.9785ZM40.6191 32.9004V32.7656C40.6191 32.3086 40.6855 31.8848 40.8184 31.4941C40.9512 31.0996 41.1426 30.7578 41.3926 30.4688C41.6426 30.1758 41.9453 29.9492 42.3008 29.7891C42.6562 29.625 43.0547 29.543 43.4961 29.543C43.9414 29.543 44.3418 29.625 44.6973 29.7891C45.0566 29.9492 45.3613 30.1758 45.6113 30.4688C45.8652 30.7578 46.0586 31.0996 46.1914 31.4941C46.3242 31.8848 46.3906 32.3086 46.3906 32.7656V32.9004C46.3906 33.3574 46.3242 33.7812 46.1914 34.1719C46.0586 34.5625 45.8652 34.9043 45.6113 35.1973C45.3613 35.4863 45.0586 35.7129 44.7031 35.877C44.3516 36.0371 43.9531 36.1172 43.5078 36.1172C43.0625 36.1172 42.6621 36.0371 42.3066 35.877C41.9512 35.7129 41.6465 35.4863 41.3926 35.1973C41.1426 34.9043 40.9512 34.5625 40.8184 34.1719C40.6855 33.7812 40.6191 33.3574 40.6191 32.9004ZM41.7031 32.7656V32.9004C41.7031 33.2168 41.7402 33.5156 41.8145 33.7969C41.8887 34.0742 42 34.3203 42.1484 34.5352C42.3008 34.75 42.4902 34.9199 42.7168 35.0449C42.9434 35.166 43.207 35.2266 43.5078 35.2266C43.8047 35.2266 44.0645 35.166 44.2871 35.0449C44.5137 34.9199 44.7012 34.75 44.8496 34.5352C44.998 34.3203 45.1094 34.0742 45.1836 33.7969C45.2617 33.5156 45.3008 33.2168 45.3008 32.9004V32.7656C45.3008 32.4531 45.2617 32.1582 45.1836 31.8809C45.1094 31.5996 44.9961 31.3516 44.8438 31.1367C44.6953 30.918 44.5078 30.7461 44.2812 30.6211C44.0586 30.4961 43.7969 30.4336 43.4961 30.4336C43.1992 30.4336 42.9375 30.4961 42.7109 30.6211C42.4883 30.7461 42.3008 30.918 42.1484 31.1367C42 31.3516 41.8887 31.5996 41.8145 31.8809C41.7402 32.1582 41.7031 32.4531 41.7031 32.7656ZM48.8281 30.9199V36H47.7383V29.6602H48.7695L48.8281 30.9199ZM48.6055 32.5898L48.1016 32.5723C48.1055 32.1387 48.1621 31.7383 48.2715 31.3711C48.3809 31 48.543 30.6777 48.7578 30.4043C48.9727 30.1309 49.2402 29.9199 49.5605 29.7715C49.8809 29.6191 50.252 29.543 50.6738 29.543C50.9707 29.543 51.2441 29.5859 51.4941 29.6719C51.7441 29.7539 51.9609 29.8848 52.1445 30.0645C52.3281 30.2441 52.4707 30.4746 52.5723 30.7559C52.6738 31.0371 52.7246 31.377 52.7246 31.7754V36H51.6406V31.8281C51.6406 31.4961 51.584 31.2305 51.4707 31.0312C51.3613 30.832 51.2051 30.6875 51.002 30.5977C50.7988 30.5039 50.5605 30.457 50.2871 30.457C49.9668 30.457 49.6992 30.5137 49.4844 30.627C49.2695 30.7402 49.0977 30.8965 48.9688 31.0957C48.8398 31.2949 48.7461 31.5234 48.6875 31.7812C48.6328 32.0352 48.6055 32.3047 48.6055 32.5898ZM52.7129 31.9922L51.9863 32.2148C51.9902 31.8672 52.0469 31.5332 52.1562 31.2129C52.2695 30.8926 52.4316 30.6074 52.6426 30.3574C52.8574 30.1074 53.1211 29.9102 53.4336 29.7656C53.7461 29.6172 54.1035 29.543 54.5059 29.543C54.8457 29.543 55.1465 29.5879 55.4082 29.6777C55.6738 29.7676 55.8965 29.9062 56.0762 30.0938C56.2598 30.2773 56.3984 30.5137 56.4922 30.8027C56.5859 31.0918 56.6328 31.4355 56.6328 31.834V36H55.543V31.8223C55.543 31.4668 55.4863 31.1914 55.373 30.9961C55.2637 30.7969 55.1074 30.6582 54.9043 30.5801C54.7051 30.498 54.4668 30.457 54.1895 30.457C53.9512 30.457 53.7402 30.498 53.5566 30.5801C53.373 30.6621 53.2188 30.7754 53.0938 30.9199C52.9688 31.0605 52.873 31.2227 52.8066 31.4062C52.7441 31.5898 52.7129 31.7852 52.7129 31.9922ZM62.0117 34.916V31.6523C62.0117 31.4023 61.9609 31.1855 61.8594 31.002C61.7617 30.8145 61.6133 30.6699 61.4141 30.5684C61.2148 30.4668 60.9688 30.416 60.6758 30.416C60.4023 30.416 60.1621 30.4629 59.9551 30.5566C59.752 30.6504 59.5918 30.7734 59.4746 30.9258C59.3613 31.0781 59.3047 31.2422 59.3047 31.418H58.2207C58.2207 31.1914 58.2793 30.9668 58.3965 30.7441C58.5137 30.5215 58.6816 30.3203 58.9004 30.1406C59.123 29.957 59.3887 29.8125 59.6973 29.707C60.0098 29.5977 60.3574 29.543 60.7402 29.543C61.2012 29.543 61.6074 29.6211 61.959 29.7773C62.3145 29.9336 62.5918 30.1699 62.791 30.4863C62.9941 30.7988 63.0957 31.1914 63.0957 31.6641V34.6172C63.0957 34.8281 63.1133 35.0527 63.1484 35.291C63.1875 35.5293 63.2441 35.7344 63.3184 35.9062V36H62.1875C62.1328 35.875 62.0898 35.709 62.0586 35.502C62.0273 35.291 62.0117 35.0957 62.0117 34.916ZM62.1992 32.1562L62.2109 32.918H61.1152C60.8066 32.918 60.5312 32.9434 60.2891 32.9941C60.0469 33.041 59.8438 33.1133 59.6797 33.2109C59.5156 33.3086 59.3906 33.4316 59.3047 33.5801C59.2188 33.7246 59.1758 33.8945 59.1758 34.0898C59.1758 34.2891 59.2207 34.4707 59.3105 34.6348C59.4004 34.7988 59.5352 34.9297 59.7148 35.0273C59.8984 35.1211 60.123 35.168 60.3887 35.168C60.7207 35.168 61.0137 35.0977 61.2676 34.957C61.5215 34.8164 61.7227 34.6445 61.8711 34.4414C62.0234 34.2383 62.1055 34.041 62.1172 33.8496L62.5801 34.3711C62.5527 34.5352 62.4785 34.7168 62.3574 34.916C62.2363 35.1152 62.0742 35.3066 61.8711 35.4902C61.6719 35.6699 61.4336 35.8203 61.1562 35.9414C60.8828 36.0586 60.5742 36.1172 60.2305 36.1172C59.8008 36.1172 59.4238 36.0332 59.0996 35.8652C58.7793 35.6973 58.5293 35.4727 58.3496 35.1914C58.1738 34.9062 58.0859 34.5879 58.0859 34.2363C58.0859 33.8965 58.1523 33.5977 58.2852 33.3398C58.418 33.0781 58.6094 32.8613 58.8594 32.6895C59.1094 32.5137 59.4102 32.3809 59.7617 32.291C60.1133 32.2012 60.5059 32.1562 60.9395 32.1562H62.1992ZM64.7539 35.4258C64.7539 35.2422 64.8105 35.0879 64.9238 34.9629C65.041 34.834 65.209 34.7695 65.4277 34.7695C65.6465 34.7695 65.8125 34.834 65.9258 34.9629C66.043 35.0879 66.1016 35.2422 66.1016 35.4258C66.1016 35.6055 66.043 35.7578 65.9258 35.8828C65.8125 36.0078 65.6465 36.0703 65.4277 36.0703C65.209 36.0703 65.041 36.0078 64.9238 35.8828C64.8105 35.7578 64.7539 35.6055 64.7539 35.4258ZM64.7598 30.252C64.7598 30.0684 64.8164 29.9141 64.9297 29.7891C65.0469 29.6602 65.2148 29.5957 65.4336 29.5957C65.6523 29.5957 65.8184 29.6602 65.9316 29.7891C66.0488 29.9141 66.1074 30.0684 66.1074 30.252C66.1074 30.4316 66.0488 30.584 65.9316 30.709C65.8184 30.834 65.6523 30.8965 65.4336 30.8965C65.2148 30.8965 65.0469 30.834 64.9297 30.709C64.8164 30.584 64.7598 30.4316 64.7598 30.252Z" fill="#444242"/>
<g clip-path="url(#clip0_3855_6368)">
<path d="M89 44C95.6274 44 101 38.6274 101 32C101 25.3726 95.6274 20 89 20C82.3726 20 77 25.3726 77 32C77 38.6274 82.3726 44 89 44Z" fill="#6DA544"/>
<path d="M89.0001 24.6958L98.9131 32.0001L89.0001 39.3045L79.087 32.0001L89.0001 24.6958Z" fill="#FFDA44"/>
<path d="M88.9999 36.174C91.3051 36.174 93.1738 34.3052 93.1738 32.0001C93.1738 29.6949 91.3051 27.8262 88.9999 27.8262C86.6948 27.8262 84.826 29.6949 84.826 32.0001C84.826 34.3052 86.6948 36.174 88.9999 36.174Z" fill="#F0F0F0"/>
<path d="M86.9131 31.7393C86.1873 31.7393 85.4869 31.8496 84.8275 32.0545C84.8567 34.3345 86.7132 36.1741 89.0001 36.1741C90.4142 36.1741 91.6632 35.4701 92.4182 34.3943C91.1264 32.7773 89.1389 31.7393 86.9131 31.7393Z" fill="#0052B4"/>
<path d="M93.0965 32.7998C93.1468 32.5408 93.1739 32.2737 93.1739 32.0001C93.1739 29.6948 91.3052 27.8262 89 27.8262C87.28 27.8262 85.8034 28.8668 85.1644 30.3527C85.7293 30.2356 86.3141 30.174 86.9131 30.174C89.3373 30.174 91.5304 31.1817 93.0965 32.7998Z" fill="#0052B4"/>
</g>
<path d="M120.84 29.9179L120.513 29.6387C120.41 29.5515 120.272 29.5034 120.126 29.5034C119.979 29.5034 119.842 29.5515 119.739 29.6387L116.002 32.8019L112.261 29.6352C112.158 29.548 112.021 29.5 111.875 29.5C111.728 29.5 111.591 29.548 111.488 29.6352L111.16 29.9127C110.947 30.0931 110.947 30.3871 111.16 30.5675L115.614 34.3515C115.717 34.4386 115.854 34.5 116.002 34.5H116.004C116.15 34.5 116.287 34.4385 116.39 34.3515L120.84 30.5778C120.943 30.4906 121 30.371 121 30.247C121 30.1229 120.943 30.005 120.84 29.9179Z" fill="#444242"/>
<defs>
<clipPath id="clip0_3855_6368">
<rect width="24" height="24" fill="white" transform="translate(77 20)"/>
</clipPath>
</defs>
</svg>
